<svg id="_5dmat" data-name="5dmat" xmlns="http://www.w3.org/2000/svg" width="72.93" height="74.187" viewBox="0 0 72.93 74.187">
  <path id="Path_810" data-name="Path 810" d="M381.511,347.491V332.506a5.032,5.032,0,0,0-2.145-4.121l-9.454-6.619a3.772,3.772,0,0,0-2.164-.681h-7.612l.126,21.514a5.251,5.251,0,0,0,3.646,4.891Z" transform="translate(-308.581 -274.561)" fill="#fec9a3"/>
  <path id="Path_811" data-name="Path 811" d="M373.967,443.957h-8.8a5.03,5.03,0,0,1-5.03-5.03V433.9h8.8Z" transform="translate(-308.581 -371.028)" fill="#fabd91"/>
  <path id="Path_812" data-name="Path 812" d="M37.032,8.8a6.272,6.272,0,0,0-2.515.531V0H11.883A7.544,7.544,0,0,0,4.339,7.544V30.178h9.332a6.287,6.287,0,1,1,11.513,0h9.332V20.847A6.287,6.287,0,1,0,37.032,8.8Z" transform="translate(-4.339)" fill="#88b337"/>
  <path id="Path_813" data-name="Path 813" d="M242.78,7.544A7.544,7.544,0,0,0,235.236,0H212.6V9.332a6.287,6.287,0,1,1,0,11.513v9.332h9.332a6.287,6.287,0,1,0,11.513,0h9.334Z" transform="translate(-182.424)" fill="#e8594a"/>
  <path id="Path_814" data-name="Path 814" d="M242.788,57.023c-7.187,10-20.162,15.679-30.178,18.735v3.18h9.333a6.287,6.287,0,1,0,11.513,0h9.332Z" transform="translate(-182.432 -48.761)" fill="#d65245"/>
  <path id="Path_815" data-name="Path 815" d="M32,166.3a6.272,6.272,0,0,1,2.515.531v-10.59H25.184a6.287,6.287,0,1,0-11.513,0H4.339v22.633a7.544,7.544,0,0,0,7.544,7.544H34.517v-8.075A6.287,6.287,0,1,1,32,166.3Z" transform="translate(-4.339 -126.067)" fill="#fdb62f"/>
  <path id="Path_816" data-name="Path 816" d="M4.338,328.693a7.544,7.544,0,0,0,7.544,7.544H34.516v-8.075a6.26,6.26,0,0,1-8.779-5.533,55,55,0,0,1-21.4,4.759v1.3Z" transform="translate(-4.338 -275.882)" fill="#ffa719"/>
  <path id="Path_817" data-name="Path 817" d="M213.12,264.233l-7.956-21.25-8.738,3.291a6.294,6.294,0,1,1-10.777,4.06l-8.737,3.291,3.722,9.945a6.228,6.228,0,0,0-2.54.387,6.3,6.3,0,0,0,4.42,11.808,6.237,6.237,0,0,0,2.169-1.386l2.837,7.584,21.19-7.981A7.576,7.576,0,0,0,213.12,264.233Z" transform="translate(-149.476 -207.776)" fill="#4398d1"/>
  <path id="Path_818" data-name="Path 818" d="M211.853,314.012c-8.676,12.977-24.941,17.508-34.467,19.069a6.245,6.245,0,0,0,10.133,2.036l2.837,7.584,21.19-7.981a7.575,7.575,0,0,0,4.41-9.745Z" transform="translate(-152.312 -268.513)" fill="#3e8fc9"/>
  <path id="Path_819" data-name="Path 819" d="M37.032,53.11a6.272,6.272,0,0,0-2.515.531V51.816C25.1,60.483,12.345,65.27,4.339,67.6v6.883h9.332a6.287,6.287,0,1,1,11.513,0h9.332V65.155A6.287,6.287,0,1,0,37.032,53.11Z" transform="translate(-4.339 -44.308)" fill="#80a834"/>
  <path id="Path_820" data-name="Path 820" d="M372.2,385.155a3.112,3.112,0,0,0-4.445,4.357c.015.015.029.03.044.044l4.378,4.378a7.544,7.544,0,0,0,7.544,7.544h7.544v-1.257Z" transform="translate(-314.336 -328.549)" fill="#fec9a3"/>
</svg>
