<svg id="ads" xmlns="http://www.w3.org/2000/svg" width="80.426" height="44.867" viewBox="0 0 80.426 44.867">
  <g id="Group_787" data-name="Group 787" transform="translate(0 0)">
    <path id="Path_793" data-name="Path 793" d="M168.058,287.515c1.219,4.922,4.031,8.46,6.282,7.9s3.084-5,1.865-9.922-4.033-8.46-6.282-7.9S166.838,282.593,168.058,287.515Z" transform="translate(-167.497 -250.614)" fill="#002e5e"/>
    <g id="Group_782" data-name="Group 782" transform="translate(1.987 3.499)">
      <path id="Path_794" data-name="Path 794" d="M228.333,256.284c.209.7-.094,1.176-.674,1.076-16.86-2.728-33.533-.628-49.7,4.588-.5.165-.985.035-1.084-.293-1.633-5.456-2.855-10.774-4.488-16.23-.1-.329-.176-.841.332-.978,16.38-4.528,31.46-11.933,44.052-23.474.431-.4.945-.169,1.154.529Z" transform="translate(-172.311 -220.777)" fill="#e7e7e7"/>
    </g>
    <path id="Path_795" data-name="Path 795" d="M231.735,276.582l-6.359-21.246c-12.406,13.75-35.5,19.15-47.271,18.787.689,2.6,1.381,5.2,2.169,7.832.1.328.582.458,1.084.293,16.171-5.216,32.844-7.316,49.7-4.588C231.642,277.758,231.945,277.28,231.735,276.582Z" transform="translate(-173.727 -237.575)" fill="#c4c5c5"/>
    <g id="Group_783" data-name="Group 783" transform="translate(1.83 22.284)">
      <path id="Path_796" data-name="Path 796" d="M192.2,284.889c-7.3,1.582-11.98,3.061-15.3,3.99-4.021-5.5-5.28-10.941-4.906-17.752,4.148-1.171,9.76-2.879,14.787-4.831C186.156,271.266,188.618,281.115,192.2,284.889Z" transform="translate(-171.932 -266.296)" fill="#005585"/>
    </g>
    <path id="Path_797" data-name="Path 797" d="M281.96,255.726a4.49,4.49,0,0,0,1.257-.186c1.867-.559,4.143-2.567,4.379-8.956a54.47,54.47,0,0,0-8.687-29.025c-2.494-3.5-4.959-5.274-7.324-5.262a4.428,4.428,0,0,0-1.255.186c-1.868.559-4.144,2.566-4.38,8.955a54.465,54.465,0,0,0,8.687,29.025C277.13,253.966,279.594,255.737,281.96,255.726Z" transform="translate(-225.31 -212.297)" fill="#002e5e"/>
    <path id="Path_798" data-name="Path 798" d="M283.877,255.808c1.687-.506,3.745-2.377,3.968-8.424a53.888,53.888,0,0,0-8.581-28.668c-3.509-4.93-6.256-5.363-7.943-4.858s-3.744,2.376-3.968,8.423a52.637,52.637,0,0,0,2.261,14.942,48.853,48.853,0,0,0,6.32,13.727C279.444,255.879,282.191,256.313,283.877,255.808Z" transform="translate(-226.137 -213.119)" fill="#005585"/>
    <path id="Path_799" data-name="Path 799" d="M286.347,253.948c1.509-.452,3.325-2.211,3.4-8.032a56.422,56.422,0,0,0-8.316-27.786c-3.263-4.82-5.747-5.293-7.257-4.841s-3.325,2.212-3.4,8.032a56.43,56.43,0,0,0,8.317,27.786C282.353,253.926,284.837,254.4,286.347,253.948Z" transform="translate(-228.153 -212.801)" fill="#0078ad"/>
    <path id="Path_800" data-name="Path 800" d="M273.757,238.477c3.254,10.871,8.888,18.787,12.585,17.68s4.057-10.817.8-21.688-8.888-18.787-12.586-17.68S270.5,227.606,273.757,238.477Z" transform="translate(-228.601 -214.875)" fill="#fff"/>
    <path id="Path_801" data-name="Path 801" d="M287.164,262.882c3.037,10.144,3.251,19.041.478,19.871s-7.483-6.721-10.519-16.865Z" transform="translate(-231.884 -242.007)" fill="#d9d9d9"/>
    <g id="Group_786" data-name="Group 786" transform="translate(43.65 16.192)">
      <g id="Group_784" data-name="Group 784" transform="translate(0 0.141)">
        <path id="Path_802" data-name="Path 802" d="M273.272,252.926a61.511,61.511,0,0,0,8.567-1.037.422.422,0,0,1,.5.229l2.62,8.4a.393.393,0,0,1-.279.441,60.545,60.545,0,0,0-7.893,3.887c-.64-1.544-1.238-3.186-1.777-4.9A57.134,57.134,0,0,1,273.272,252.926Z" transform="translate(-273.272 -251.878)" fill="#005585"/>
      </g>
      <g id="Group_785" data-name="Group 785" transform="translate(1.39 4.594)">
        <path id="Path_803" data-name="Path 803" d="M285.631,262.667q.657,2.113,1.306,4.191a.393.393,0,0,1-.279.441,60.11,60.11,0,0,0-7.922,3.988c-1-2.7-1.476-4.077-2.1-6.183C280.146,264.145,282.969,263.311,285.631,262.667Z" transform="translate(-276.64 -262.667)" fill="#002e5e"/>
      </g>
      <path id="Path_804" data-name="Path 804" d="M295.732,255.848c.837,2.644.8,5.013-.074,5.291s-2.268-1.641-3.1-4.285-.8-5.013.074-5.291S294.9,253.2,295.732,255.848Z" transform="translate(-284.241 -251.535)" fill="#0078ad"/>
      <path id="Path_805" data-name="Path 805" d="M296.378,256.432c.733,2.315.88,4.333.33,4.506s-1.59-1.561-2.322-3.876-.88-4.333-.33-4.506S295.646,254.117,296.378,256.432Z" transform="translate(-285.284 -252.128)" fill="#0095d5"/>
    </g>
    <path id="Path_806" data-name="Path 806" d="M194.181,303.041a17.973,17.973,0,0,1-3.305-5.84,105.647,105.647,0,0,1-15.568,3.135,25.466,25.466,0,0,0,3.576,6.694C182.2,306.1,186.878,304.623,194.181,303.041Z" transform="translate(-172.084 -262.164)" fill="#002e5e"/>
  </g>
  <g id="Group_788" data-name="Group 788" transform="translate(62.336 1.259)">
    <path id="Path_807" data-name="Path 807" d="M319.354,226.77l-.8-1.009L329.2,215.348l2.7,3.4Z" transform="translate(-318.553 -215.348)" fill="#002e5e"/>
    <path id="Path_808" data-name="Path 808" d="M323.844,252.706l-.208-1.271,14.371-3.907.7,4.29Z" transform="translate(-321.538 -234.248)" fill="#002e5e"/>
    <path id="Path_809" data-name="Path 809" d="M326.065,277.593l.377-1.232,14.612,2.877-1.274,4.157Z" transform="translate(-322.965 -251.183)" fill="#002e5e"/>
  </g>
</svg>
