<svg id="alarm" xmlns="http://www.w3.org/2000/svg" width="76.562" height="67.565" viewBox="0 0 76.562 67.565">
  <ellipse id="Ellipse_4" data-name="Ellipse 4" cx="31.92" cy="31.929" rx="31.92" ry="31.929" transform="translate(6.643 3.707)" fill="#fff"/>
  <g id="Group_712" data-name="Group 712" transform="translate(0 0)">
    <g id="Group_711" data-name="Group 711" transform="translate(10.817 0)">
      <rect id="Rectangle_400" data-name="Rectangle 400" width="5.824" height="2.452" transform="translate(23.725 20.361) rotate(-76.905)" fill="#cfd1d2"/>
      <path id="Path_365" data-name="Path 365" d="M1373.458,438.724h0a1.638,1.638,0,0,1,1.967-1.225l4.967,1.155a1.639,1.639,0,0,1,1.225,1.968h0a1.639,1.639,0,0,1-1.967,1.225l-4.966-1.155A1.639,1.639,0,0,1,1373.458,438.724Z" transform="translate(-1350.928 -426.303)" fill="#cfd1d2"/>
      <g id="Group_709" data-name="Group 709" transform="translate(20.28 22.449)">
        <path id="Path_366" data-name="Path 366" d="M1354.1,587.084l-2.276-.237,4.049-38.882,24.638,30.453-1.779,1.439-21.156-26.15Z" transform="translate(-1351.826 -547.966)" fill="#59595b"/>
      </g>
      <rect id="Rectangle_401" data-name="Rectangle 401" width="2.452" height="5.823" transform="translate(17.894 17.982) rotate(-51.504)" fill="#e5e5e6"/>
      <path id="Path_367" data-name="Path 367" d="M1292.464,456.24h0a1.639,1.639,0,0,1-.262-2.3l3.174-3.991a1.638,1.638,0,0,1,2.3-.262h0a1.639,1.639,0,0,1,.262,2.3l-3.174,3.991A1.638,1.638,0,0,1,1292.464,456.24Z" transform="translate(-1277.697 -436.961)" fill="#e5e5e6"/>
      <rect id="Rectangle_402" data-name="Rectangle 402" width="2.452" height="6.734" transform="translate(20.941 14.841) rotate(-16.362)" fill="#919395"/>
      <path id="Path_368" data-name="Path 368" d="M1327.008,440.765h0a1.639,1.639,0,0,1,1.111-2.034l4.892-1.436a1.639,1.639,0,0,1,2.034,1.111h0a1.639,1.639,0,0,1-1.111,2.034l-4.893,1.437A1.638,1.638,0,0,1,1327.008,440.765Z" transform="translate(-1309.205 -426.098)" fill="#919395"/>
      <ellipse id="Ellipse_5" data-name="Ellipse 5" cx="19.867" cy="19.873" rx="19.867" ry="19.873" transform="translate(9.088 17.924)" fill="#d3616a"/>
      <ellipse id="Ellipse_6" data-name="Ellipse 6" cx="19.867" cy="19.873" rx="19.867" ry="19.873" transform="translate(9.088 17.924)" fill="#b5495b"/>
      <ellipse id="Ellipse_7" data-name="Ellipse 7" cx="18.975" cy="18.98" rx="18.975" ry="18.98" transform="translate(9.98 18.816)" fill="#d3616a"/>
      <path id="Path_369" data-name="Path 369" d="M1306.507,545.862a15.845,15.845,0,1,0,6.229,8.6A15.8,15.8,0,0,0,1306.507,545.862Z" transform="translate(-1268.582 -521.124)" fill="#fff"/>
      <path id="Path_370" data-name="Path 370" d="M1346.665,570.363a15.843,15.843,0,0,1-20.241,24.193,15.843,15.843,0,1,0,20.241-24.193Z" transform="translate(-1308.74 -545.625)" fill="#f0f1f1"/>
      <path id="Path_371" data-name="Path 371" d="M1479.071,437.371a9.092,9.092,0,0,0-15.851-8.909Z" transform="translate(-1431.553 -414.11)" fill="#b5495b"/>
      <path id="Path_372" data-name="Path 372" d="M1476.487,440.38a7.834,7.834,0,0,0-13.658-7.676Z" transform="translate(-1431.202 -418.488)" fill="#d3616a"/>
      <path id="Path_373" data-name="Path 373" d="M1163,528.005a9.093,9.093,0,0,1,8.523-16.065Z" transform="translate(-1157.731 -492.234)" fill="#b5495b"/>
      <path id="Path_374" data-name="Path 374" d="M1180.263,527.06a7.841,7.841,0,0,1,7.349-13.852Z" transform="translate(-1173.822 -493.501)" fill="#d3616a"/>
      <g id="Group_710" data-name="Group 710" transform="translate(25.08 28.33)">
        <path id="Path_375" data-name="Path 375" d="M1401.8,616.414l-3.013-10.268,2.2-.644,2.369,8.072,6.467-1.9.645,2.2Z" transform="translate(-1398.782 -605.502)" fill="#59595b"/>
      </g>
      <ellipse id="Ellipse_8" data-name="Ellipse 8" cx="2.192" cy="2.193" rx="2.192" ry="2.193" transform="translate(26.77 35.604) rotate(-0.082)" fill="#d3616a"/>
      <path id="Path_376" data-name="Path 376" d="M1308.359,723.013a1.125,1.125,0,1,1-1.4-.762A1.125,1.125,0,0,1,1308.359,723.013Z" transform="translate(-1290.544 -681.946)" fill="#59595b"/>
      <circle id="Ellipse_9" data-name="Ellipse 9" cx="1.125" cy="1.125" r="1.125" transform="translate(40.466 35.203) rotate(-89.678)" fill="#59595b"/>
      <path id="Path_377" data-name="Path 377" d="M1393.511,567.064a1.125,1.125,0,1,1,.762-1.4A1.124,1.124,0,0,1,1393.511,567.064Z" transform="translate(-1367.676 -540.684)" fill="#59595b"/>
      <path id="Path_378" data-name="Path 378" d="M1464.9,810.345a1.125,1.125,0,1,1,.762-1.4A1.124,1.124,0,0,1,1464.9,810.345Z" transform="translate(-1431.77 -759.099)" fill="#59595b"/>
      <path id="Path_379" data-name="Path 379" d="M1625.72,584.55a10.843,10.843,0,0,1,.868,1.058c.271.367.522.749.763,1.138a20.091,20.091,0,0,1,1.268,2.435,20.622,20.622,0,0,1,.931,2.6c.062.222.124.445.178.669l.156.676c.088.454.173.91.233,1.37l.045.345c.015.115.022.231.033.347.019.231.046.462.057.694l.024.7c.007.232,0,.465,0,.7a15.269,15.269,0,0,1-.307,2.768l-.068.341c-.022.114-.057.225-.085.337-.059.224-.117.448-.181.67s-.146.439-.223.657l-.116.326-.134.319c-.093.211-.18.423-.277.631s-.21.409-.32.61c-.055.1-.105.2-.164.3l-.184.291c-.127.191-.248.383-.378.569.051-.224.112-.442.166-.661l.089-.325.075-.328c.048-.219.1-.435.151-.65l.124-.653.064-.323.048-.327.1-.649c.04-.437.106-.866.126-1.3.039-.432.046-.867.063-1.3.007-.216,0-.433,0-.649V597.6l-.015-.324c-.013-.216-.01-.432-.028-.647l-.049-.646c-.016-.215-.043-.43-.063-.646-.012-.107-.02-.215-.035-.322l-.046-.322c-.048-.43-.127-.857-.2-1.285l-.12-.64-.136-.639c-.187-.851-.409-1.7-.655-2.541A53.031,53.031,0,0,0,1625.72,584.55Z" transform="translate(-1577.444 -558.362)" fill="#cfd1d2"/>
      <path id="Path_380" data-name="Path 380" d="M1678.846,599.7a6.531,6.531,0,0,1,.665.714c.207.251.4.513.581.782a12.8,12.8,0,0,1,.958,1.7,13.213,13.213,0,0,1,.7,1.834,12.379,12.379,0,0,1,.414,1.931,11.311,11.311,0,0,1,.1,1.983,10.1,10.1,0,0,1-.254,1.971c-.035.162-.073.323-.123.481s-.093.317-.143.474-.115.31-.175.463l-.092.229-.1.224c-.073.148-.141.3-.218.44s-.164.284-.25.423c-.043.069-.083.14-.129.207l-.143.2c-.1.131-.194.261-.3.387.108-.646.247-1.254.318-1.871l.035-.228.023-.23.051-.455c.016-.306.053-.6.057-.908.031-.6.023-1.2,0-1.8s-.086-1.193-.164-1.787a28.889,28.889,0,0,0-.723-3.558C1679.616,602.117,1679.245,600.934,1678.846,599.7Z" transform="translate(-1625.139 -571.965)" fill="#cfd1d2"/>
      <path id="Path_381" data-name="Path 381" d="M1207.909,706.733a53,53,0,0,0,1.23,5.2c.249.843.52,1.675.822,2.492l.23.611.245.6c.172.4.336.8.528,1.188l.135.3c.045.1.1.193.145.29.1.192.192.388.3.577l.308.57c.1.191.221.371.327.56l.163.281.175.272c.12.18.228.368.35.546.247.354.488.716.754,1.059.252.356.539.681.809,1.027l.434.493.217.249.229.237.457.482c.159.154.32.307.479.465l.24.236.25.225c.164.155.333.3.5.466-.21-.086-.416-.182-.626-.274l-.312-.145c-.1-.051-.2-.109-.3-.164-.2-.11-.4-.226-.6-.34s-.382-.254-.574-.381l-.285-.2-.273-.211q-.273-.213-.542-.433c-.173-.153-.343-.31-.514-.466-.084-.079-.174-.154-.254-.238l-.242-.25a15.259,15.259,0,0,1-1.754-2.163c-.129-.193-.261-.385-.38-.585l-.356-.6c-.115-.2-.217-.41-.327-.615-.053-.1-.109-.2-.159-.309l-.149-.315c-.2-.419-.372-.849-.544-1.278l-.234-.653c-.076-.218-.144-.439-.212-.659a20.617,20.617,0,0,1-.62-2.689,20.045,20.045,0,0,1-.249-2.734c-.007-.457,0-.914.027-1.369A10.882,10.882,0,0,1,1207.909,706.733Z" transform="translate(-1202.169 -668.056)" fill="#cfd1d2"/>
      <path id="Path_382" data-name="Path 382" d="M1170.92,748.2c.33,1.253.657,2.448,1.038,3.616a28.9,28.9,0,0,0,1.314,3.384c.255.542.525,1.076.827,1.592s.616,1.027.968,1.516c.167.253.359.484.538.733l.289.355.144.181.153.173c.393.481.839.917,1.279,1.4-.155-.049-.306-.107-.459-.164l-.228-.09c-.075-.032-.146-.07-.22-.1-.147-.07-.292-.146-.438-.221s-.28-.168-.421-.253l-.209-.132-.2-.143c-.133-.1-.265-.2-.4-.3s-.251-.213-.377-.321-.247-.221-.363-.338a10.123,10.123,0,0,1-1.279-1.521,11.325,11.325,0,0,1-.987-1.723,12.98,12.98,0,0,1-1.1-3.768,12.845,12.845,0,0,1-.111-1.947c.009-.325.027-.649.066-.972A6.5,6.5,0,0,1,1170.92,748.2Z" transform="translate(-1168.912 -705.287)" fill="#cfd1d2"/>
      <path id="Path_383" data-name="Path 383" d="M1443.426,328.342l.066,6.314,1.683-1.055,1.237,3.95.08-6.319-1.8,1.1Z" transform="translate(-1413.783 -328.342)" fill="#4674b7"/>
      <path id="Path_384" data-name="Path 384" d="M1508.034,335.226l-4.925,3.95,1.868.673-2.342,3.412,5.019-3.839-1.98-.735Z" transform="translate(-1466.94 -334.522)" fill="#4674b7"/>
      <path id="Path_385" data-name="Path 385" d="M1153.416,459.666l5.089,3.737.166-1.979,3.9,1.38-5.006-3.856-.2,2.1Z" transform="translate(-1153.416 -445.598)" fill="#4674b7"/>
      <path id="Path_386" data-name="Path 386" d="M1226.147,380.461l.2,6.312,1.659-1.091,1.323,3.922-.058-6.319-1.776,1.143Z" transform="translate(-1218.713 -375.133)" fill="#4674b7"/>
    </g>
    <path id="Path_387" data-name="Path 387" d="M1684.023,445.524l-4.585,4.341,1.917.517-2.055,3.593,4.687-4.237-2.033-.57Z" transform="translate(-1614.731 -433.546)" fill="#4674b7"/>
    <path id="Path_388" data-name="Path 388" d="M1712.64,524.24l-6.245-.927.777,1.828-4.094.6,6.227,1.072-.807-1.952Z" transform="translate(-1636.078 -503.384)" fill="#4674b7"/>
    <path id="Path_389" data-name="Path 389" d="M1060.5,640.769l6.2,1.174-1.334,1.472,3.67,1.912-6.233-1.031,1.4-1.579Z" transform="translate(-1059.18 -608.834)" fill="#4674b7"/>
    <path id="Path_390" data-name="Path 390" d="M1047.592,715.794l4.753-4.156.334,1.958,3.769-1.707-4.66,4.268-.376-2.079Z" transform="translate(-1047.592 -672.46)" fill="#4674b7"/>
  </g>
</svg>
