<svg id="Capa_1" enable-background="new 0 0 512 512" height="512" viewBox="0 0 512 512" width="512" xmlns="http://www.w3.org/2000/svg"><g><path d="m292.52 366.043h-227.437c-7.399 0-13.398-5.998-13.398-13.398v-331.747c0-7.399 5.998-13.398 13.398-13.398h330.005c7.401 0 13.401 6 13.401 13.401v229.173c0 64.048-51.921 115.969-115.969 115.969z" fill="#f1f4f6"/><path d="m395.088 7.5h-26.599v188.618c0 82.801-67.124 149.925-149.925 149.925h-166.879v6.602c0 7.399 5.999 13.398 13.398 13.398h227.437c64.048 0 115.969-51.921 115.969-115.969v-229.173c0-7.401-6-13.401-13.401-13.401z" fill="#dfeaef"/><path d="m408.489 250.074c0 64.048-51.921 115.969-115.969 115.969h-6.501c28.017 0 50.729-22.712 50.729-50.729v-7.615c0-7.399 5.998-13.398 13.398-13.398h7.615c28.017 0 50.729-22.712 50.729-50.729v6.502z" fill="#f1f4f6"/><path d="m193.098 222.159h-78.559c-4.115 0-7.45-3.336-7.45-7.45v-84.61c0-4.115 3.336-7.45 7.45-7.45h78.559c4.115 0 7.45 3.336 7.45 7.45v84.61c0 4.115-3.335 7.45-7.45 7.45z" fill="#f4dd45"/><path d="m359.97 51.873h-259.766c-.961 0-1.739.779-1.739 1.739v32.467c0 .961.779 1.739 1.739 1.739h259.766c.961 0 1.739-.779 1.739-1.739v-32.467c.001-.96-.778-1.739-1.739-1.739z" fill="#617881"/><path d="m421.001 31.413h-12.512v218.661c0 64.048-51.921 115.969-115.969 115.969h-216.922v12.515c0 7.399 5.999 13.398 13.398 13.398h332.008c7.4 0 13.398-5.998 13.398-13.398v-333.744c0-7.401-6-13.401-13.401-13.401z" fill="#d0e2e7"/><path d="m446.914 55.326h-12.512v323.232c0 7.399-5.998 13.398-13.398 13.398h-321.493v12.515c0 7.399 5.999 13.398 13.398 13.398h334.008c7.399 0 13.398-5.998 13.398-13.398v-335.744c0-7.401-6-13.401-13.401-13.401z" fill="#b4d0d5"/><path d="m359.859 444.984c2.247 0 4.491.093 6.728.279v33.214c-2.237.186-4.482.279-6.728.279h-78.199v-33.772z" fill="#617881"/><path d="m373.224 446.09 29.568 4.928c4.75.792 8.666 4.447 9.366 9.211.887 6.031-3.214 11.467-9.024 12.435l-29.91 4.985c-2.201.367-4.415.643-6.637.827v-33.214c2.222.185 4.436.461 6.637.828z" fill="#7ad0df"/><path d="m162.961 444.984h118.699v33.772h-118.699z" fill="#7ad0df"/><path d="m162.961 444.984h-31.537c-.869 0-1.573.704-1.573 1.573v30.627c0 .869.704 1.573 1.573 1.573h31.537z" fill="#617881"/><path d="m106.948 446.97h22.903v29.799h-22.903c-3.991 0-7.227-3.236-7.227-7.227v-15.346c0-3.99 3.236-7.226 7.227-7.226z" fill="#7ad0df"/><path d="m361.71 115.148h-91.176c-4.143 0-7.5 3.358-7.5 7.5s3.357 7.5 7.5 7.5h91.176c4.143 0 7.5-3.358 7.5-7.5s-3.357-7.5-7.5-7.5z"/><path d="m361.71 148.319h-131.212c-4.143 0-7.5 3.358-7.5 7.5s3.357 7.5 7.5 7.5h131.212c4.143 0 7.5-3.358 7.5-7.5s-3.357-7.5-7.5-7.5z"/><path d="m361.71 181.489h-131.212c-4.143 0-7.5 3.358-7.5 7.5s3.357 7.5 7.5 7.5h131.212c4.143 0 7.5-3.358 7.5-7.5s-3.357-7.5-7.5-7.5z"/><path d="m316.122 229.659c4.143 0 7.5-3.358 7.5-7.5s-3.357-7.5-7.5-7.5h-85.624c-4.143 0-7.5 3.358-7.5 7.5s3.357 7.5 7.5 7.5z"/><path d="m138.501 262.83h223.209c4.143 0 7.5-3.358 7.5-7.5s-3.357-7.5-7.5-7.5h-223.209c-4.143 0-7.5 3.358-7.5 7.5s3.357 7.5 7.5 7.5z"/><path d="m283.84 329.17c4.143 0 7.5-3.358 7.5-7.5s-3.357-7.5-7.5-7.5h-185.376c-4.143 0-7.5 3.358-7.5 7.5s3.357 7.5 7.5 7.5z"/><path d="m208.049 214.709v-84.61c0-8.244-6.707-14.951-14.951-14.951h-78.559c-8.243 0-14.95 6.707-14.95 14.951v84.61c0 8.244 6.707 14.95 14.95 14.95h78.559c8.244 0 14.951-6.706 14.951-14.95zm-93.51-84.561 78.51-.049.053 84.56-78.513.05z"/><path d="m369.21 53.612c0-5.095-4.145-9.24-9.239-9.24h-259.767c-5.095 0-9.24 4.145-9.24 9.24v32.467c0 5.095 4.146 9.239 9.24 9.239h259.767c5.095 0 9.239-4.145 9.239-9.239zm-15 26.706h-248.246v-20.945h248.246z"/><path d="m404.025 443.62-29.568-4.928c-4.821-.803-9.709-1.208-14.598-1.208h-114.635c-4.143 0-7.5 3.358-7.5 7.5s3.357 7.5 7.5 7.5h28.937v18.772h-103.7v-18.772h39.763c4.143 0 7.5-3.358 7.5-7.5s-3.357-7.5-7.5-7.5h-78.8c-2.139 0-4.107.744-5.659 1.987h-18.816c-8.121 0-14.728 6.606-14.728 14.727v15.346c0 8.12 6.606 14.727 14.728 14.727h18.817c1.552 1.242 3.52 1.986 5.658 1.986h7.482v10.597c0 8.352 6.795 15.147 15.146 15.147h71.078c4.143 0 7.5-3.358 7.5-7.5s-3.357-7.5-7.5-7.5h-71.078c-.081 0-.146-.066-.146-.147v-10.597h205.953c5.009 0 9.888-.424 14.599-1.208l29.909-4.985c10.009-1.668 16.691-10.859 15.211-20.924-1.165-7.927-7.415-14.164-15.553-15.52zm-296.804 10.851h15.131v14.799h-15.131zm30.131-1.987h18.109v18.772h-18.109zm151.808 0h69.927v18.772h-69.927zm112.74 12.783-27.813 4.636v-16.065l27.473 4.579c1.634.272 2.971 1.494 3.179 2.904.279 1.901-.968 3.635-2.839 3.946z"/><path d="m446.914 47.826h-5.012v-3.012c0-11.525-9.376-20.901-20.901-20.901h-5.012v-3.012c0-11.525-9.376-20.901-20.901-20.901h-330.005c-11.522 0-20.897 9.375-20.897 20.898v9.984c0 4.142 3.357 7.5 7.5 7.5s7.5-3.358 7.5-7.5v-9.984c0-3.252 2.646-5.898 5.897-5.898h330.005c3.254 0 5.901 2.647 5.901 5.901v222.671c0 20.11-13.802 37.056-32.432 41.864-1.172-2.615-3.796-4.436-6.847-4.436h-263.246c-4.143 0-7.5 3.358-7.5 7.5s3.357 7.5 7.5 7.5h234.373c-2.265 3.34-3.59 7.368-3.59 11.699v7.615c0 23.836-19.393 43.229-43.229 43.229h-220.935c-3.252 0-5.897-2.646-5.897-5.898v-286.763c0-4.142-3.357-7.5-7.5-7.5s-7.5 3.358-7.5 7.5v286.763c0 11.523 9.375 20.898 20.897 20.898h3.015v5.015c0 11.523 9.375 20.898 20.898 20.898h3.015v5.015c0 11.523 9.375 20.898 20.898 20.898h334.008c11.522 0 20.897-9.375 20.897-20.897v-335.745c0-11.525-9.376-20.901-20.9-20.901zm-53.315 241.61c-11.02 28.2-33.517 50.697-61.717 61.717 7.744-9.888 12.365-22.333 12.365-35.838v-7.615c0-3.252 2.646-5.898 5.898-5.898h7.614c13.506-.001 25.951-4.622 35.84-12.366zm59.215 115.035c0 3.252-2.646 5.897-5.897 5.897h-334.008c-3.252 0-5.898-2.646-5.898-5.898v-5.015h313.993c11.523 0 20.898-9.375 20.898-20.898v-109.933c0-4.142-3.357-7.5-7.5-7.5s-7.5 3.358-7.5 7.5v109.935c0 3.252-2.646 5.898-5.898 5.898h-332.008c-3.252 0-5.898-2.646-5.898-5.898v-5.015h209.422c68.081 0 123.47-55.388 123.47-123.469v-211.162h5.012c3.254 0 5.901 2.647 5.901 5.901v188.81c0 4.142 3.357 7.5 7.5 7.5s7.5-3.358 7.5-7.5v-170.798h5.012c3.254 0 5.9 2.647 5.9 5.901v335.744z"/></g></svg>