<svg xmlns="http://www.w3.org/2000/svg" width="105.491" height="82.779" viewBox="0 0 105.491 82.779">
  <g id="bramg_sya7ya" transform="translate(0 0.223)">
    <g id="Group_757" data-name="Group 757" transform="translate(0 0)">
      <rect id="Rectangle_411" data-name="Rectangle 411" width="105.491" height="74.59" transform="translate(0 3.882)" fill="#fff"/>
      <g id="Group_725" data-name="Group 725" transform="translate(1.968 5.927)">
        <rect id="Rectangle_412" data-name="Rectangle 412" width="101.554" height="70.498" fill="#e4ddd7"/>
        <g id="Group_724" data-name="Group 724">
          <path id="Path_447" data-name="Path 447" d="M320.845,170.314,307.737,203.1l2.279.957,13.49-33.743Z" transform="translate(-238.228 -170.314)" fill="#fff" fill-rule="evenodd"/>
          <path id="Path_448" data-name="Path 448" d="M316.289,267.057a48.534,48.534,0,0,0,6.489,17.167c3.973,6.331,10.412,13.06,21.037,18.409v2.948c-11.84-5.688-18.938-13.037-23.276-19.947a51.05,51.05,0,0,1-6.851-18.079Z" transform="translate(-242.261 -235.872)" fill="#fff" fill-rule="evenodd"/>
          <path id="Path_449" data-name="Path 449" d="M236.622,186.708l-81.116,65.213h3.944l77.172-62.043Z" transform="translate(-135.068 -181.424)" fill="#fff" fill-rule="evenodd"/>
          <rect id="Rectangle_413" data-name="Rectangle 413" width="2.471" height="70.498" transform="translate(69.495)" fill="#fff"/>
          <rect id="Rectangle_414" data-name="Rectangle 414" width="101.554" height="2.471" transform="translate(0 30.415)" fill="#fff"/>
          <path id="Path_450" data-name="Path 450" d="M296.212,245.905a7.284,7.284,0,1,1-7.284,7.285A7.284,7.284,0,0,1,296.212,245.905Z" transform="translate(-225.482 -221.539)" fill="#fff" fill-rule="evenodd"/>
          <path id="Path_451" data-name="Path 451" d="M301.206,253.275a4.909,4.909,0,1,1-4.909,4.909A4.909,4.909,0,0,1,301.206,253.275Z" transform="translate(-230.476 -226.533)" fill="#32b5ac" fill-rule="evenodd"/>
          <path id="Path_452" data-name="Path 452" d="M204.414,280.6l1.389-2.045-28.532-12.563-1.389,2.045Z" transform="translate(-148.876 -235.151)" fill="#fff" fill-rule="evenodd"/>
          <path id="Path_453" data-name="Path 453" d="M92.1,315.022l30.31-13.144-.933-2.289L92.1,312.328Z" transform="translate(-92.101 -257.918)" fill="#fff" fill-rule="evenodd"/>
          <path id="Path_454" data-name="Path 454" d="M147.935,329.492l.932,2.289,14.487-7.117-.932-2.289Z" transform="translate(-129.938 -273.359)" fill="#fff" fill-rule="evenodd"/>
          <path id="Path_455" data-name="Path 455" d="M92.1,285.829l22.94-4.869-.26-2.458L92.1,283.315Z" transform="translate(-92.101 -243.628)" fill="#fff" fill-rule="evenodd"/>
          <path id="Path_456" data-name="Path 456" d="M146.182,222.735l.932,2.289,17.595-19.547-.932-2.289Z" transform="translate(-128.75 -192.591)" fill="#fff" fill-rule="evenodd"/>
          <path id="Path_457" data-name="Path 457" d="M118.751,222.947l1.766-2.188L92.1,214.878v2.554Z" transform="translate(-92.101 -200.513)" fill="#fff" fill-rule="evenodd"/>
          <path id="Path_458" data-name="Path 458" d="M92.1,200.925l22.638-30.611h-2.626L92.1,197.374Z" transform="translate(-92.101 -170.314)" fill="#fff" fill-rule="evenodd"/>
          <path id="Path_459" data-name="Path 459" d="M119.852,245.4l1.766-2.188-17.789-3.955-1.766,2.189Z" transform="translate(-98.852 -217.033)" fill="#fff" fill-rule="evenodd"/>
          <path id="Path_460" data-name="Path 460" d="M224.18,183.508l2.063,1.159,12.92-14.354h-3.106Z" transform="translate(-181.605 -170.314)" fill="#fff" fill-rule="evenodd"/>
          <path id="Path_461" data-name="Path 461" d="M188.122,232.873l-.211-2.753H170.4l-2.614,2.754Z" transform="translate(-143.393 -210.841)" fill="#fff" fill-rule="evenodd"/>
          <path id="Path_462" data-name="Path 462" d="M253.415,233.535l.306-2.8L225.306,230,225,232.8Z" transform="translate(-182.162 -210.761)" fill="#fff" fill-rule="evenodd"/>
          <path id="Path_463" data-name="Path 463" d="M244.539,247.279l2.718-.492-.094-10.353-2.724.789Z" transform="translate(-195.334 -215.121)" fill="#fff" fill-rule="evenodd"/>
          <path id="Path_464" data-name="Path 464" d="M271.707,246.4l2.717-.492-.094-10.353-2.724.789Z" transform="translate(-213.744 -214.528)" fill="#fff" fill-rule="evenodd"/>
          <path id="Path_465" data-name="Path 465" d="M182.235,179.048,184,176.859l-30.219-5.085-1.766,2.189Z" transform="translate(-132.703 -171.304)" fill="#fff" fill-rule="evenodd"/>
          <path id="Path_466" data-name="Path 466" d="M258.121,334.124l-.106-2.47-26.127-3.611.106,2.47Z" transform="translate(-186.83 -277.2)" fill="#fff" fill-rule="evenodd"/>
          <path id="Path_467" data-name="Path 467" d="M238.047,359.662l-.105-2.47-36.092-4.8.106,2.47Z" transform="translate(-166.473 -293.698)" fill="#fff" fill-rule="evenodd"/>
          <path id="Path_468" data-name="Path 468" d="M225.355,342.094l3.122.916,9.754-8.789-3.122-.916Z" transform="translate(-182.402 -280.766)" fill="#fff" fill-rule="evenodd"/>
          <path id="Path_469" data-name="Path 469" d="M194.383,300.485l.933,2.289,13.922-9.66-.932-2.289Z" transform="translate(-161.413 -251.979)" fill="#fff" fill-rule="evenodd"/>
          <path id="Path_470" data-name="Path 470" d="M338.421,286.095l2.552,1.174,11.254-19.03-2.552-1.174Z" transform="translate(-259.022 -235.877)" fill="#fff" fill-rule="evenodd"/>
          <path id="Path_471" data-name="Path 471" d="M339.848,344.928l-1.542-20.972-2.724.262,1.544,20.711Z" transform="translate(-257.098 -274.43)" fill="#fff" fill-rule="evenodd"/>
          <path id="Path_472" data-name="Path 472" d="M322.438,369.76l-.106-2.47-10.54.395.105,2.47Z" transform="translate(-240.976 -303.796)" fill="#fff" fill-rule="evenodd"/>
          <path id="Path_473" data-name="Path 473" d="M320.4,324.219l-.106-3.436-10.258,4.94.106,3.436Z" transform="translate(-239.788 -272.28)" fill="#fff" fill-rule="evenodd"/>
          <path id="Path_474" data-name="Path 474" d="M222.9,368.922l2.466-8.488-2.453-1.071-2.777,9.559Z" transform="translate(-178.866 -298.424)" fill="#fff" fill-rule="evenodd"/>
          <path id="Path_475" data-name="Path 475" d="M276.929,306.079l.648-2.722-17.413-.005-.354,2.731Z" transform="translate(-205.75 -260.468)" fill="#fff" fill-rule="evenodd"/>
          <path id="Path_476" data-name="Path 476" d="M343.064,192.756l.142,2.758,15.93,1.222,2.106-2.237Z" transform="translate(-262.168 -185.522)" fill="#fff" fill-rule="evenodd"/>
          <path id="Path_477" data-name="Path 477" d="M360.318,178.815l3.122.916,4.6-9.418h-3.57Z" transform="translate(-273.86 -170.314)" fill="#fff" fill-rule="evenodd"/>
          <path id="Path_478" data-name="Path 478" d="M329.042,223.429l.142,2.758,10.281-.472,2.106-2.237Z" transform="translate(-252.665 -206.308)" fill="#fff" fill-rule="evenodd"/>
          <path id="Path_479" data-name="Path 479" d="M219.08,335.313l5.132.849-6.507,5.863-5.981-.8Z" transform="translate(-173.165 -282.126)" fill="#32b5ac" fill-rule="evenodd"/>
          <path id="Path_480" data-name="Path 480" d="M162.256,238.662l-7.546,8.384h29.006l-.081-8.217Z" transform="translate(-134.529 -216.63)" fill="#32b5ac" fill-rule="evenodd"/>
          <path id="Path_481" data-name="Path 481" d="M135.934,287.991l6.582,6.365,6.821-3.089-4.593-5.139Z" transform="translate(-121.805 -248.796)" fill="#8ec63f" fill-rule="evenodd"/>
          <path id="Path_482" data-name="Path 482" d="M350.462,170.314l-2.947,7.372,4.469.429,3.811-7.8Z" transform="translate(-265.184 -170.314)" fill="#d4cbba" fill-rule="evenodd"/>
          <path id="Path_483" data-name="Path 483" d="M374.2,299.362l-14.473-8.448-1.2,2.162,15.671,9.147Z" transform="translate(-272.65 -252.039)" fill="#fff" fill-rule="evenodd"/>
          <path id="Path_484" data-name="Path 484" d="M364.07,324.733l2.066,1.357,7.885-14.929-2.066-1.357Z" transform="translate(-276.403 -264.84)" fill="#fff" fill-rule="evenodd"/>
          <path id="Path_485" data-name="Path 485" d="M387.842,334.319l-7.689-5.266-1.5,2.291,9.184,6.277Z" transform="translate(-286.288 -277.884)" fill="#fff" fill-rule="evenodd"/>
          <path id="Path_486" data-name="Path 486" d="M381.383,350.247l2.167,1.19,5.126-9.219-2.167-1.19Z" transform="translate(-288.135 -285.999)" fill="#fff" fill-rule="evenodd"/>
          <path id="Path_487" data-name="Path 487" d="M375.947,338.464l-2.893,5.477s.965.8,1.8,1.416,1.883,1.357,1.883,1.357l3.106-5.587Z" transform="translate(-282.491 -284.262)" fill="#32b5ac" fill-rule="evenodd"/>
          <path id="Path_488" data-name="Path 488" d="M105.624,191.873l-5.38,7.274L92.1,197.463v-8.284Z" transform="translate(-92.101 -183.098)" fill="#32b5ac" fill-rule="evenodd"/>
          <path id="Path_489" data-name="Path 489" d="M123.015,226.933l-2.876-.6-9.021,13.475,3.047.357Z" transform="translate(-104.988 -208.278)" fill="#fff" fill-rule="evenodd"/>
        </g>
      </g>
      <path id="Path_490" data-name="Path 490" d="M93.945,238.557q.674-.953,1.328-1.932a77.337,77.337,0,0,0,12.32-32.482c1.565-10.832,5.6-20.117,14.205-27.139a150.5,150.5,0,0,1,20.056-13.036h22c-6.772,3.687-9.3,5.4-13.608,7.633-13.946,7.241-24.945,19.6-25,36.093a88.469,88.469,0,0,1-5.82,30.864Z" transform="translate(-91.382 -160.086)" fill="#fff" fill-rule="evenodd"/>
      <path id="Path_491" data-name="Path 491" d="M126.016,240.812a75.273,75.273,0,0,0,5.232-28.827c.082-22.789,17.5-34.29,33.4-41.671H150.087C135.032,177.986,121.415,189.3,118.6,208.8c-2.056,14.232-6.05,23.1-12.081,32.009h8.912a67.124,67.124,0,0,0,7.181-18.744c-.224,7.857-.98,12.682-3.2,18.744Z" transform="translate(-99.901 -164.386)" fill="#68a5d4" fill-rule="evenodd"/>
      <path id="Path_492" data-name="Path 492" d="M140.2,263.862a37.334,37.334,0,0,1,11.384,8.371c4.292,4.716,8.316,11.748,9.792,22.291l-2.622.363c-1.388-9.912-5.137-16.484-9.129-20.872a34.8,34.8,0,0,0-10.607-7.79Z" transform="translate(-121.93 -227.78)" fill="#fff" fill-rule="evenodd"/>
      <path id="Path_493" data-name="Path 493" d="M162.821,198.047l.071-2.471L92.1,181.469v2.485Z" transform="translate(-90.133 -171.945)" fill="#fff" fill-rule="evenodd"/>
      <path id="Path_494" data-name="Path 494" d="M112.368,232.8q-6.595.975-13.189,1.941T86,236.678V155.467q6.59.694,13.184,1.373t13.189,1.373V232.8Z" transform="translate(-85.995 -154.325)" fill="#fff" fill-rule="evenodd"/>
      <g id="Group_727" data-name="Group 727" transform="translate(1.967 3.578)">
        <path id="Path_495" data-name="Path 495" d="M116.5,235.888q-6.1.853-12.205,1.714l-12.2,1.706V163.025q6.1.585,12.2,1.178t12.205,1.186v70.5Z" transform="translate(-92.098 -163.025)" fill="#e4ddd7" fill-rule="evenodd"/>
        <g id="Group_726" data-name="Group 726" transform="translate(0 1.941)">
          <path id="Path_496" data-name="Path 496" d="M159.471,379.191q-1.986,1.864-3.966,3.736c1.313-.179,2.627-.357,3.943-.544.008,0,.016-.008.024-.025Z" transform="translate(-135.066 -311.452)" fill="#fff" fill-rule="evenodd"/>
          <path id="Path_497" data-name="Path 497" d="M116.5,264.708q-6.1.037-12.205.065t-12.2.065v2.68q6.1-.086,12.2-.171t12.205-.162Z" transform="translate(-92.098 -233.872)" fill="#fff" fill-rule="evenodd"/>
          <path id="Path_498" data-name="Path 498" d="M92.1,321.93c4.067-2.266,8.121-4.513,12.2-6.668,4.055-2.142,8.136-4.207,12.205-6.237v-2.7c-4.069,2-8.15,4.03-12.205,6.132-4.079,2.113-8.133,4.312-12.2,6.546Z" transform="translate(-92.098 -262.077)" fill="#fff" fill-rule="evenodd"/>
          <path id="Path_499" data-name="Path 499" d="M147.929,338.459c.311.763.622,1.5.934,2.258q2.738-1.632,5.475-3.241v-2.753Q151.133,336.574,147.929,338.459Z" transform="translate(-129.932 -281.318)" fill="#fff" fill-rule="evenodd"/>
          <path id="Path_500" data-name="Path 500" d="M92.1,287.055c3.821-1.031,7.643-2.062,11.467-3.045s7.648-1.941,11.472-2.875c-.087-.82-.174-1.649-.261-2.469q-5.673,1.34-11.34,2.753c-3.781.942-7.558,1.925-11.337,2.915Z" transform="translate(-92.098 -243.331)" fill="#fff" fill-rule="evenodd"/>
          <path id="Path_501" data-name="Path 501" d="M146.178,247.622c.311.779.622,1.559.934,2.331q3.019-3.423,6.039-6.781v-3.329c-1.163,1.283-2.331,2.556-3.489,3.849S147.338,246.3,146.178,247.622Z" transform="translate(-128.746 -217.022)" fill="#fff" fill-rule="evenodd"/>
          <path id="Path_502" data-name="Path 502" d="M116.5,217.484q-6.1-1.462-12.205-3.013c-4.069-1.032-8.133-2.127-12.2-3.224v2.761c4.067,1.064,8.131,2.119,12.2,3.118s8.136,1.965,12.205,2.908Z" transform="translate(-92.098 -197.644)" fill="#fff" fill-rule="evenodd"/>
          <path id="Path_503" data-name="Path 503" d="M92.1,200.232c3.771-5.482,7.516-10.855,11.317-16.048,3.742-5.113,7.548-10.054,11.322-14.878-.875-.09-1.751-.179-2.627-.26-3.336,4.3-6.7,8.7-10.008,13.221-3.358,4.586-6.67,9.315-10,14.123Z" transform="translate(-92.098 -169.047)" fill="#fff" fill-rule="evenodd"/>
          <path id="Path_504" data-name="Path 504" d="M119.846,244.53c.588-.739,1.176-1.47,1.764-2.209q-4.45-1.036-8.9-2.12c-2.965-.727-5.929-1.486-8.893-2.25-.591.772-1.179,1.535-1.767,2.314,2.964.747,5.927,1.494,8.893,2.2S116.879,243.856,119.846,244.53Z" transform="translate(-98.845 -215.741)" fill="#fff" fill-rule="evenodd"/>
          <path id="Path_505" data-name="Path 505" d="M167.793,238.683c0,.008-.005.008-.008.008s.005,0,.008-.008Z" transform="translate(-143.388 -216.236)" fill="#fff" fill-rule="evenodd"/>
          <path id="Path_506" data-name="Path 506" d="M157.1,171.712l-3.326-.877c-.591.682-1.179,1.373-1.767,2.055,1.7.447,3.394.877,5.093,1.308Z" transform="translate(-132.698 -170.259)" fill="#fff" fill-rule="evenodd"/>
          <path id="Path_507" data-name="Path 507" d="M158.928,250.171q-2.112,2.339-4.225,4.71l4.225-.025Z" transform="translate(-134.523 -224.021)" fill="#32b5ac" fill-rule="evenodd"/>
          <path id="Path_508" data-name="Path 508" d="M135.926,288.5c2.194,2.112,4.388,4.174,6.583,6.212l3.7-1.876v-4.93q-.736-.792-1.466-1.584c-1.469.357-2.941.723-4.407,1.08S137.392,288.136,135.926,288.5Z" transform="translate(-121.798 -248.521)" fill="#8ec63f" fill-rule="evenodd"/>
          <path id="Path_509" data-name="Path 509" d="M105.619,187.257q-2.69,3.618-5.378,7.317c-1.358-.349-2.719-.714-4.074-1.072s-2.714-.739-4.069-1.1v-8.966q3.378.987,6.759,1.941T105.619,187.257Z" transform="translate(-92.098 -178.795)" fill="#32b5ac" fill-rule="evenodd"/>
          <path id="Path_510" data-name="Path 510" d="M123.008,226.07c-.96-.235-1.917-.471-2.874-.715-1.506,2.274-3.016,4.56-4.513,6.879-1.51,2.342-3.006,4.71-4.51,7.09,1.015.122,2.031.236,3.046.349,1.474-2.315,2.943-4.625,4.423-6.895C120.049,230.525,121.532,228.287,123.008,226.07Z" transform="translate(-104.983 -207.204)" fill="#fff" fill-rule="evenodd"/>
        </g>
      </g>
      <path id="Path_511" data-name="Path 511" d="M93.939,277.519q.676-1.121,1.329-2.266a102.675,102.675,0,0,0,8-17.412,92.752,92.752,0,0,0,4.315-17.907,53.179,53.179,0,0,1,3.363-13,34.737,34.737,0,0,1,6.8-10.647v57.733l-11.907,1.754Q99.894,276.65,93.939,277.519Z" transform="translate(-91.378 -195.54)" fill="#fff" fill-rule="evenodd"/>
      <path id="Path_512" data-name="Path 512" d="M126.014,281.1c.087-.235.171-.471.259-.723V229.689a41.211,41.211,0,0,0-4.866,8.844A46.322,46.322,0,0,0,118.6,249.3a90.946,90.946,0,0,1-4.552,18.9,93.752,93.752,0,0,1-7.529,15.633c1.485-.211,2.969-.414,4.454-.625s2.97-.414,4.457-.618a82.779,82.779,0,0,0,4.175-9.575,95.9,95.9,0,0,0,3.007-10.411,77.354,77.354,0,0,1-.855,10.273,54.281,54.281,0,0,1-2.35,9.153l3.3-.463Z" transform="translate(-99.9 -204.622)" fill="#68a5d4" fill-rule="evenodd"/>
      <path id="Path_513" data-name="Path 513" d="M140.2,264.053c.947.471,2.171,1.116,3.561,1.957a38.47,38.47,0,0,1,4.539,3.2v3.581a34.5,34.5,0,0,0-5.193-4.012c-1.612-1.025-3.033-1.762-4.088-2.3C139.412,265.669,139.8,264.865,140.2,264.053Z" transform="translate(-121.927 -227.909)" fill="#fff" fill-rule="evenodd"/>
      <path id="Path_514" data-name="Path 514" d="M116.5,182.029q-6.1-1.644-12.205-3.362c-4.07-1.15-8.133-2.363-12.2-3.573v2.688c4.067,1.178,8.132,2.351,12.2,3.468s8.136,2.2,12.205,3.265Z" transform="translate(-90.131 -167.625)" fill="#fff" fill-rule="evenodd"/>
      <path id="Path_515" data-name="Path 515" d="M194.183,234.4q-3.3-.48-6.6-.945l-6.593-.936-6.593-.936-6.588-.936V156.057c2.194-.32,4.392-.628,6.588-.944s4.4-.629,6.593-.944,4.4-.628,6.593-.944,4.4-.632,6.6-.944V234.4Z" transform="translate(-141.437 -152.165)" fill="#fff" fill-rule="evenodd"/>
      <g id="Group_729" data-name="Group 729" transform="translate(26.373 2.381)">
        <path id="Path_516" data-name="Path 516" d="M194.183,236.927l-6.6-.887-6.593-.887-6.593-.887q-3.3-.443-6.588-.879v-70.5c2.194-.3,4.392-.592,6.588-.887s4.4-.6,6.593-.9,4.4-.6,6.593-.9,4.4-.6,6.6-.9v77.616Z" transform="translate(-167.81 -159.311)" fill="#e4ddd7" fill-rule="evenodd"/>
        <g id="Group_728" data-name="Group 728" transform="translate(0 4.492)">
          <path id="Path_517" data-name="Path 517" d="M194.183,316.787c-2.2,1.84-4.392,3.667-6.6,5.445q-3.28,2.643-6.593,5.157-3.286,2.5-6.593,4.9c-2.187,1.582-4.394,3.113-6.588,4.624v3.17c2.194-1.486,4.4-2.989,6.588-4.55s4.4-3.173,6.593-4.821,4.4-3.34,6.593-5.075c2.2-1.747,4.4-3.548,6.6-5.363Z" transform="translate(-167.81 -270.518)" fill="#fff" fill-rule="evenodd"/>
          <path id="Path_518" data-name="Path 518" d="M194.183,263.182l-6.6.123q-3.3.062-6.593.131c-2.2.045-4.4.082-6.593.123l-6.588.123v2.48c2.194-.025,4.391-.041,6.588-.066s4.4-.045,6.593-.066,4.4-.037,6.593-.058,4.4-.049,6.6-.065Z" transform="translate(-167.81 -234.192)" fill="#fff" fill-rule="evenodd"/>
          <path id="Path_519" data-name="Path 519" d="M199.644,276.32q-2.8-1.4-5.6-2.776t-5.594-2.661q-2.792-1.3-5.6-2.562c-1.861-.836-3.729-1.651-5.594-2.464-.464.715-.928,1.4-1.39,2.094q2.971,1.306,5.942,2.653c1.984.9,3.966,1.813,5.942,2.752s3.964,1.907,5.942,2.89,3.966,2,5.95,3Z" transform="translate(-173.271 -236.005)" fill="#fff" fill-rule="evenodd"/>
          <path id="Path_520" data-name="Path 520" d="M167.81,304.761c1.965-.772,3.932-1.569,5.9-2.373l-.934-2.365q-2.488,1.047-4.969,2.045Z" transform="translate(-167.81 -259.158)" fill="#fff" fill-rule="evenodd"/>
          <path id="Path_521" data-name="Path 521" d="M167.81,330.049c1.5-.632,3.005-1.262,4.5-1.905s3-1.306,4.507-1.979c-.311-.8-.622-1.609-.931-2.423-1.348.616-2.7,1.236-4.043,1.815s-2.693,1.166-4.035,1.741Z" transform="translate(-167.81 -275.231)" fill="#fff" fill-rule="evenodd"/>
          <path id="Path_522" data-name="Path 522" d="M167.81,216.272c1.922-2.234,3.858-4.486,5.773-6.783,1.932-2.318,3.85-4.673,5.778-7.063-.311-.764-.622-1.528-.931-2.3q-2.658,3.314-5.314,6.529c-1.764,2.124-3.539,4.221-5.306,6.291Z" transform="translate(-167.81 -191.462)" fill="#fff" fill-rule="evenodd"/>
          <path id="Path_523" data-name="Path 523" d="M170.052,233.521c.588-.756,1.176-1.528,1.767-2.3-1.337-.205-2.674-.394-4.009-.6v2.554Z" transform="translate(-167.81 -212.127)" fill="#fff" fill-rule="evenodd"/>
          <path id="Path_524" data-name="Path 524" d="M224.164,183.981c.686.361,1.374.715,2.062,1.068q3.07-3.942,6.145-8v-3.8c-1.372,1.831-2.739,3.664-4.106,5.445S225.53,182.24,224.164,183.981Z" transform="translate(-205.999 -173.247)" fill="#fff" fill-rule="evenodd"/>
          <path id="Path_525" data-name="Path 525" d="M188.133,229.3c-.071-.994-.142-1.971-.214-2.957l-4.38.271c-1.459.09-2.918.172-4.375.263s-2.917.185-4.375.271-2.917.189-4.375.279q-1.305,1.453-2.6,2.907h0q2.536-.135,5.077-.263c1.693-.086,3.389-.164,5.082-.255s3.387-.172,5.08-.255S186.437,229.381,188.133,229.3Z" transform="translate(-167.81 -209.227)" fill="#fff" fill-rule="evenodd"/>
          <path id="Path_526" data-name="Path 526" d="M232.932,225.7c-1.277.049-2.55.074-3.822.123s-2.542.091-3.813.132q-.154,1.5-.306,3.006c1.321-.025,2.648-.037,3.966-.074s2.648-.057,3.974-.1Z" transform="translate(-206.559 -208.795)" fill="#fff" fill-rule="evenodd"/>
          <path id="Path_527" data-name="Path 527" d="M244.528,244.765c.525-.1,1.05-.213,1.577-.328V233.144c-.562.206-1.119.419-1.675.624Q244.477,239.275,244.528,244.765Z" transform="translate(-219.732 -213.837)" fill="#fff" fill-rule="evenodd"/>
          <path id="Path_528" data-name="Path 528" d="M192.933,177.653c.414-.608.831-1.216,1.25-1.831v-.8c-2.2-.148-4.4-.3-6.6-.427s-4.4-.271-6.593-.386-4.4-.226-6.593-.32-4.394-.2-6.588-.279v2.48q3.137.148,6.277.32c2.092.115,4.189.23,6.282.361s4.186.279,6.28.427S190.839,177.5,192.933,177.653Z" transform="translate(-167.81 -173.489)" fill="#fff" fill-rule="evenodd"/>
          <path id="Path_529" data-name="Path 529" d="M237.6,333.111q-2.864-.6-5.721-1.216c.034.9.069,1.79.106,2.677q2.8.628,5.615,1.24Z" transform="translate(-211.227 -280.756)" fill="#fff" fill-rule="evenodd"/>
          <path id="Path_530" data-name="Path 530" d="M217.241,359.143q-1.931-.455-3.856-.92c-1.286-.312-2.57-.629-3.85-.92s-2.568-.6-3.85-.9-2.566-.591-3.848-.887c.034.862.069,1.725.105,2.579,1.274.3,2.547.628,3.821.928s2.551.612,3.824.92,2.55.632,3.824.944,2.553.641,3.829.961Z" transform="translate(-190.869 -296.761)" fill="#fff" fill-rule="evenodd"/>
          <path id="Path_531" data-name="Path 531" d="M225.343,351.691,228.465,353q2.35-2.057,4.705-4.18V344.71q-1.963,1.8-3.916,3.548C227.957,349.411,226.646,350.557,225.343,351.691Z" transform="translate(-206.798 -289.44)" fill="#fff" fill-rule="evenodd"/>
          <path id="Path_532" data-name="Path 532" d="M194.367,301.616c.311.813.622,1.618.933,2.423q1.737-1.145,3.479-2.332c1.16-.788,2.323-1.59,3.481-2.39s2.322-1.621,3.478-2.448,2.323-1.692,3.484-2.538c-.311-.838-.622-1.667-.931-2.513-1.16.862-2.317,1.722-3.481,2.562s-2.321,1.667-3.481,2.472-2.321,1.618-3.481,2.415S195.527,300.844,194.367,301.616Z" transform="translate(-185.807 -253.598)" fill="#fff" fill-rule="evenodd"/>
          <path id="Path_533" data-name="Path 533" d="M222.889,375.7q1.23-4.411,2.466-8.878c-.82-.468-1.638-.928-2.455-1.4-.926,3.318-1.852,6.628-2.777,9.9C221.043,375.459,221.966,375.574,222.889,375.7Z" transform="translate(-203.26 -303.476)" fill="#fff" fill-rule="evenodd"/>
          <path id="Path_534" data-name="Path 534" d="M219.067,339.92q2.429.6,4.866,1.224v.32q-3.125,2.845-6.24,5.593c-1.994-.452-3.988-.928-5.981-1.4,1.224-.936,2.459-1.868,3.676-2.817S217.841,340.914,219.067,339.92Z" transform="translate(-197.56 -286.194)" fill="#32b5ac" fill-rule="evenodd"/>
          <path id="Path_535" data-name="Path 535" d="M171.13,236.315q-1.661,1.947-3.32,3.868v4.681c2.062-.041,4.13-.086,6.192-.123s4.13-.074,6.195-.115,4.13-.074,6.2-.115,4.13-.074,6.2-.115c-.029-3-.055-5.987-.082-8.984-1.783.074-3.565.156-5.346.23s-3.563.136-5.343.214-3.565.16-5.346.238S172.91,236.233,171.13,236.315Z" transform="translate(-167.81 -215.373)" fill="#32b5ac" fill-rule="evenodd"/>
          <path id="Path_536" data-name="Path 536" d="M167.81,296.211c1.039-.443,2.081-.887,3.125-1.339q-1.567-1.8-3.125-3.589Z" transform="translate(-167.81 -253.235)" fill="#8ec63f" fill-rule="evenodd"/>
        </g>
      </g>
      <path id="Path_537" data-name="Path 537" d="M167.81,172.96a45.8,45.8,0,0,1,4.04-4.2c1.184-1.1,2.557-2.289,4.061-3.548s3.156-2.606,4.887-3.983,3.562-2.823,5.425-4.254,3.776-2.908,5.68-4.328l2.279-.32v12.417a68.616,68.616,0,0,0-7.553,7.457,53.018,53.018,0,0,0-5.968,8.344,41.68,41.68,0,0,0-3.932,9.239,37.519,37.519,0,0,0-1.437,10.224,87.546,87.546,0,0,1-1.54,16.064,83.961,83.961,0,0,1-4.28,14.84c-.556-.074-1.11-.156-1.661-.23V172.96Z" transform="translate(-141.437 -152.199)" fill="#fff" fill-rule="evenodd"/>
      <path id="Path_538" data-name="Path 538" d="M167.81,232.706a67.521,67.521,0,0,0,3.721-12.927,86.329,86.329,0,0,0,1.247-15.111,41.022,41.022,0,0,1,1.741-11.9,41.574,41.574,0,0,1,4.641-10.068,56.683,56.683,0,0,1,6.8-8.681,83.377,83.377,0,0,1,8.223-7.58v-7.128l-2.564.345c-2.3,1.577-4.552,3.254-6.754,4.96-2.186,1.694-4.314,3.466-6.351,5.322a80.041,80.041,0,0,0-5.752,5.773,58.629,58.629,0,0,0-4.953,6.3v50.7Z" transform="translate(-141.437 -156.93)" fill="#68a5d4" fill-rule="evenodd"/>
      <path id="Path_539" data-name="Path 539" d="M167.81,280.1a31.08,31.08,0,0,1,3.281,3.2,36.53,36.53,0,0,1,5.952,9.354,51.075,51.075,0,0,1,3.843,14.167c-.875.049-1.751.09-2.624.131a47.61,47.61,0,0,0-3.587-13.189,34.066,34.066,0,0,0-5.541-8.7c-.44-.493-.884-.953-1.324-1.388Z" transform="translate(-141.437 -238.784)" fill="#fff" fill-rule="evenodd"/>
      <path id="Path_540" data-name="Path 540" d="M194.183,199.7c-2.2-.287-4.4-.583-6.6-.854s-4.4-.546-6.593-.8-4.393-.513-6.59-.739-4.4-.46-6.591-.673v2.488c2.194.23,4.392.481,6.588.731s4.4.521,6.593.8,4.4.571,6.593.862,4.4.616,6.6.928Z" transform="translate(-141.437 -182.224)" fill="#fff" fill-rule="evenodd"/>
      <path id="Path_541" data-name="Path 541" d="M276,230.651q-6.595.949-13.189,1.881L249.626,234.4V152.279q6.59.949,13.184,1.889T276,156.057v74.594Z" transform="translate(-196.88 -152.165)" fill="#fff" fill-rule="evenodd"/>
      <g id="Group_731" data-name="Group 731" transform="translate(52.746 2.372)">
        <path id="Path_542" data-name="Path 542" d="M276,233.362l-13.189,1.774q-6.591.887-13.184,1.766V159.285q6.59.9,13.184,1.791T276,162.858v70.5Z" transform="translate(-249.626 -159.285)" fill="#e4ddd7" fill-rule="evenodd"/>
        <g id="Group_730" data-name="Group 730" transform="translate(0 0.509)">
          <path id="Path_543" data-name="Path 543" d="M315.373,212.788q-1.911,4.644-3.821,9.387-1.917,4.777-3.822,9.649c.76.337,1.519.682,2.279,1.01,1.788-4.525,3.576-8.976,5.364-13.386Z" transform="translate(-289 -196.051)" fill="#fff" fill-rule="evenodd"/>
          <path id="Path_544" data-name="Path 544" d="M316.287,266.979A51.965,51.965,0,0,0,319.41,277.7v6a50.7,50.7,0,0,1-5.723-16.261Z" transform="translate(-293.037 -232.774)" fill="#fff" fill-rule="evenodd"/>
          <path id="Path_545" data-name="Path 545" d="M276,247.641c-4.4,3.425-8.826,6.936-13.189,10.619-4.424,3.734-8.79,7.662-13.184,11.662v3.49c4.394-4.057,8.757-8.037,13.184-11.826,4.361-3.734,8.793-7.293,13.189-10.775Z" transform="translate(-249.626 -219.669)" fill="#fff" fill-rule="evenodd"/>
          <path id="Path_546" data-name="Path 546" d="M310.161,239.413v-71.9c-.826-.107-1.648-.222-2.471-.328v72.557C308.513,239.634,309.336,239.528,310.161,239.413Z" transform="translate(-288.973 -165.147)" fill="#fff" fill-rule="evenodd"/>
          <path id="Path_547" data-name="Path 547" d="M276,263.658q-6.595-.111-13.189-.246t-13.184-.255v2.726q6.59.074,13.184.132c4.394.041,8.793.09,13.189.123Z" transform="translate(-249.626 -230.184)" fill="#fff" fill-rule="evenodd"/>
          <path id="Path_548" data-name="Path 548" d="M296.2,245.1a8.227,8.227,0,0,1,6.422,4.114v6.89a7.915,7.915,0,0,1-6.422,3.934,6.407,6.407,0,0,1-5.15-2.16,7.787,7.787,0,0,1-2.134-5.412,7.555,7.555,0,0,1,2.134-5.346A6.229,6.229,0,0,1,296.2,245.1Z" transform="translate(-276.254 -217.942)" fill="#fff" fill-rule="evenodd"/>
          <path id="Path_549" data-name="Path 549" d="M301.2,252.68a5.127,5.127,0,0,1,4.911,5.1,4.911,4.911,0,1,1-9.818-.14A4.823,4.823,0,0,1,301.2,252.68Z" transform="translate(-281.25 -223.082)" fill="#32b5ac" fill-rule="evenodd"/>
          <path id="Path_550" data-name="Path 550" d="M254.386,303.349c.462-.755.923-1.5,1.387-2.258-2.049-.92-4.1-1.848-6.147-2.8v2.924C251.211,301.945,252.8,302.651,254.386,303.349Z" transform="translate(-249.626 -253.992)" fill="#fff" fill-rule="evenodd"/>
          <path id="Path_551" data-name="Path 551" d="M249.626,168.651q1.693-1.873,3.388-3.72t3.392-3.647l-3.107-.419q-1.839,1.983-3.673,3.983Z" transform="translate(-249.626 -160.865)" fill="#fff" fill-rule="evenodd"/>
          <path id="Path_552" data-name="Path 552" d="M270.1,230.352c.1-.961.2-1.905.306-2.85q-5.2-.443-10.394-.9t-10.388-.928v3.088q5.119.419,10.238.8C263.277,229.83,266.689,230.1,270.1,230.352Z" transform="translate(-249.626 -204.787)" fill="#fff" fill-rule="evenodd"/>
          <path id="Path_553" data-name="Path 553" d="M249.626,243.841c.379-.057.762-.131,1.144-.205-.032-3.778-.063-7.572-.1-11.358-.351.1-.7.189-1.049.271Z" transform="translate(-249.626 -209.258)" fill="#fff" fill-rule="evenodd"/>
          <path id="Path_554" data-name="Path 554" d="M271.7,244.311l2.719-.493q-.047-5.494-.095-11c-.91.23-1.817.468-2.724.7Q271.648,238.919,271.7,244.311Z" transform="translate(-264.517 -209.621)" fill="#fff" fill-rule="evenodd"/>
          <path id="Path_555" data-name="Path 555" d="M249.626,178.766c.171-.205.345-.419.519-.632l-.519-.172Z" transform="translate(-249.626 -172.45)" fill="#fff" fill-rule="evenodd"/>
          <path id="Path_556" data-name="Path 556" d="M270.138,339.779c-.037-.838-.071-1.676-.105-2.521q-5.1-.345-10.206-.747t-10.2-.871v2.7c3.417.279,6.835.55,10.253.788S266.718,339.574,270.138,339.779Z" transform="translate(-249.626 -279.302)" fill="#fff" fill-rule="evenodd"/>
          <path id="Path_557" data-name="Path 557" d="M270.423,370.066c-.037-.829-.074-1.667-.108-2.5q-5.174-.147-10.346-.345t-10.343-.468v2.7c3.465.14,6.93.275,10.4.369S266.955,370,270.423,370.066Z" transform="translate(-249.626 -300.383)" fill="#fff" fill-rule="evenodd"/>
          <path id="Path_558" data-name="Path 558" d="M249.626,344.509q2.523-2.7,5.05-5.354-1.563-.382-3.12-.788c-.643.682-1.287,1.363-1.93,2.037Z" transform="translate(-249.626 -281.15)" fill="#fff" fill-rule="evenodd"/>
          <path id="Path_559" data-name="Path 559" d="M318.123,367.844c-2.113.312-4.225.632-6.335.928.034.854.069,1.684.106,2.521,2.076-.329,4.151-.641,6.229-.977Z" transform="translate(-291.75 -301.126)" fill="#fff" fill-rule="evenodd"/>
          <path id="Path_560" data-name="Path 560" d="M316.937,325.857q-1.725.948-3.45,1.889c-1.151.629-2.3,1.273-3.449,1.921.034,1.174.069,2.341.105,3.515,1.131-.649,2.261-1.3,3.394-1.938s2.265-1.265,3.4-1.9Z" transform="translate(-290.565 -272.673)" fill="#fff" fill-rule="evenodd"/>
          <path id="Path_561" data-name="Path 561" d="M276.924,306.722c.213-.928.43-1.864.646-2.8q-4.356.123-8.708.254t-8.7.238c-.119,1-.238,2-.356,2.989q4.281-.185,8.56-.345T276.924,306.722Z" transform="translate(-256.523 -257.808)" fill="#fff" fill-rule="evenodd"/>
          <path id="Path_562" data-name="Path 562" d="M329.035,223.335c.048.928.1,1.856.142,2.768.211.008.422.016.633.008v-2.718C329.552,223.376,329.294,223.352,329.035,223.335Z" transform="translate(-303.438 -203.198)" fill="#fff" fill-rule="evenodd"/>
          <path id="Path_563" data-name="Path 563" d="M249.626,343.691c.089.016.179.025.269.041-.09.091-.18.189-.269.279Z" transform="translate(-249.626 -284.758)" fill="#32b5ac" fill-rule="evenodd"/>
        </g>
      </g>
      <path id="Path_564" data-name="Path 564" d="M249.626,152.3c3.286.476,6.575.94,9.86,1.413s6.575.944,9.863,1.421c-3.386,1.421-5.72,2.528-7.73,3.5s-3.728,1.82-5.879,2.776a45.3,45.3,0,0,0-6.116,3.31Z" transform="translate(-196.88 -152.183)" fill="#fff" fill-rule="evenodd"/>
      <path id="Path_565" data-name="Path 565" d="M249.626,166.414a61.961,61.961,0,0,1,5.96-3.088c2.006-.9,4.04-1.684,6.045-2.406l-6-.813q-3-.407-6-.821Z" transform="translate(-196.88 -156.913)" fill="#68a5d4" fill-rule="evenodd"/>
      <path id="Path_566" data-name="Path 566" d="M269.566,214.391c.024-.837.047-1.675.071-2.521-3.336-.92-6.678-1.836-10.008-2.792s-6.67-1.947-10-2.965v2.743c3.323.969,6.643,1.941,9.968,2.858S266.241,213.521,269.566,214.391Z" transform="translate(-196.88 -188.646)" fill="#fff" fill-rule="evenodd"/>
      <path id="Path_567" data-name="Path 567" d="M357.814,151.925V234.05q-6.594-.924-13.189-1.831T331.441,230.4V155.81l13.184-1.946Q351.215,152.89,357.814,151.925Z" transform="translate(-252.323 -151.925)" fill="#fff" fill-rule="evenodd"/>
      <path id="Path_568" data-name="Path 568" d="M355.843,159.8V236.88q-6.1-.8-12.2-1.593t-12.2-1.585V163.2l12.2-1.7Z" transform="translate(-252.323 -157.26)" fill="#e4ddd7" fill-rule="evenodd"/>
      <g id="Group_732" data-name="Group 732" transform="translate(79.118 3.564)">
        <path id="Path_569" data-name="Path 569" d="M336.905,167.2q-2.734,7.317-5.464,14.437V188.3c1.353-3.482,2.715-7.011,4.061-10.57q2.039-5.392,4.067-10.9Z" transform="translate(-331.441 -165.59)" fill="#fff" fill-rule="evenodd"/>
        <path id="Path_570" data-name="Path 570" d="M331.441,300.229a49.057,49.057,0,0,0,3.365,6.636,57.019,57.019,0,0,0,8.022,10.364,75.62,75.62,0,0,0,13.015,10.734v3.219a81.632,81.632,0,0,1-14.452-11.711,61.5,61.5,0,0,1-8.822-11.292c-.4-.657-.775-1.314-1.129-1.946Z" transform="translate(-331.441 -255.989)" fill="#fff" fill-rule="evenodd"/>
        <path id="Path_571" data-name="Path 571" d="M355.843,177.708c-4.069,4.016-8.111,7.952-12.2,11.728-4.042,3.73-8.133,7.309-12.2,10.808v3.17c4.066-3.449,8.158-6.978,12.2-10.66,4.091-3.726,8.133-7.613,12.2-11.58Z" transform="translate(-331.441 -172.961)" fill="#fff" fill-rule="evenodd"/>
        <path id="Path_572" data-name="Path 572" d="M355.843,262.956q-6.1.135-12.2.279t-12.2.279v2.48q6.1-.086,12.2-.164t12.2-.164Z" transform="translate(-331.441 -230.73)" fill="#fff" fill-rule="evenodd"/>
        <path id="Path_573" data-name="Path 573" d="M331.441,257.86a7.129,7.129,0,0,1,.865,3.425,7.364,7.364,0,0,1-.865,3.466Z" transform="translate(-331.441 -227.277)" fill="#fff" fill-rule="evenodd"/>
        <path id="Path_574" data-name="Path 574" d="M338.42,285.664c.849.444,1.7.9,2.55,1.331,1.875-3.137,3.761-6.326,5.625-9.559,1.886-3.271,3.753-6.619,5.631-9.995-.852-.4-1.7-.8-2.553-1.2q-2.816,5.039-5.628,9.921C342.177,279.386,340.295,282.544,338.42,285.664Z" transform="translate(-336.17 -232.957)" fill="#fff" fill-rule="evenodd"/>
        <path id="Path_575" data-name="Path 575" d="M339.845,346.129q-.388-5.4-.773-10.775t-.767-10.717l-2.724.123q.384,5.236.77,10.487c.256,3.5.514,7.022.773,10.529C338.03,345.891,338.937,346.006,339.845,346.129Z" transform="translate(-334.246 -272.529)" fill="#fff" fill-rule="evenodd"/>
        <path id="Path_576" data-name="Path 576" d="M335.753,370.613c-.037-.829-.071-1.667-.105-2.521l-4.206-.271v2.472Q333.6,370.465,335.753,370.613Z" transform="translate(-331.441 -301.793)" fill="#fff" fill-rule="evenodd"/>
        <path id="Path_577" data-name="Path 577" d="M334.9,324.764c-.037-1.158-.071-2.316-.105-3.49-1.121.5-2.239.985-3.357,1.47v3.49C332.593,325.758,333.748,325.257,334.9,324.764Z" transform="translate(-331.441 -270.25)" fill="#fff" fill-rule="evenodd"/>
        <path id="Path_578" data-name="Path 578" d="M343.059,191.181c.047.92.095,1.856.142,2.776,2.653-.057,5.312-.1,7.965-.156s5.312-.1,7.967-.14c.7-.879,1.4-1.749,2.1-2.628-3.03.016-6.063.016-9.091.049S346.086,191.14,343.059,191.181Z" transform="translate(-339.314 -181.991)" fill="#fff" fill-rule="evenodd"/>
        <path id="Path_579" data-name="Path 579" d="M360.313,172.871l3.123.616q2.3-5.2,4.6-10.5c-1.189.156-2.379.328-3.568.493Q362.39,168.218,360.313,172.871Z" transform="translate(-351.006 -162.983)" fill="#fff" fill-rule="evenodd"/>
        <path id="Path_580" data-name="Path 580" d="M331.441,224.466c1.606-.172,3.215-.353,4.821-.525s3.218-.361,4.826-.55c.7-.813,1.4-1.643,2.107-2.472-1.959.14-3.922.271-5.879.411s-3.919.271-5.876.419Z" transform="translate(-331.441 -202.243)" fill="#fff" fill-rule="evenodd"/>
        <path id="Path_581" data-name="Path 581" d="M350.457,165.258q-1.475,3.991-2.949,7.925c1.49-.008,2.98-.033,4.47-.049q1.9-4.262,3.811-8.623C354.013,164.757,352.235,165.012,350.457,165.258Z" transform="translate(-342.329 -164.018)" fill="#d4cbba" fill-rule="evenodd"/>
        <path id="Path_582" data-name="Path 582" d="M374.2,300.623c-2.413-1.618-4.819-3.234-7.239-4.8-2.4-1.55-4.824-3.071-7.234-4.566-.4.739-.8,1.478-1.2,2.209,2.611,1.642,5.227,3.3,7.833,5.01s5.225,3.49,7.838,5.281Z" transform="translate(-349.798 -249.911)" fill="#fff" fill-rule="evenodd"/>
        <path id="Path_583" data-name="Path 583" d="M364.069,326.986c.688.534,1.376,1.076,2.065,1.6q1.97-3.733,3.94-7.555c1.316-2.561,2.629-5.166,3.946-7.786-.689-.509-1.377-1.026-2.065-1.528q-1.974,3.917-3.945,7.745Q366.046,323.262,364.069,326.986Z" transform="translate(-353.552 -263.775)" fill="#fff" fill-rule="evenodd"/>
        <path id="Path_584" data-name="Path 584" d="M387.839,338.217c-1.282-1.051-2.566-2.1-3.845-3.129s-2.564-2.053-3.843-3.063c-.5.788-1,1.561-1.5,2.341,1.53,1.216,3.065,2.44,4.589,3.679s3.062,2.513,4.594,3.786Z" transform="translate(-363.436 -277.535)" fill="#fff" fill-rule="evenodd"/>
        <path id="Path_585" data-name="Path 585" d="M381.381,355.177c.72.517,1.443,1,2.165,1.5q2.563-4.669,5.127-9.477c-.723-.484-1.445-.961-2.168-1.445Q383.942,350.524,381.381,355.177Z" transform="translate(-365.283 -286.841)" fill="#fff" fill-rule="evenodd"/>
        <path id="Path_586" data-name="Path 586" d="M375.945,341.961c-.965,1.864-1.931,3.729-2.893,5.552,0,0,.964.936,1.8,1.667s1.883,1.618,1.883,1.618q1.551-2.821,3.107-5.708Q377.89,343.513,375.945,341.961Z" transform="translate(-359.639 -284.268)" fill="#32b5ac" fill-rule="evenodd"/>
      </g>
      <g id="Group_733" data-name="Group 733" transform="translate(30.699 11.202)">
        <path id="Path_587" data-name="Path 587" d="M182.686,186.682l2.395.346.294.043.182.026a.43.43,0,0,1,.362.485l-.087.6-.606-.088-.293-.042-2.947.48.215-1.488A.429.429,0,0,1,182.686,186.682Z" transform="translate(-181.743 -186.677)" fill="#fff" fill-rule="evenodd"/>
        <path id="Path_588" data-name="Path 588" d="M182.413,188.523l11.142,1.611A3.077,3.077,0,0,1,196,193.254l-.1.716a.309.309,0,0,1-.349.261l-13.671-1.977a.751.751,0,0,1-.634-.849l.325-2.248A.751.751,0,0,1,182.413,188.523Z" transform="translate(-181.232 -187.922)" fill="#e57472" fill-rule="evenodd"/>
        <path id="Path_589" data-name="Path 589" d="M183.424,188.523l11.142,1.611a2.664,2.664,0,0,1,.683.192l0,.024a.342.342,0,0,1-.385.288l-11.939-1.726a.337.337,0,0,1-.2-.1A.751.751,0,0,1,183.424,188.523Z" transform="translate(-182.243 -187.923)" fill="#e57472" fill-rule="evenodd"/>
        <path id="Path_590" data-name="Path 590" d="M186.325,198.453l-2.318-.335a1.171,1.171,0,1,1,2.318.335Z" transform="translate(-183.112 -193.75)" fill="#ffa9a8" fill-rule="evenodd"/>
        <path id="Path_591" data-name="Path 591" d="M219.1,203.192l-2.318-.335a1.171,1.171,0,0,1,2.318.335Z" transform="translate(-205.323 -196.961)" fill="#ffa9a8" fill-rule="evenodd"/>
        <path id="Path_592" data-name="Path 592" d="M218.45,202.444a.984.984,0,1,1-1.114.833A.984.984,0,0,1,218.45,202.444Z" transform="translate(-205.691 -197.355)" fill="#666" fill-rule="evenodd"/>
        <path id="Path_593" data-name="Path 593" d="M185.674,197.705a.984.984,0,1,1-1.114.833A.984.984,0,0,1,185.674,197.705Z" transform="translate(-183.481 -194.144)" fill="#666" fill-rule="evenodd"/>
        <path id="Path_594" data-name="Path 594" d="M219.368,203.893a.515.515,0,1,1-.583.436A.515.515,0,0,1,219.368,203.893Z" transform="translate(-206.676 -198.34)" fill="#fffdfc" fill-rule="evenodd"/>
        <path id="Path_595" data-name="Path 595" d="M186.592,199.154a.515.515,0,1,1-.583.436A.516.516,0,0,1,186.592,199.154Z" transform="translate(-184.465 -195.128)" fill="#fffdfc" fill-rule="evenodd"/>
        <path id="Path_596" data-name="Path 596" d="M226.1,203.139v0l-.1.716h0l-.23-.033a.131.131,0,0,1-.111-.148l.066-.46a.131.131,0,0,1,.148-.111Z" transform="translate(-211.337 -197.809)" fill="#fffdfc" fill-rule="evenodd"/>
        <path id="Path_597" data-name="Path 597" d="M184.82,189.977l10.383,1.5a2.1,2.1,0,0,1,1.751,1.676c.019.059,0,.219-.144.2l-13.12-1.9.634-1.153A.5.5,0,0,1,184.82,189.977Z" transform="translate(-182.898 -188.91)" fill="#ffa9a8" fill-rule="evenodd"/>
        <path id="Path_598" data-name="Path 598" d="M195.4,199.764l-2.318-.335a1.171,1.171,0,0,1,2.318.335Z" transform="translate(-189.26 -194.639)" fill="#ffa9a8" fill-rule="evenodd"/>
        <path id="Path_599" data-name="Path 599" d="M194.746,199.017a.984.984,0,1,1-1.114.833A.983.983,0,0,1,194.746,199.017Z" transform="translate(-189.628 -195.033)" fill="#666" fill-rule="evenodd"/>
        <path id="Path_600" data-name="Path 600" d="M195.664,200.466a.515.515,0,1,1-.584.436A.515.515,0,0,1,195.664,200.466Z" transform="translate(-190.612 -196.017)" fill="#fffdfc" fill-rule="evenodd"/>
        <path id="Path_601" data-name="Path 601" d="M185.511,190.628l10.449,1.511a1.57,1.57,0,0,1,.869.419,2.674,2.674,0,0,1,.437.832c.045.139-.036.159-.085.152l-12.481-1.8.515-.922C185.3,190.663,185.383,190.609,185.511,190.628Z" transform="translate(-183.583 -189.352)" fill="#fffdfc" fill-rule="evenodd"/>
        <rect id="Rectangle_415" data-name="Rectangle 415" width="1.625" height="0.224" transform="translate(2.276 2.76) rotate(-81.783)" fill="#ffa9a8"/>
        <rect id="Rectangle_416" data-name="Rectangle 416" width="1.625" height="0.224" transform="translate(4.656 3.104) rotate(-81.765)" fill="#ffa9a8"/>
        <rect id="Rectangle_417" data-name="Rectangle 417" width="1.625" height="0.224" transform="matrix(0.143, -0.99, 0.99, 0.143, 7.037, 3.449)" fill="#ffa9a8"/>
        <rect id="Rectangle_418" data-name="Rectangle 418" width="1.625" height="0.224" transform="translate(9.417 3.793) rotate(-81.765)" fill="#ffa9a8"/>
        <rect id="Rectangle_419" data-name="Rectangle 419" width="1.625" height="0.224" transform="translate(11.818 4.14) rotate(-81.766)" fill="#ffa9a8"/>
        <path id="Path_602" data-name="Path 602" d="M225.6,198.692l.31.05c.164.026.239.1.269.2a.866.866,0,0,1-.009.342l-.11-.016a.819.819,0,0,0,.012-.3c-.017-.061-.067-.1-.179-.122l-.31-.05Z" transform="translate(-211.284 -194.819)" fill="#ffa9a8" fill-rule="evenodd"/>
        <path id="Path_603" data-name="Path 603" d="M226.837,199.421h0a.13.13,0,0,1,.11.146l-.114.786a.13.13,0,0,1-.146.11h0a.13.13,0,0,1-.11-.147l.114-.786A.129.129,0,0,1,226.837,199.421Z" transform="translate(-211.959 -195.312)" fill="#ffa9a8" fill-rule="evenodd"/>
        <path id="Path_604" data-name="Path 604" d="M227.071,199.424a.13.13,0,0,1,.11.147l-.113.786a.13.13,0,0,1-.147.11Z" transform="translate(-212.193 -195.315)" fill="#e57472" fill-rule="evenodd"/>
        <path id="Path_605" data-name="Path 605" d="M181.987,188.5c.581.084.908.377.734.695l-.671,1.221-.333-.048Z" transform="translate(-181.561 -187.91)" fill="#ffa9a8" fill-rule="evenodd"/>
        <path id="Path_606" data-name="Path 606" d="M182.026,188.992c.352.037.7.249.588.45l-.605,1.082-.2-.029Z" transform="translate(-181.623 -188.246)" fill="#fffdfc" fill-rule="evenodd"/>
        <path id="Path_607" data-name="Path 607" d="M221.429,194.088a3.128,3.128,0,0,1,1.718,2.163.536.536,0,0,1-.435-.363,4.135,4.135,0,0,0-.263-.54,2.633,2.633,0,0,0-.818-.9C221.376,194.3,221.385,194.164,221.429,194.088Z" transform="translate(-208.455 -191.699)" fill="#ffa9a8" fill-rule="evenodd"/>
        <path id="Path_608" data-name="Path 608" d="M221.824,194.242a3.126,3.126,0,0,1,1.572,1.981.484.484,0,0,1-.269-.306,4.14,4.14,0,0,0-.263-.54,2.879,2.879,0,0,0-.818-.9C221.845,194.359,221.84,194.31,221.824,194.242Z" transform="translate(-208.739 -191.804)" fill="#fffdfc" fill-rule="evenodd"/>
        <path id="Path_609" data-name="Path 609" d="M182.1,196.777v0l-.1.716h0l-.23-.033a.131.131,0,0,1-.111-.148l.067-.46a.131.131,0,0,1,.148-.111Z" transform="translate(-181.519 -193.498)" fill="#ffa9a8" fill-rule="evenodd"/>
        <path id="Path_610" data-name="Path 610" d="M206.7,202.3l.138.02a.078.078,0,0,1,.065.088h0a.078.078,0,0,1-.088.065l-.138-.02a.077.077,0,0,1-.065-.087h0A.078.078,0,0,1,206.7,202.3Z" transform="translate(-198.433 -197.26)" fill="#fff" fill-rule="evenodd"/>
        <path id="Path_611" data-name="Path 611" d="M212.19,203.089l.138.02a.078.078,0,0,1,.065.087h0a.078.078,0,0,1-.088.065l-.138-.02a.077.077,0,0,1-.065-.088h0A.077.077,0,0,1,212.19,203.089Z" transform="translate(-202.151 -197.798)" fill="#fff" fill-rule="evenodd"/>
      </g>
      <g id="Group_734" data-name="Group 734" transform="translate(18.584 49.453)">
        <path id="Path_612" data-name="Path 612" d="M143.646,318.691l.868,1.386H146.5l.023-1.386Z" transform="translate(-143.646 -314.388)" fill="#ffd45e" fill-rule="evenodd"/>
        <path id="Path_613" data-name="Path 613" d="M155.584,318.691H152.5v1.386h1.936Z" transform="translate(-149.649 -314.388)" fill="#ffd45e" fill-rule="evenodd"/>
        <path id="Path_614" data-name="Path 614" d="M144.965,309.48h2.427v-4.139A6.676,6.676,0,0,0,144.965,309.48Z" transform="translate(-144.54 -305.341)" fill="#ff817f" fill-rule="evenodd"/>
        <path id="Path_615" data-name="Path 615" d="M153.025,306.977v3.594h2.107A5.8,5.8,0,0,0,153.025,306.977Z" transform="translate(-150.002 -306.45)" fill="#fff" fill-rule="evenodd"/>
        <path id="Path_616" data-name="Path 616" d="M144.147,319.491l.156.249h2.561v-.249Z" transform="translate(-143.986 -314.93)" fill="#ffeab0" fill-rule="evenodd"/>
        <path id="Path_617" data-name="Path 617" d="M155.372,319.491H152.5v.249h2.661Z" transform="translate(-149.649 -314.93)" fill="#ffeab0" fill-rule="evenodd"/>
      </g>
      <g id="Group_735" data-name="Group 735" transform="translate(43.279 42.292)">
        <path id="Path_618" data-name="Path 618" d="M226.192,284.025l-1.375-.768c-.587-.328-1.576.064-2.305.112a2.164,2.164,0,0,1-.95-.14.937.937,0,0,0-.772.109,2.221,2.221,0,0,0-.483.6.281.281,0,0,0,.1.411l5.841,3.263c.124.069.271-.049.35-.166a3.64,3.64,0,0,0,.421-.754A2.228,2.228,0,0,0,226.192,284.025Z" transform="translate(-220.259 -283.128)" fill="gray" fill-rule="evenodd"/>
        <path id="Path_619" data-name="Path 619" d="M220.31,285.479c.013-.022.029-.05.046-.078l6.349,3.434c-.037.057-.073.111-.1.154-.079.117-.226.235-.35.166l-5.841-3.263A.283.283,0,0,1,220.31,285.479Z" transform="translate(-220.26 -284.668)" fill="#666" fill-rule="evenodd"/>
        <path id="Path_620" data-name="Path 620" d="M234.394,293.45a.963.963,0,0,0-1.682-.939Z" transform="translate(-228.698 -289.13)" fill="#666" fill-rule="evenodd"/>
        <path id="Path_621" data-name="Path 621" d="M233.071,293.164a.755.755,0,1,0,1.027-.29A.755.755,0,0,0,233.071,293.164Z" transform="translate(-228.876 -289.667)" fill="gray" fill-rule="evenodd"/>
        <path id="Path_622" data-name="Path 622" d="M233.806,293.805a.507.507,0,1,0,.69-.2A.507.507,0,0,0,233.806,293.805Z" transform="translate(-229.396 -290.187)" fill="#e3e7e8" fill-rule="evenodd"/>
        <path id="Path_623" data-name="Path 623" d="M223.405,287.312a.963.963,0,0,0-1.681-.939Z" transform="translate(-221.252 -284.97)" fill="#666" fill-rule="evenodd"/>
        <path id="Path_624" data-name="Path 624" d="M222.083,287.027a.755.755,0,1,0,1.027-.291A.755.755,0,0,0,222.083,287.027Z" transform="translate(-221.43 -285.508)" fill="gray" fill-rule="evenodd"/>
        <path id="Path_625" data-name="Path 625" d="M222.819,287.668a.507.507,0,1,0,.69-.2A.507.507,0,0,0,222.819,287.668Z" transform="translate(-221.95 -286.029)" fill="#e3e7e8" fill-rule="evenodd"/>
        <path id="Path_626" data-name="Path 626" d="M229.965,283.738a2.26,2.26,0,0,0-1.863.329l1.28.715Z" transform="translate(-225.574 -283.491)" fill="#fff" fill-rule="evenodd"/>
        <rect id="Rectangle_420" data-name="Rectangle 420" width="1.195" height="1.552" transform="translate(3.958 1.375) rotate(-60.814)" fill="#fff"/>
        <path id="Path_627" data-name="Path 627" d="M237.793,286.764l-.583,1.043,1.025.573C238.624,288.6,238.528,287.215,237.793,286.764Z" transform="translate(-231.746 -285.592)" fill="#fff" fill-rule="evenodd"/>
        <path id="Rectangle_421" data-name="Rectangle 421" d="M.081,0h0A.081.081,0,0,1,.162.081V.243A.081.081,0,0,1,.081.324h0A.081.081,0,0,1,0,.243V.081A.081.081,0,0,1,.081,0Z" transform="matrix(0.487, -0.873, 0.873, 0.487, 3.568, 1.468)" fill="#666"/>
        <rect id="Rectangle_422" data-name="Rectangle 422" width="0.162" height="0.324" rx="0.081" transform="translate(4.982 2.258) rotate(-60.83)" fill="#666"/>
        <path id="Rectangle_423" data-name="Rectangle 423" d="M.106,0h0A.106.106,0,0,1,.213.106V.32A.106.106,0,0,1,.107.426h0A.107.107,0,0,1,0,.32V.106A.106.106,0,0,1,.106,0Z" transform="translate(2.321 0.598) rotate(-68.885)" fill="#666"/>
        <path id="Path_628" data-name="Path 628" d="M221.679,283.393a.348.348,0,0,1,0,.342.33.33,0,0,1-.444.145.3.3,0,0,1-.107-.1,1.258,1.258,0,0,1,.252-.26A.892.892,0,0,1,221.679,283.393Z" transform="translate(-220.846 -283.308)" fill="#fff" fill-rule="evenodd"/>
      </g>
      <g id="Group_739" data-name="Group 739" transform="translate(8.181 33.742)">
        <rect id="Rectangle_424" data-name="Rectangle 424" width="8.338" height="6.298" transform="translate(0 0.863)" fill="#ffb95e"/>
        <g id="Group_738" data-name="Group 738" transform="translate(0.913 1.72)">
          <rect id="Rectangle_425" data-name="Rectangle 425" width="3.009" height="1.572" transform="translate(0 3.868)" fill="#fff"/>
          <g id="Group_736" data-name="Group 736" transform="translate(0 1.919)">
            <rect id="Rectangle_426" data-name="Rectangle 426" width="1.258" height="1.572" transform="translate(5.254)" fill="#fff"/>
            <rect id="Rectangle_427" data-name="Rectangle 427" width="1.258" height="1.572" transform="translate(3.502)" fill="#fff"/>
            <rect id="Rectangle_428" data-name="Rectangle 428" width="1.258" height="1.572" transform="translate(1.751)" fill="#fff"/>
            <rect id="Rectangle_429" data-name="Rectangle 429" width="1.258" height="1.572" fill="#fff"/>
          </g>
          <rect id="Rectangle_430" data-name="Rectangle 430" width="3.009" height="1.572" transform="translate(3.502 3.868)" fill="#fff"/>
          <g id="Group_737" data-name="Group 737">
            <rect id="Rectangle_431" data-name="Rectangle 431" width="1.258" height="1.572" transform="translate(5.254)" fill="#fff"/>
            <rect id="Rectangle_432" data-name="Rectangle 432" width="1.258" height="1.572" transform="translate(3.502)" fill="#fff"/>
            <rect id="Rectangle_433" data-name="Rectangle 433" width="1.258" height="1.572" transform="translate(1.751)" fill="#fff"/>
            <rect id="Rectangle_434" data-name="Rectangle 434" width="1.258" height="1.572" fill="#fff"/>
          </g>
        </g>
        <rect id="Rectangle_435" data-name="Rectangle 435" width="8.338" height="0.863" fill="#666"/>
      </g>
      <g id="Group_740" data-name="Group 740" transform="translate(19.713 46.125)">
        <path id="Path_629" data-name="Path 629" d="M148.266,295.168a.151.151,0,1,1,.3,0,.706.706,0,0,1-.208.5l-.009.008a.707.707,0,0,1-.993-.008h0a.707.707,0,0,1-.207-.5.151.151,0,1,1,.3,0,.4.4,0,0,0,.119.288h0a.408.408,0,0,0,.568.006l.007-.007A.405.405,0,0,0,148.266,295.168Z" transform="translate(-147.15 -295.017)" fill="#90c3eb" fill-rule="evenodd"/>
        <path id="Path_630" data-name="Path 630" d="M150.611,295.168a.151.151,0,1,1,.3,0,.406.406,0,0,0,.118.288h0a.409.409,0,0,0,.575,0h0a.4.4,0,0,0,.119-.288.152.152,0,0,1,.3,0,.708.708,0,0,1-.208.5h0a.707.707,0,0,1-1,0h0A.707.707,0,0,1,150.611,295.168Z" transform="translate(-149.495 -295.017)" fill="#90c3eb" fill-rule="evenodd"/>
        <path id="Path_631" data-name="Path 631" d="M155.188,295.168a.151.151,0,1,1,.3,0,.707.707,0,0,1-.208.5h0a.707.707,0,0,1-1,0h0a.708.708,0,0,1-.208-.5.151.151,0,0,1,.3,0,.405.405,0,0,0,.119.288h0a.408.408,0,0,0,.575,0h0A.406.406,0,0,0,155.188,295.168Z" transform="translate(-151.841 -295.017)" fill="#90c3eb" fill-rule="evenodd"/>
      </g>
      <g id="Group_741" data-name="Group 741" transform="translate(21.586 47.849)">
        <path id="Path_632" data-name="Path 632" d="M154.076,300.517a.151.151,0,0,1,.3,0,.707.707,0,0,1-.208.5l-.009.009a.707.707,0,0,1-.993-.009h0a.706.706,0,0,1-.207-.5.151.151,0,0,1,.3,0,.4.4,0,0,0,.119.288h0a.408.408,0,0,0,.568.006l.007-.007A.405.405,0,0,0,154.076,300.517Z" transform="translate(-152.96 -300.366)" fill="#90c3eb" fill-rule="evenodd"/>
        <path id="Path_633" data-name="Path 633" d="M156.421,300.517a.151.151,0,0,1,.3,0,.406.406,0,0,0,.118.288h0a.409.409,0,0,0,.575,0h0a.406.406,0,0,0,.118-.288.151.151,0,0,1,.3,0,.706.706,0,0,1-.207.5h0a.707.707,0,0,1-1,0h0A.707.707,0,0,1,156.421,300.517Z" transform="translate(-155.305 -300.366)" fill="#90c3eb" fill-rule="evenodd"/>
        <path id="Path_634" data-name="Path 634" d="M161,300.517a.151.151,0,0,1,.3,0,.707.707,0,0,1-.208.5h0a.707.707,0,0,1-1,0h0a.707.707,0,0,1-.208-.5.151.151,0,0,1,.3,0,.405.405,0,0,0,.119.288h0a.408.408,0,0,0,.575,0h0A.4.4,0,0,0,161,300.517Z" transform="translate(-157.651 -300.366)" fill="#90c3eb" fill-rule="evenodd"/>
      </g>
      <g id="Group_742" data-name="Group 742" transform="translate(13.49 72.091)">
        <path id="Path_635" data-name="Path 635" d="M128.961,375.723a.152.152,0,1,1,.3,0,.708.708,0,0,1-.208.5l-.009.008a.707.707,0,0,1-.993-.008h0a.706.706,0,0,1-.208-.5.151.151,0,1,1,.3,0,.4.4,0,0,0,.118.288h0a.408.408,0,0,0,.568.006l.006-.007A.406.406,0,0,0,128.961,375.723Z" transform="translate(-127.845 -375.572)" fill="#90c3eb" fill-rule="evenodd"/>
        <path id="Path_636" data-name="Path 636" d="M131.306,375.723a.151.151,0,1,1,.3,0,.4.4,0,0,0,.118.288h0a.407.407,0,0,0,.575,0h0a.405.405,0,0,0,.119-.288.151.151,0,1,1,.3,0,.707.707,0,0,1-.207.5h0a.707.707,0,0,1-1,0h0A.707.707,0,0,1,131.306,375.723Z" transform="translate(-130.19 -375.572)" fill="#90c3eb" fill-rule="evenodd"/>
        <path id="Path_637" data-name="Path 637" d="M135.884,375.723a.151.151,0,1,1,.3,0,.707.707,0,0,1-.208.5h0a.707.707,0,0,1-1,0h0a.707.707,0,0,1-.208-.5.151.151,0,1,1,.3,0,.406.406,0,0,0,.119.288h0a.407.407,0,0,0,.575,0h0A.405.405,0,0,0,135.884,375.723Z" transform="translate(-132.536 -375.572)" fill="#90c3eb" fill-rule="evenodd"/>
      </g>
      <g id="Group_743" data-name="Group 743" transform="translate(11.618 73.963)">
        <path id="Path_638" data-name="Path 638" d="M123.154,381.53a.152.152,0,0,1,.3,0,.708.708,0,0,1-.208.5l-.009.008a.708.708,0,0,1-.993-.008h0a.707.707,0,0,1-.207-.5.152.152,0,0,1,.3,0,.4.4,0,0,0,.118.288h0a.408.408,0,0,0,.568.006l.006-.007A.406.406,0,0,0,123.154,381.53Z" transform="translate(-122.038 -381.379)" fill="#90c3eb" fill-rule="evenodd"/>
        <path id="Path_639" data-name="Path 639" d="M125.5,381.53a.152.152,0,0,1,.3,0,.4.4,0,0,0,.118.288h0a.408.408,0,0,0,.575,0h0a.405.405,0,0,0,.119-.288.151.151,0,1,1,.3,0,.705.705,0,0,1-.207.5h0a.708.708,0,0,1-1,0h0A.708.708,0,0,1,125.5,381.53Z" transform="translate(-124.383 -381.379)" fill="#90c3eb" fill-rule="evenodd"/>
        <path id="Path_640" data-name="Path 640" d="M130.077,381.53a.151.151,0,1,1,.3,0,.707.707,0,0,1-.208.5h0a.708.708,0,0,1-1,0h0a.707.707,0,0,1-.208-.5.151.151,0,1,1,.3,0,.406.406,0,0,0,.119.288h0a.408.408,0,0,0,.575,0h0A.405.405,0,0,0,130.077,381.53Z" transform="translate(-126.729 -381.379)" fill="#90c3eb" fill-rule="evenodd"/>
      </g>
      <g id="Group_744" data-name="Group 744" transform="translate(3.12 58.94)">
        <path id="Path_641" data-name="Path 641" d="M103.067,343.257H98.831V338.8l2.129-2.433,2.107,2.433Z" transform="translate(-97.813 -335.85)" fill="#e57472" fill-rule="evenodd"/>
        <path id="Path_642" data-name="Path 642" d="M101.432,338.489,98.741,335.8l-2.555,2.555-.513-.513,3.068-3.068,3.2,3.2Z" transform="translate(-95.673 -334.772)" fill="gray" fill-rule="evenodd"/>
        <rect id="Rectangle_436" data-name="Rectangle 436" width="0.665" height="0.665" transform="translate(3.804 3.683)" fill="#fff"/>
        <rect id="Rectangle_437" data-name="Rectangle 437" width="0.665" height="0.665" transform="translate(1.776 3.683)" fill="#fff"/>
        <rect id="Rectangle_438" data-name="Rectangle 438" width="1.149" height="2.177" transform="translate(2.562 5.215)" fill="#fff"/>
        <path id="Path_643" data-name="Path 643" d="M105,341.465a.364.364,0,1,1-.363-.333A.349.349,0,0,1,105,341.465Z" transform="translate(-101.503 -339.082)" fill="#fff" fill-rule="evenodd"/>
      </g>
      <g id="Group_749" data-name="Group 749" transform="translate(84.984 58.084)">
        <rect id="Rectangle_439" data-name="Rectangle 439" width="5.873" height="12.315" transform="translate(0.664 0.557)" fill="#ff817f"/>
        <g id="Group_745" data-name="Group 745" transform="translate(1.231 1.154)">
          <rect id="Rectangle_440" data-name="Rectangle 440" width="1.175" height="2.066" fill="#fff"/>
          <rect id="Rectangle_441" data-name="Rectangle 441" width="1.175" height="2.066" transform="translate(1.782)" fill="#fff"/>
          <rect id="Rectangle_442" data-name="Rectangle 442" width="1.175" height="2.066" transform="translate(3.564)" fill="#fff"/>
        </g>
        <g id="Group_746" data-name="Group 746" transform="translate(1.231 3.697)">
          <rect id="Rectangle_443" data-name="Rectangle 443" width="1.175" height="2.067" fill="#fff"/>
          <rect id="Rectangle_444" data-name="Rectangle 444" width="1.175" height="2.067" transform="translate(1.782)" fill="#fff"/>
          <rect id="Rectangle_445" data-name="Rectangle 445" width="1.175" height="2.067" transform="translate(3.564)" fill="#fff"/>
        </g>
        <g id="Group_747" data-name="Group 747" transform="translate(1.231 6.24)">
          <rect id="Rectangle_446" data-name="Rectangle 446" width="1.175" height="2.066" fill="#fff"/>
          <rect id="Rectangle_447" data-name="Rectangle 447" width="1.175" height="2.066" transform="translate(1.782)" fill="#fff"/>
          <rect id="Rectangle_448" data-name="Rectangle 448" width="1.175" height="2.066" transform="translate(3.564)" fill="#fff"/>
        </g>
        <g id="Group_748" data-name="Group 748" transform="translate(1.231 8.782)">
          <rect id="Rectangle_449" data-name="Rectangle 449" width="1.175" height="2.066" fill="#fff"/>
          <rect id="Rectangle_450" data-name="Rectangle 450" width="1.175" height="2.066" transform="translate(1.782)" fill="#fff"/>
          <rect id="Rectangle_451" data-name="Rectangle 451" width="1.175" height="2.066" transform="translate(3.564)" fill="#fff"/>
        </g>
        <rect id="Rectangle_452" data-name="Rectangle 452" width="4.009" height="1.364" transform="translate(1.596 11.508)" fill="#666"/>
        <rect id="Rectangle_453" data-name="Rectangle 453" width="7.201" height="0.557" fill="#666"/>
      </g>
      <g id="Group_750" data-name="Group 750" transform="translate(84.505 10.758)">
        <path id="Path_644" data-name="Path 644" d="M353.163,185.3l-1.572.091c-.671.039-1.295.9-1.883,1.334a2.159,2.159,0,0,1-.876.393.936.936,0,0,0-.592.507,2.219,2.219,0,0,0-.084.766.282.282,0,0,0,.307.292l6.68-.388c.142-.008.2-.187.206-.328a3.65,3.65,0,0,0-.05-.862A2.229,2.229,0,0,0,353.163,185.3Z" transform="translate(-348.152 -185.298)" fill="#d9615f" fill-rule="evenodd"/>
        <path id="Path_645" data-name="Path 645" d="M348.155,193.616c0-.026,0-.057,0-.09l7.2-.516c0,.068,0,.133,0,.184,0,.142-.064.32-.206.328l-6.68.388A.283.283,0,0,1,348.155,193.616Z" transform="translate(-348.152 -190.524)" fill="#e57472" fill-rule="evenodd"/>
        <path id="Path_646" data-name="Path 646" d="M364.735,192.752a.963.963,0,0,0-1.923.112Z" transform="translate(-358.085 -189.734)" fill="#e57472" fill-rule="evenodd"/>
        <path id="Path_647" data-name="Path 647" d="M363.482,193.331a.755.755,0,1,0,.71-.8A.754.754,0,0,0,363.482,193.331Z" transform="translate(-358.54 -190.201)" fill="#666" fill-rule="evenodd"/>
        <path id="Path_648" data-name="Path 648" d="M364.249,193.837a.507.507,0,1,0,.477-.536A.508.508,0,0,0,364.249,193.837Z" transform="translate(-359.06 -190.721)" fill="#e3e7e8" fill-rule="evenodd"/>
        <path id="Path_649" data-name="Path 649" d="M352.171,193.482a.963.963,0,0,0-1.923.112Z" transform="translate(-349.571 -190.229)" fill="#e57472" fill-rule="evenodd"/>
        <path id="Path_650" data-name="Path 650" d="M350.918,194.061a.754.754,0,1,0,.71-.8A.754.754,0,0,0,350.918,194.061Z" transform="translate(-350.026 -190.696)" fill="#666" fill-rule="evenodd"/>
        <path id="Path_651" data-name="Path 651" d="M351.685,194.567a.507.507,0,1,0,.477-.535A.508.508,0,0,0,351.685,194.567Z" transform="translate(-350.546 -191.216)" fill="#e3e7e8" fill-rule="evenodd"/>
        <path id="Path_652" data-name="Path 652" d="M355.648,186.18a2.258,2.258,0,0,0-1.394,1.278l1.463-.085Z" transform="translate(-352.287 -185.896)" fill="#fff" fill-rule="evenodd"/>
        <rect id="Rectangle_454" data-name="Rectangle 454" width="1.552" height="1.195" transform="translate(3.533 0.274) rotate(-3.325)" fill="#fff"/>
        <path id="Path_653" data-name="Path 653" d="M364.454,185.838l.069,1.193,1.172-.068C366.141,186.937,365.317,185.823,364.454,185.838Z" transform="translate(-359.199 -185.664)" fill="#fff" fill-rule="evenodd"/>
        <rect id="Rectangle_455" data-name="Rectangle 455" width="0.324" height="0.162" rx="0.081" transform="translate(3.314 1.594) rotate(-3.323)" fill="#ffb95e"/>
        <path id="Rectangle_456" data-name="Rectangle 456" d="M.081,0H.243A.081.081,0,0,1,.324.081v0A.081.081,0,0,1,.243.162H.081A.081.081,0,0,1,0,.081v0A.081.081,0,0,1,.081,0Z" transform="translate(4.931 1.5) rotate(-3.32)" fill="#ffb95e"/>
        <rect id="Rectangle_457" data-name="Rectangle 457" width="0.426" height="0.213" rx="0.107" transform="translate(1.762 1.483) rotate(-11.4)" fill="#ffb95e"/>
        <path id="Path_654" data-name="Path 654" d="M348.455,191.688a.35.35,0,0,1,.181.29.331.331,0,0,1-.3.361.294.294,0,0,1-.145-.028,1.269,1.269,0,0,1,.074-.355A.9.9,0,0,1,348.455,191.688Z" transform="translate(-348.181 -189.628)" fill="#ffb95e" fill-rule="evenodd"/>
      </g>
      <g id="Group_751" data-name="Group 751" transform="translate(83.889 16.745)">
        <rect id="Rectangle_458" data-name="Rectangle 458" width="0.278" height="6.109" transform="translate(7.702 1.686)" fill="#ffb95e"/>
        <path id="Path_655" data-name="Path 655" d="M372.51,210.193l-2.089,5.741-.261-.095,2.089-5.741Z" transform="translate(-362.449 -208.092)" fill="#ffb95e" fill-rule="evenodd"/>
        <path id="Path_656" data-name="Path 656" d="M374.374,213.438l-3.927,4.68-.213-.178,3.927-4.68Z" transform="translate(-362.5 -210.234)" fill="#ffb95e" fill-rule="evenodd"/>
        <path id="Path_657" data-name="Path 657" d="M375.779,218.447l-5.291,3.054-.138-.24,5.291-3.055Z" transform="translate(-362.578 -213.586)" fill="#ffb95e" fill-rule="evenodd"/>
        <path id="Path_658" data-name="Path 658" d="M376.555,224.613l-6.016,1.061-.048-.274,6.016-1.061Z" transform="translate(-362.673 -217.742)" fill="#ffb95e" fill-rule="evenodd"/>
        <path id="Path_659" data-name="Path 659" d="M376.507,228.965,370.49,227.9l.048-.274,6.016,1.061Z" transform="translate(-362.673 -219.972)" fill="#ffb95e" fill-rule="evenodd"/>
        <path id="Path_660" data-name="Path 660" d="M375.639,230.977l-5.291-3.055.139-.24,5.291,3.055Z" transform="translate(-362.577 -220.008)" fill="#ffb95e" fill-rule="evenodd"/>
        <path id="Path_661" data-name="Path 661" d="M374.161,232.637l-3.927-4.68.213-.178,3.927,4.68Z" transform="translate(-362.5 -220.073)" fill="#ffb95e" fill-rule="evenodd"/>
        <path id="Path_662" data-name="Path 662" d="M372.249,233.744,370.16,228l.261-.095,2.089,5.741Z" transform="translate(-362.449 -220.161)" fill="#ffb95e" fill-rule="evenodd"/>
        <rect id="Rectangle_459" data-name="Rectangle 459" width="0.278" height="6.109" transform="translate(7.702 7.795)" fill="#ffb95e"/>
        <path id="Path_663" data-name="Path 663" d="M363.678,233.649l2.089-5.741.261.095-2.09,5.741Z" transform="translate(-358.057 -220.161)" fill="#ffb95e" fill-rule="evenodd"/>
        <path id="Path_664" data-name="Path 664" d="M358.052,232.459l3.927-4.68.213.178-3.927,4.68Z" transform="translate(-354.244 -220.073)" fill="#ffb95e" fill-rule="evenodd"/>
        <path id="Path_665" data-name="Path 665" d="M353.937,230.737l5.291-3.055.138.24-5.291,3.055Z" transform="translate(-351.456 -220.008)" fill="#ffb95e" fill-rule="evenodd"/>
        <path id="Path_666" data-name="Path 666" d="M351.826,228.691l6.016-1.061.048.274-6.016,1.061Z" transform="translate(-350.025 -219.972)" fill="#ffb95e" fill-rule="evenodd"/>
        <path id="Path_667" data-name="Path 667" d="M351.874,224.339l6.016,1.061-.048.274-6.016-1.061Z" transform="translate(-350.025 -217.742)" fill="#ffb95e" fill-rule="evenodd"/>
        <path id="Path_668" data-name="Path 668" d="M354.075,218.206l5.291,3.055-.138.24-5.291-3.054Z" transform="translate(-351.456 -213.586)" fill="#ffb95e" fill-rule="evenodd"/>
        <path id="Path_669" data-name="Path 669" d="M358.265,213.26l3.927,4.68-.213.178-3.927-4.68Z" transform="translate(-354.244 -210.234)" fill="#ffb95e" fill-rule="evenodd"/>
        <path id="Path_670" data-name="Path 670" d="M363.939,210.1l2.09,5.741-.261.095-2.089-5.741Z" transform="translate(-358.057 -208.092)" fill="#ffb95e" fill-rule="evenodd"/>
        <path id="Path_671" data-name="Path 671" d="M370.313,206.668l1.384-.991.9,1.4-.234.15-.744-1.152-1.147.822Z" transform="translate(-362.553 -205.096)" fill="#ffb95e" fill-rule="evenodd"/>
        <path id="Path_672" data-name="Path 672" d="M382.735,213.107l1.7.13-.206,1.65-.276-.034.17-1.362-1.406-.108Z" transform="translate(-370.957 -210.13)" fill="#ffb95e" fill-rule="evenodd"/>
        <path id="Path_673" data-name="Path 673" d="M386.915,218.186l1.55.7-.758,1.48-.247-.126.626-1.221-1.285-.583Z" transform="translate(-373.726 -213.572)" fill="#ffb95e" fill-rule="evenodd"/>
        <path id="Path_674" data-name="Path 674" d="M389.122,224.457l1.216,1.191-1.219,1.132-.189-.2,1.006-.934-1.008-.987Z" transform="translate(-375.167 -217.822)" fill="#ff9e8a" fill-rule="evenodd"/>
        <path id="Path_675" data-name="Path 675" d="M387.715,231.161l.736,1.535-1.532.646-.108-.255,1.265-.533-.61-1.273Z" transform="translate(-373.733 -222.365)" fill="#ffb95e" fill-rule="evenodd"/>
        <path id="Path_676" data-name="Path 676" d="M384.235,237.489l.166,1.694-1.662.083-.013-.277,1.37-.069-.138-1.4Z" transform="translate(-370.965 -226.653)" fill="#ffb95e" fill-rule="evenodd"/>
        <path id="Path_677" data-name="Path 677" d="M378.933,242.536l-.423,1.649-1.589-.49.081-.265,1.312.4.351-1.367Z" transform="translate(-367.031 -230.027)" fill="#ffb3b2" fill-rule="evenodd"/>
        <path id="Path_678" data-name="Path 678" d="M372.593,245.778l-.962,1.4-1.326-1,.167-.222,1.094.828.8-1.164Z" transform="translate(-362.548 -232.164)" fill="#ffb95e" fill-rule="evenodd"/>
        <path id="Path_679" data-name="Path 679" d="M366.007,246.188l-1.384.991-.9-1.4.234-.15.744,1.152,1.147-.822Z" transform="translate(-358.085 -232.171)" fill="#ffb95e" fill-rule="evenodd"/>
        <path id="Path_680" data-name="Path 680" d="M359.972,243.7l-1.639.458-.37-1.621.271-.062.306,1.338,1.359-.38Z" transform="translate(-354.184 -230.034)" fill="#ff9e8a" fill-rule="evenodd"/>
        <path id="Path_681" data-name="Path 681" d="M354.78,239.26l-1.7-.131.206-1.65.276.034-.17,1.362,1.406.108Z" transform="translate(-350.877 -226.646)" fill="#ffb95e" fill-rule="evenodd"/>
        <path id="Path_682" data-name="Path 682" d="M350.715,233.334l-1.55-.7.758-1.48.247.126-.626,1.221,1.285.583Z" transform="translate(-348.222 -222.358)" fill="#ffb95e" fill-rule="evenodd"/>
        <path id="Path_683" data-name="Path 683" d="M349.042,226.771l-1.216-1.191,1.219-1.132.189.2-1.006.934,1.008.987Z" transform="translate(-347.314 -217.816)" fill="#ff9e8a" fill-rule="evenodd"/>
        <path id="Path_684" data-name="Path 684" d="M349.966,220.364l-.736-1.535,1.532-.646.108.255-1.264.533.61,1.273Z" transform="translate(-348.266 -213.57)" fill="#ffb95e" fill-rule="evenodd"/>
        <path id="Path_685" data-name="Path 685" d="M353.373,214.884l-.166-1.694,1.662-.083.013.277-1.37.069.138,1.4Z" transform="translate(-350.961 -210.13)" fill="#ffb95e" fill-rule="evenodd"/>
        <path id="Path_686" data-name="Path 686" d="M357.965,209.964l.423-1.649,1.589.49-.082.265-1.312-.4-.351,1.367Z" transform="translate(-354.186 -206.883)" fill="#ff9e8a" fill-rule="evenodd"/>
        <path id="Path_687" data-name="Path 687" d="M363.726,207.049l.962-1.4,1.326,1-.167.222-1.094-.828-.8,1.164Z" transform="translate(-358.09 -205.073)" fill="#ffb3b2" fill-rule="evenodd"/>
        <path id="Path_688" data-name="Path 688" d="M354.945,205.007a7.43,7.43,0,1,1-5.253,2.176,7.406,7.406,0,0,1,5.253-2.176ZM360,207.38a7.151,7.151,0,1,0,2.095,5.057A7.128,7.128,0,0,0,360,207.38Z" transform="translate(-347.105 -204.641)" fill="#ff817f" fill-rule="evenodd"/>
        <path id="Path_689" data-name="Path 689" d="M357.428,208.671a6.248,6.248,0,1,1-4.418,1.83,6.23,6.23,0,0,1,4.418-1.83Zm4.222,2.027a5.97,5.97,0,1,0,1.748,4.221A5.952,5.952,0,0,0,361.65,210.7Z" transform="translate(-349.588 -207.124)" fill="#ff817f" stroke="#ffb95e" stroke-miterlimit="22.926" stroke-width="0.216" fill-rule="evenodd"/>
        <path id="Path_690" data-name="Path 690" d="M361.969,236.367l2.676-8.312,2.676,8.312.14.429h-5.632l.14-.429Zm2.676-6.2-1.914,5.97h3.828Z" transform="translate(-356.804 -220.26)" fill="#666" fill-rule="evenodd"/>
        <circle id="Ellipse_12" data-name="Ellipse 12" cx="1.596" cy="1.596" r="1.596" transform="translate(6.245 6.199)" fill="#ff817f"/>
        <circle id="Ellipse_13" data-name="Ellipse 13" cx="0.907" cy="0.907" r="0.907" transform="translate(6.933 6.887)" fill="#666"/>
        <path id="Path_691" data-name="Path 691" d="M368.243,203.873a1.1,1.1,0,1,1-1.1,1.1A1.1,1.1,0,0,1,368.243,203.873Z" transform="translate(-360.402 -203.873)" fill="#666" fill-rule="evenodd"/>
        <path id="Path_692" data-name="Path 692" d="M368.8,204.691a.84.84,0,1,1-.84.84A.84.84,0,0,1,368.8,204.691Z" transform="translate(-360.957 -204.427)" fill="#666" fill-rule="evenodd"/>
        <path id="Path_693" data-name="Path 693" d="M369.335,205.442a.913.913,0,0,1,0,1.2h-1.379a.913.913,0,0,1,0-1.2Z" transform="translate(-360.805 -204.936)" fill="#fff" fill-rule="evenodd"/>
        <rect id="Rectangle_460" data-name="Rectangle 460" width="0.189" height="1.457" transform="translate(8.083 0.376)" fill="#666"/>
        <rect id="Rectangle_461" data-name="Rectangle 461" width="0.189" height="1.457" transform="translate(7.409 0.376)" fill="#666"/>
        <path id="Path_694" data-name="Path 694" d="M378.363,206.932a1.1,1.1,0,1,1-1.1,1.1A1.1,1.1,0,0,1,378.363,206.932Z" transform="translate(-367.26 -205.946)" fill="#666" fill-rule="evenodd"/>
        <path id="Path_695" data-name="Path 695" d="M378.918,207.75a.841.841,0,1,1-.841.84A.84.84,0,0,1,378.918,207.75Z" transform="translate(-367.814 -206.5)" fill="#666" fill-rule="evenodd"/>
        <path id="Path_696" data-name="Path 696" d="M379.455,208.5a.913.913,0,0,1,0,1.2h-1.379a.913.913,0,0,1,0-1.2Z" transform="translate(-367.663 -207.009)" fill="#fff" fill-rule="evenodd"/>
        <rect id="Rectangle_462" data-name="Rectangle 462" width="0.189" height="1.457" transform="translate(11.345 1.362)" fill="#666"/>
        <rect id="Rectangle_463" data-name="Rectangle 463" width="0.189" height="1.457" transform="translate(10.672 1.362)" fill="#666"/>
        <path id="Path_697" data-name="Path 697" d="M386.287,214.792a1.1,1.1,0,1,1-1.1,1.1A1.1,1.1,0,0,1,386.287,214.792Z" transform="translate(-372.63 -211.272)" fill="#666" fill-rule="evenodd"/>
        <circle id="Ellipse_14" data-name="Ellipse 14" cx="0.84" cy="0.84" r="0.84" transform="translate(12.817 3.783)" fill="#666"/>
        <path id="Path_698" data-name="Path 698" d="M387.379,216.361a.912.912,0,0,1,0,1.2H386a.913.913,0,0,1,0-1.2Z" transform="translate(-373.032 -212.336)" fill="#fff" fill-rule="evenodd"/>
        <rect id="Rectangle_464" data-name="Rectangle 464" width="0.189" height="1.457" transform="translate(13.899 3.895)" fill="#666"/>
        <rect id="Rectangle_465" data-name="Rectangle 465" width="0.189" height="1.457" transform="translate(13.226 3.895)" fill="#666"/>
        <path id="Path_699" data-name="Path 699" d="M389.017,224.63a1.1,1.1,0,1,1-1.1,1.1A1.1,1.1,0,0,1,389.017,224.63Z" transform="translate(-374.48 -217.939)" fill="#666" fill-rule="evenodd"/>
        <circle id="Ellipse_15" data-name="Ellipse 15" cx="0.84" cy="0.84" r="0.84" transform="translate(13.697 6.954)" fill="#666"/>
        <path id="Path_700" data-name="Path 700" d="M390.109,226.2a.913.913,0,0,1,0,1.2H388.73a.913.913,0,0,1,0-1.2Z" transform="translate(-374.882 -219.002)" fill="#fff" fill-rule="evenodd"/>
        <rect id="Rectangle_466" data-name="Rectangle 466" width="0.189" height="1.457" transform="translate(14.78 7.066)" fill="#666"/>
        <rect id="Rectangle_467" data-name="Rectangle 467" width="0.189" height="1.457" transform="translate(14.106 7.066)" fill="#666"/>
        <path id="Path_701" data-name="Path 701" d="M368.243,245.395a1.1,1.1,0,1,1-1.1,1.1A1.1,1.1,0,0,1,368.243,245.395Z" transform="translate(-360.402 -232.011)" fill="#666" fill-rule="evenodd"/>
        <path id="Path_702" data-name="Path 702" d="M368.8,246.213a.841.841,0,1,1-.84.841A.841.841,0,0,1,368.8,246.213Z" transform="translate(-360.957 -232.565)" fill="#666" fill-rule="evenodd"/>
        <path id="Path_703" data-name="Path 703" d="M369.335,246.965a.913.913,0,0,1,0,1.2h-1.379a.913.913,0,0,1,0-1.2Z" transform="translate(-360.805 -233.075)" fill="#fff" fill-rule="evenodd"/>
        <rect id="Rectangle_468" data-name="Rectangle 468" width="0.189" height="1.457" transform="translate(8.083 13.76)" fill="#666"/>
        <rect id="Rectangle_469" data-name="Rectangle 469" width="0.189" height="1.457" transform="translate(7.409 13.76)" fill="#666"/>
        <path id="Path_704" data-name="Path 704" d="M378.363,242.891a1.1,1.1,0,1,1-1.1,1.1A1.1,1.1,0,0,1,378.363,242.891Z" transform="translate(-367.26 -230.314)" fill="#666" fill-rule="evenodd"/>
        <path id="Path_705" data-name="Path 705" d="M378.918,243.709a.84.84,0,1,1-.841.84A.84.84,0,0,1,378.918,243.709Z" transform="translate(-367.814 -230.868)" fill="#666" fill-rule="evenodd"/>
        <path id="Path_706" data-name="Path 706" d="M379.455,244.46a.913.913,0,0,1,0,1.2h-1.379a.913.913,0,0,1,0-1.2Z" transform="translate(-367.663 -231.377)" fill="#fff" fill-rule="evenodd"/>
        <rect id="Rectangle_470" data-name="Rectangle 470" width="0.189" height="1.457" transform="translate(11.345 12.953)" fill="#666"/>
        <rect id="Rectangle_471" data-name="Rectangle 471" width="0.189" height="1.457" transform="translate(10.672 12.953)" fill="#666"/>
        <path id="Path_707" data-name="Path 707" d="M386.287,235.471a1.1,1.1,0,1,1-1.1,1.1A1.1,1.1,0,0,1,386.287,235.471Z" transform="translate(-372.63 -225.286)" fill="#666" fill-rule="evenodd"/>
        <path id="Path_708" data-name="Path 708" d="M386.841,236.288a.841.841,0,1,1-.84.841A.841.841,0,0,1,386.841,236.288Z" transform="translate(-373.184 -225.839)" fill="#666" fill-rule="evenodd"/>
        <path id="Path_709" data-name="Path 709" d="M387.379,237.04a.912.912,0,0,1,0,1.2H386a.913.913,0,0,1,0-1.2Z" transform="translate(-373.032 -226.349)" fill="#fff" fill-rule="evenodd"/>
        <rect id="Rectangle_472" data-name="Rectangle 472" width="0.189" height="1.457" transform="translate(13.899 10.561)" fill="#666"/>
        <rect id="Rectangle_473" data-name="Rectangle 473" width="0.189" height="1.457" transform="translate(13.226 10.561)" fill="#666"/>
        <path id="Path_710" data-name="Path 710" d="M358,206.932a1.1,1.1,0,1,0,1.1,1.1A1.1,1.1,0,0,0,358,206.932Z" transform="translate(-353.46 -205.946)" fill="#666" fill-rule="evenodd"/>
        <path id="Path_711" data-name="Path 711" d="M358.553,207.75a.841.841,0,1,0,.84.84A.84.84,0,0,0,358.553,207.75Z" transform="translate(-354.015 -206.5)" fill="#666" fill-rule="evenodd"/>
        <path id="Path_712" data-name="Path 712" d="M357.712,208.5a.912.912,0,0,0,0,1.2h1.378a.913.913,0,0,0,0-1.2Z" transform="translate(-353.862 -207.009)" fill="#fff" fill-rule="evenodd"/>
        <rect id="Rectangle_474" data-name="Rectangle 474" width="0.189" height="1.457" transform="translate(4.107 1.362)" fill="#666"/>
        <rect id="Rectangle_475" data-name="Rectangle 475" width="0.189" height="1.457" transform="translate(4.781 1.362)" fill="#666"/>
        <path id="Path_713" data-name="Path 713" d="M350.075,214.792a1.1,1.1,0,1,0,1.1,1.1A1.1,1.1,0,0,0,350.075,214.792Z" transform="translate(-348.091 -211.272)" fill="#666" fill-rule="evenodd"/>
        <circle id="Ellipse_16" data-name="Ellipse 16" cx="0.84" cy="0.84" r="0.84" transform="translate(1.144 3.783)" fill="#666"/>
        <path id="Path_714" data-name="Path 714" d="M349.788,216.361a.913.913,0,0,0,0,1.2h1.379a.913.913,0,0,0,0-1.2Z" transform="translate(-348.493 -212.336)" fill="#fff" fill-rule="evenodd"/>
        <rect id="Rectangle_476" data-name="Rectangle 476" width="0.189" height="1.457" transform="translate(1.553 3.895)" fill="#666"/>
        <rect id="Rectangle_477" data-name="Rectangle 477" width="0.189" height="1.457" transform="translate(2.227 3.895)" fill="#666"/>
        <path id="Path_715" data-name="Path 715" d="M347.344,224.63a1.1,1.1,0,1,0,1.1,1.1A1.1,1.1,0,0,0,347.344,224.63Z" transform="translate(-346.24 -217.939)" fill="#666" fill-rule="evenodd"/>
        <path id="Path_716" data-name="Path 716" d="M347.9,225.448a.84.84,0,1,0,.84.84A.841.841,0,0,0,347.9,225.448Z" transform="translate(-346.794 -218.493)" fill="#666" fill-rule="evenodd"/>
        <path id="Path_717" data-name="Path 717" d="M347.057,226.2a.913.913,0,0,0,0,1.2h1.379a.913.913,0,0,0,0-1.2Z" transform="translate(-346.643 -219.002)" fill="#fff" fill-rule="evenodd"/>
        <rect id="Rectangle_478" data-name="Rectangle 478" width="0.189" height="1.457" transform="translate(0.673 7.066)" fill="#666"/>
        <rect id="Rectangle_479" data-name="Rectangle 479" width="0.189" height="1.457" transform="translate(1.347 7.066)" fill="#666"/>
        <path id="Path_718" data-name="Path 718" d="M358,242.891a1.1,1.1,0,1,0,1.1,1.1A1.1,1.1,0,0,0,358,242.891Z" transform="translate(-353.46 -230.314)" fill="#666" fill-rule="evenodd"/>
        <path id="Path_719" data-name="Path 719" d="M358.553,243.709a.84.84,0,1,0,.84.84A.84.84,0,0,0,358.553,243.709Z" transform="translate(-354.015 -230.868)" fill="#666" fill-rule="evenodd"/>
        <path id="Path_720" data-name="Path 720" d="M357.712,244.46a.912.912,0,0,0,0,1.2h1.378a.913.913,0,0,0,0-1.2Z" transform="translate(-353.862 -231.377)" fill="#fff" fill-rule="evenodd"/>
        <rect id="Rectangle_480" data-name="Rectangle 480" width="0.189" height="1.457" transform="translate(4.107 12.953)" fill="#666"/>
        <rect id="Rectangle_481" data-name="Rectangle 481" width="0.189" height="1.457" transform="translate(4.781 12.953)" fill="#666"/>
        <path id="Path_721" data-name="Path 721" d="M350.075,235.471a1.1,1.1,0,1,0,1.1,1.1A1.1,1.1,0,0,0,350.075,235.471Z" transform="translate(-348.091 -225.286)" fill="#666" fill-rule="evenodd"/>
        <path id="Path_722" data-name="Path 722" d="M350.629,236.288a.841.841,0,1,0,.841.841A.84.84,0,0,0,350.629,236.288Z" transform="translate(-348.645 -225.839)" fill="#666" fill-rule="evenodd"/>
        <path id="Path_723" data-name="Path 723" d="M349.788,237.04a.913.913,0,0,0,0,1.2h1.379a.913.913,0,0,0,0-1.2Z" transform="translate(-348.493 -226.349)" fill="#fff" fill-rule="evenodd"/>
        <rect id="Rectangle_482" data-name="Rectangle 482" width="0.189" height="1.457" transform="translate(1.553 10.561)" fill="#666"/>
        <rect id="Rectangle_483" data-name="Rectangle 483" width="0.189" height="1.457" transform="translate(2.227 10.561)" fill="#666"/>
      </g>
      <g id="Group_752" data-name="Group 752" transform="translate(31.916 21.939)">
        <path id="Path_724" data-name="Path 724" d="M186.124,220.138a.151.151,0,0,1,.3,0,.707.707,0,0,1-.208.5l-.009.009a.707.707,0,0,1-.993-.009h0a.708.708,0,0,1-.207-.5.151.151,0,0,1,.3,0,.4.4,0,0,0,.118.288h0a.408.408,0,0,0,.568.006l.006-.007A.4.4,0,0,0,186.124,220.138Z" transform="translate(-185.008 -219.987)" fill="#90c3eb" fill-rule="evenodd"/>
        <path id="Path_725" data-name="Path 725" d="M188.469,220.138a.152.152,0,0,1,.3,0,.4.4,0,0,0,.118.288h0a.408.408,0,0,0,.575,0h0a.405.405,0,0,0,.119-.288.151.151,0,0,1,.3,0,.708.708,0,0,1-.207.5h0a.707.707,0,0,1-1,0h0A.707.707,0,0,1,188.469,220.138Z" transform="translate(-187.353 -219.987)" fill="#90c3eb" fill-rule="evenodd"/>
        <path id="Path_726" data-name="Path 726" d="M193.047,220.138a.151.151,0,0,1,.3,0,.706.706,0,0,1-.208.5h0a.707.707,0,0,1-1,0h0a.707.707,0,0,1-.208-.5.151.151,0,0,1,.3,0,.4.4,0,0,0,.119.288h0a.408.408,0,0,0,.575,0h0A.4.4,0,0,0,193.047,220.138Z" transform="translate(-189.699 -219.987)" fill="#90c3eb" fill-rule="evenodd"/>
      </g>
      <g id="Group_753" data-name="Group 753" transform="translate(29.775 23.424)">
        <path id="Path_727" data-name="Path 727" d="M179.481,224.743a.151.151,0,0,1,.3,0,.708.708,0,0,1-.208.5l-.009.008a.708.708,0,0,1-.993-.008h0a.708.708,0,0,1-.207-.5.152.152,0,0,1,.3,0,.4.4,0,0,0,.118.288h0a.408.408,0,0,0,.568.006l.006-.007A.405.405,0,0,0,179.481,224.743Z" transform="translate(-178.365 -224.592)" fill="#90c3eb" fill-rule="evenodd"/>
        <path id="Path_728" data-name="Path 728" d="M181.826,224.743a.152.152,0,0,1,.3,0,.4.4,0,0,0,.118.288h0a.408.408,0,0,0,.575,0h0a.4.4,0,0,0,.119-.288.151.151,0,1,1,.3,0,.708.708,0,0,1-.207.5h0a.708.708,0,0,1-1,0h0A.707.707,0,0,1,181.826,224.743Z" transform="translate(-180.71 -224.592)" fill="#90c3eb" fill-rule="evenodd"/>
        <path id="Path_729" data-name="Path 729" d="M186.4,224.743a.151.151,0,1,1,.3,0,.706.706,0,0,1-.208.5h0a.708.708,0,0,1-1,0h0a.708.708,0,0,1-.208-.5.151.151,0,1,1,.3,0,.4.4,0,0,0,.119.288h0a.408.408,0,0,0,.575,0h0A.4.4,0,0,0,186.4,224.743Z" transform="translate(-183.056 -224.592)" fill="#90c3eb" fill-rule="evenodd"/>
      </g>
      <g id="Group_754" data-name="Group 754" transform="translate(44.438 8.143)">
        <path id="Path_730" data-name="Path 730" d="M224.969,177.339a.151.151,0,0,1,.3,0,.707.707,0,0,1-.208.5l-.009.009a.708.708,0,0,1-.993-.009h0a.707.707,0,0,1-.207-.5.151.151,0,0,1,.3,0,.4.4,0,0,0,.119.288h0a.408.408,0,0,0,.568.006l.006-.007A.4.4,0,0,0,224.969,177.339Z" transform="translate(-223.853 -177.188)" fill="#90c3eb" fill-rule="evenodd"/>
        <path id="Path_731" data-name="Path 731" d="M227.314,177.339a.151.151,0,0,1,.3,0,.406.406,0,0,0,.118.288h0a.409.409,0,0,0,.575,0h0a.406.406,0,0,0,.118-.288.151.151,0,0,1,.3,0,.707.707,0,0,1-.207.5h0a.707.707,0,0,1-1,0h0A.707.707,0,0,1,227.314,177.339Z" transform="translate(-226.198 -177.188)" fill="#90c3eb" fill-rule="evenodd"/>
        <path id="Path_732" data-name="Path 732" d="M231.891,177.339a.151.151,0,0,1,.3,0,.707.707,0,0,1-.208.5h0a.707.707,0,0,1-1,0h0a.707.707,0,0,1-.208-.5.151.151,0,0,1,.3,0,.407.407,0,0,0,.119.288h0a.409.409,0,0,0,.575,0h0A.405.405,0,0,0,231.891,177.339Z" transform="translate(-228.544 -177.188)" fill="#90c3eb" fill-rule="evenodd"/>
      </g>
      <g id="Group_755" data-name="Group 755" transform="translate(46.534 9.728)">
        <path id="Path_733" data-name="Path 733" d="M231.472,182.255a.151.151,0,1,1,.3,0,.707.707,0,0,1-.208.5l-.009.008a.707.707,0,0,1-.993-.008h0a.707.707,0,0,1-.207-.5.151.151,0,1,1,.3,0,.4.4,0,0,0,.118.288h0a.408.408,0,0,0,.568.006l.006-.007A.405.405,0,0,0,231.472,182.255Z" transform="translate(-230.356 -182.104)" fill="#90c3eb" fill-rule="evenodd"/>
        <path id="Path_734" data-name="Path 734" d="M233.817,182.255a.151.151,0,1,1,.3,0,.4.4,0,0,0,.118.288h0a.409.409,0,0,0,.575,0h0a.4.4,0,0,0,.119-.288.151.151,0,1,1,.3,0,.707.707,0,0,1-.207.5h0a.707.707,0,0,1-1,0h0A.707.707,0,0,1,233.817,182.255Z" transform="translate(-232.701 -182.104)" fill="#90c3eb" fill-rule="evenodd"/>
        <path id="Path_735" data-name="Path 735" d="M238.394,182.255a.151.151,0,1,1,.3,0,.707.707,0,0,1-.208.5h0a.707.707,0,0,1-1,0h0a.707.707,0,0,1-.208-.5.151.151,0,1,1,.3,0,.406.406,0,0,0,.119.288h0a.409.409,0,0,0,.575,0h0A.405.405,0,0,0,238.394,182.255Z" transform="translate(-235.047 -182.104)" fill="#90c3eb" fill-rule="evenodd"/>
      </g>
      <g id="Group_756" data-name="Group 756" transform="translate(58.914 11.203)">
        <path id="Path_736" data-name="Path 736" d="M276.158,195.166h-4.236v-4.46l2.129-2.433,2.107,2.433Z" transform="translate(-270.903 -187.759)" fill="#ffb95e" fill-rule="evenodd"/>
        <path id="Path_737" data-name="Path 737" d="M274.523,190.4l-2.691-2.691-2.555,2.555-.513-.513,3.068-3.068,3.2,3.2Z" transform="translate(-268.763 -186.681)" fill="gray" fill-rule="evenodd"/>
        <rect id="Rectangle_484" data-name="Rectangle 484" width="0.665" height="0.665" transform="translate(3.804 3.683)" fill="#fff"/>
        <rect id="Rectangle_485" data-name="Rectangle 485" width="0.665" height="0.665" transform="translate(1.776 3.683)" fill="#fff"/>
        <rect id="Rectangle_486" data-name="Rectangle 486" width="1.149" height="2.177" transform="translate(2.562 5.215)" fill="#fff"/>
        <path id="Path_738" data-name="Path 738" d="M278.093,193.374a.364.364,0,1,1-.363-.333A.349.349,0,0,1,278.093,193.374Z" transform="translate(-274.594 -190.991)" fill="#fff" fill-rule="evenodd"/>
      </g>
    </g>
    <path id="Path_739" data-name="Path 739" d="M155.249,202.812c3.852,2.609,12.224,8.278,15.838,26.937.075.387,18.046-14.553,28.487-23.861,1.424-1.269-1.821-6.45,1.689-9.854a5.916,5.916,0,0,1,6.681-1.4c.684.423,7.585-17.143,10.533-26.429" transform="translate(-132.925 -162.958)" fill="none" stroke="#5b5b5b" stroke-linecap="round" stroke-linejoin="round" stroke-width="1.2" fill-rule="evenodd"/>
    <g id="Group_758" data-name="Group 758" transform="translate(73.994 32.018)">
      <path id="Path_740" data-name="Path 740" d="M319.288,258.02h-.357v1.268a.26.26,0,0,0,.357,0Z" transform="translate(-317.84 -255.839)" fill="#ffb3b2" fill-rule="evenodd"/>
      <path id="Path_741" data-name="Path 741" d="M316.815,251.254a1.333,1.333,0,1,0,1.27,1.332A1.3,1.3,0,0,0,316.815,251.254Z" transform="translate(-315.545 -251.254)" fill="#6ae8e0" fill-rule="evenodd"/>
    </g>
    <g id="Group_759" data-name="Group 759" transform="translate(70.915 33.565)">
      <path id="Path_742" data-name="Path 742" d="M309.737,262.819h-.357v1.268a.26.26,0,0,0,.357,0Z" transform="translate(-308.289 -260.638)" fill="#ffb3b2" fill-rule="evenodd"/>
      <path id="Path_743" data-name="Path 743" d="M307.264,256.053a1.333,1.333,0,1,0,1.27,1.332A1.3,1.3,0,0,0,307.264,256.053Z" transform="translate(-305.994 -256.053)" fill="#6ae8e0" fill-rule="evenodd"/>
    </g>
    <g id="Group_760" data-name="Group 760" transform="translate(73.542 36.125)">
      <path id="Path_744" data-name="Path 744" d="M317.886,270.761h-.358v1.268a.261.261,0,0,0,.358,0Z" transform="translate(-316.437 -268.58)" fill="#ffb3b2" fill-rule="evenodd"/>
      <path id="Path_745" data-name="Path 745" d="M315.413,263.995a1.333,1.333,0,1,0,1.27,1.332A1.3,1.3,0,0,0,315.413,263.995Z" transform="translate(-314.143 -263.995)" fill="#6ae8e0" fill-rule="evenodd"/>
    </g>
    <g id="Group_761" data-name="Group 761" transform="translate(93.189 60.873)">
      <path id="Path_746" data-name="Path 746" d="M378.835,347.537h-.358V348.8a.26.26,0,0,0,.358,0Z" transform="translate(-377.386 -345.356)" fill="#ffb3b2" fill-rule="evenodd"/>
      <path id="Path_747" data-name="Path 747" d="M376.362,340.771a1.333,1.333,0,1,0,1.27,1.332A1.3,1.3,0,0,0,376.362,340.771Z" transform="translate(-375.092 -340.771)" fill="#6ae8e0" fill-rule="evenodd"/>
    </g>
    <g id="Group_762" data-name="Group 762" transform="translate(95.204 63.951)">
      <path id="Path_748" data-name="Path 748" d="M385.088,357.085h-.357v1.267a.26.26,0,0,0,.357,0Z" transform="translate(-383.64 -354.904)" fill="#ffb3b2" fill-rule="evenodd"/>
      <path id="Path_749" data-name="Path 749" d="M382.615,350.319a1.333,1.333,0,1,0,1.27,1.332A1.3,1.3,0,0,0,382.615,350.319Z" transform="translate(-381.345 -350.319)" fill="#6ae8e0" fill-rule="evenodd"/>
    </g>
    <g id="Group_763" data-name="Group 763" transform="translate(59.691 49.084)">
      <rect id="Rectangle_487" data-name="Rectangle 487" width="8.912" height="7.304" transform="translate(0.356 1.704)" fill="#ffb95e"/>
      <rect id="Rectangle_488" data-name="Rectangle 488" width="0.758" height="2.205" transform="translate(0.988 5.414)" fill="#fffdfc"/>
      <rect id="Rectangle_489" data-name="Rectangle 489" width="0.758" height="2.205" transform="translate(2.193 5.414)" fill="#fffdfc"/>
      <rect id="Rectangle_490" data-name="Rectangle 490" width="0.758" height="2.205" transform="translate(6.535 5.414)" fill="#fffdfc"/>
      <rect id="Rectangle_491" data-name="Rectangle 491" width="0.758" height="2.205" transform="translate(7.74 5.414)" fill="#fffdfc"/>
      <path id="Path_750" data-name="Path 750" d="M280.812,309.738v-3.523h-9.64v3.569h0l0,.045a.37.37,0,0,0,.406.316.484.484,0,0,1,.632,0,.484.484,0,0,1,.632,0,.484.484,0,0,1,.631,0,.484.484,0,0,1,.632,0,.484.484,0,0,1,.632,0,.484.484,0,0,1,.631,0,.484.484,0,0,1,.632,0,.484.484,0,0,1,.632,0,.484.484,0,0,1,.631,0,.484.484,0,0,1,.632,0,.484.484,0,0,1,.632,0,.484.484,0,0,1,.632,0,.484.484,0,0,1,.632,0,.484.484,0,0,1,.631,0,.37.37,0,0,0,.406-.316A.254.254,0,0,0,280.812,309.738Z" transform="translate(-271.172 -305.565)" fill="#666" fill-rule="evenodd"/>
      <rect id="Rectangle_492" data-name="Rectangle 492" width="2.389" height="3.595" transform="translate(3.572 5.414)" fill="#666"/>
      <path id="Path_751" data-name="Path 751" d="M276.96,310.289c0-.214-.268-.388-.6-.388s-.6.174-.6.388l0,.025v1.244h1.194v-1.246Z" transform="translate(-274.282 -308.063)" fill="#fffdfc" fill-rule="evenodd"/>
      <path id="Path_752" data-name="Path 752" d="M285.867,310.289c0-.214-.269-.388-.6-.388s-.6.174-.6.388l0,.025v1.244h1.195v-1.246Z" transform="translate(-280.318 -308.063)" fill="#fffdfc" fill-rule="evenodd"/>
      <path id="Path_753" data-name="Path 753" d="M294.56,310.289c0-.214-.268-.388-.6-.388s-.6.174-.6.388l0,.025v1.244h1.194v-1.246Z" transform="translate(-286.209 -308.063)" fill="#fffdfc" fill-rule="evenodd"/>
      <rect id="Rectangle_493" data-name="Rectangle 493" width="0.645" height="0.983" transform="translate(6.864)" fill="#666"/>
    </g>
    <path id="Path_754" data-name="Path 754" d="M249.626,152.248,276,156.026V230.62l-26.373,3.753Z" transform="translate(-196.88 -152.144)" stroke="#000" stroke-miterlimit="22.926" stroke-width="0.567" fill-rule="evenodd" opacity="0.2"/>
    <path id="Path_755" data-name="Path 755" d="M121.344,251.538v-2.409h.6v.826h.9v-.826h.6v2.409h-.6v-1.084h-.9v1.084Z" transform="translate(-109.949 -217.796)" fill="#e57472" fill-rule="evenodd"/>
    <g id="Group_764" data-name="Group 764" transform="translate(8.755 10.583)">
      <path id="Path_756" data-name="Path 756" d="M116.9,191.521h-.357v1.267a.26.26,0,0,0,.357,0Z" transform="translate(-115.451 -189.34)" fill="#ffb3b2" fill-rule="evenodd"/>
      <path id="Path_757" data-name="Path 757" d="M114.426,184.755a1.333,1.333,0,1,0,1.27,1.332A1.3,1.3,0,0,0,114.426,184.755Z" transform="translate(-113.156 -184.755)" fill="#6ae8e0" fill-rule="evenodd"/>
    </g>
    <g id="Group_765" data-name="Group 765" transform="translate(4.361 12.133)">
      <path id="Path_758" data-name="Path 758" d="M103.269,196.331h-.358V197.6a.261.261,0,0,0,.358,0Z" transform="translate(-101.82 -194.15)" fill="#ffb3b2" fill-rule="evenodd"/>
      <path id="Path_759" data-name="Path 759" d="M100.8,189.565a1.333,1.333,0,1,0,1.27,1.332A1.3,1.3,0,0,0,100.8,189.565Z" transform="translate(-99.525 -189.565)" fill="#6ae8e0" fill-rule="evenodd"/>
    </g>
    <g id="Group_766" data-name="Group 766" transform="translate(6.946 14.718)">
      <path id="Path_760" data-name="Path 760" d="M111.286,204.349h-.357v1.268a.26.26,0,0,0,.357,0Z" transform="translate(-109.838 -202.168)" fill="#ffb3b2" fill-rule="evenodd"/>
      <path id="Path_761" data-name="Path 761" d="M108.813,197.583a1.333,1.333,0,1,0,1.27,1.332A1.3,1.3,0,0,0,108.813,197.583Z" transform="translate(-107.543 -197.583)" fill="#6ae8e0" fill-rule="evenodd"/>
    </g>
    <path id="Path_762" data-name="Path 762" d="M86.206,155.452l26.373,2.745V232.9l-26.373,3.76Z" transform="translate(-86.138 -154.315)" fill-rule="evenodd" opacity="0.2"/>
    <g id="Group_767" data-name="Group 767" transform="translate(46.746 25.184)">
      <path id="Path_763" data-name="Path 763" d="M234.758,236.82H234.4v1.268a.26.26,0,0,0,.358,0Z" transform="translate(-233.309 -234.639)" fill="#ffb3b2" fill-rule="evenodd"/>
      <path id="Path_764" data-name="Path 764" d="M232.285,230.054a1.333,1.333,0,1,0,1.27,1.332A1.3,1.3,0,0,0,232.285,230.054Z" transform="translate(-231.015 -230.054)" fill="#6ae8e0" fill-rule="evenodd"/>
    </g>
    <g id="Group_768" data-name="Group 768" transform="translate(44.291 28.544)">
      <path id="Path_765" data-name="Path 765" d="M227.141,247.243h-.357v1.267a.259.259,0,0,0,.357,0Z" transform="translate(-225.693 -245.062)" fill="#ffb3b2" fill-rule="evenodd"/>
      <path id="Path_766" data-name="Path 766" d="M224.668,240.477a1.333,1.333,0,1,0,1.27,1.332A1.3,1.3,0,0,0,224.668,240.477Z" transform="translate(-223.398 -240.477)" fill="#6ae8e0" fill-rule="evenodd"/>
    </g>
    <g id="Group_769" data-name="Group 769" transform="translate(41.061 26.218)">
      <path id="Path_767" data-name="Path 767" d="M217.119,240.027h-.357v1.268a.26.26,0,0,0,.357,0Z" transform="translate(-215.671 -237.846)" fill="#ffb3b2" fill-rule="evenodd"/>
      <path id="Path_768" data-name="Path 768" d="M214.646,233.261a1.333,1.333,0,1,0,1.27,1.332A1.3,1.3,0,0,0,214.646,233.261Z" transform="translate(-213.376 -233.261)" fill="#6ae8e0" fill-rule="evenodd"/>
    </g>
    <g id="Group_770" data-name="Group 770" transform="translate(40.931 30.87)">
      <path id="Path_769" data-name="Path 769" d="M216.718,254.459h-.357v1.268a.26.26,0,0,0,.357,0Z" transform="translate(-215.27 -252.278)" fill="#ffb3b2" fill-rule="evenodd"/>
      <path id="Path_770" data-name="Path 770" d="M214.245,247.693a1.333,1.333,0,1,0,1.27,1.332A1.3,1.3,0,0,0,214.245,247.693Z" transform="translate(-212.975 -247.693)" fill="#6ae8e0" fill-rule="evenodd"/>
    </g>
    <g id="Group_771" data-name="Group 771" transform="translate(48.039 31)">
      <path id="Path_771" data-name="Path 771" d="M238.767,254.86h-.357v1.267a.259.259,0,0,0,.357,0Z" transform="translate(-237.319 -252.679)" fill="#ffb3b2" fill-rule="evenodd"/>
      <path id="Path_772" data-name="Path 772" d="M236.294,248.094a1.333,1.333,0,1,0,1.27,1.332A1.3,1.3,0,0,0,236.294,248.094Z" transform="translate(-235.024 -248.094)" fill="#6ae8e0" fill-rule="evenodd"/>
    </g>
    <g id="Group_772" data-name="Group 772" transform="translate(43.642 60.815)">
      <path id="Path_773" data-name="Path 773" d="M225.129,347.357h-.358v1.268a.261.261,0,0,0,.358,0Z" transform="translate(-223.68 -345.176)" fill="#ffb3b2" fill-rule="evenodd"/>
      <ellipse id="Ellipse_17" data-name="Ellipse 17" cx="1.27" cy="1.332" rx="1.27" ry="1.332" transform="translate(0 0)" fill="#6ae8e0"/>
    </g>
    <g id="Group_773" data-name="Group 773" transform="translate(47.556 59.578)">
      <path id="Path_774" data-name="Path 774" d="M237.269,343.518h-.358v1.267a.261.261,0,0,0,.358,0Z" transform="translate(-235.82 -341.337)" fill="#ffb3b2" fill-rule="evenodd"/>
      <path id="Path_775" data-name="Path 775" d="M234.8,336.751a1.333,1.333,0,1,0,1.27,1.332A1.3,1.3,0,0,0,234.8,336.751Z" transform="translate(-233.526 -336.751)" fill="#6ae8e0" fill-rule="evenodd"/>
    </g>
    <g id="Group_774" data-name="Group 774" transform="translate(45.95 63.045)">
      <path id="Path_776" data-name="Path 776" d="M232.288,354.274h-.358v1.267a.261.261,0,0,0,.358,0Z" transform="translate(-230.839 -352.093)" fill="#ffb3b2" fill-rule="evenodd"/>
      <path id="Path_777" data-name="Path 777" d="M229.815,347.507a1.333,1.333,0,1,0,1.27,1.332A1.3,1.3,0,0,0,229.815,347.507Z" transform="translate(-228.545 -347.507)" fill="#6ae8e0" fill-rule="evenodd"/>
    </g>
    <path id="Path_778" data-name="Path 778" d="M113.568,261.375c-13.351-3.935-10.006-19.327.805-16.122,7.28,2.157,5.869,16.454-9.54,13.613" transform="translate(-98.761 -214.874)" fill="none" stroke="#5b5b5b" stroke-linecap="round" stroke-linejoin="round" stroke-width="1.2" fill-rule="evenodd"/>
    <path id="Path_779" data-name="Path 779" d="M157.284,275.151c-.488-.142-1.984-.378-1.922.11a6.248,6.248,0,0,0,.583,1.7" transform="translate(-133.001 -235.306)" fill="none" stroke="#5b5b5b" stroke-linecap="round" stroke-linejoin="round" stroke-width="1.2" fill-rule="evenodd"/>
  </g>
</svg>
