<svg id="mosque" xmlns="http://www.w3.org/2000/svg" xmlns:xlink="http://www.w3.org/1999/xlink" width="146.373" height="147.925" viewBox="0 0 146.373 147.925">
  <defs>
    <linearGradient id="linear-gradient" x1="0.5" y1="4.701" x2="0.5" y2="-1.978" gradientUnits="objectBoundingBox">
      <stop offset="0" stop-color="#fff"/>
      <stop offset="0.321" stop-color="#c0d43a"/>
      <stop offset="0.647" stop-color="#5db110"/>
      <stop offset="1" stop-color="#005608"/>
    </linearGradient>
    <linearGradient id="linear-gradient-2" x1="0.5" y1="1.944" x2="0.5" y2="0.449" xlink:href="#linear-gradient"/>
  </defs>
  <path id="Path_391" data-name="Path 391" d="M0,448.592a42.133,42.133,0,0,1,4.657-4.318,103.7,103.7,0,0,1,14.282-9.991,116.186,116.186,0,0,1,10.669-5.532,121.173,121.173,0,0,1,12.983-4.911A109.3,109.3,0,0,1,73.3,418.9a100.09,100.09,0,0,1,16,1.129,96.235,96.235,0,0,1,14.874,3.359,98.334,98.334,0,0,1,23.539,10.7,86.1,86.1,0,0,1,8.157,5.56c2.286,1.778,4.29,3.274,5.786,4.657,3.048,2.681,4.713,4.29,4.713,4.29s-2.286-1.609-5.786-3.895a63.3,63.3,0,0,0-6.068-3.98c-2.54-1.5-5.9-3.613-9.117-5.278-1.552-.847-3.359-1.552-5.165-2.314-1.835-.79-3.613-1.637-5.617-2.286a114.424,114.424,0,0,0-12.532-4.064,110.6,110.6,0,0,0-14-2.681,94.2,94.2,0,0,0-14.7-.847,118.451,118.451,0,0,0-28.733,3.98,152.027,152.027,0,0,0-23.539,8.524c-6.6,3.02-11.967,7.141-15.524,9.314C1.976,447.266,0,448.592,0,448.592Z" transform="translate(0 -300.667)" fill="url(#linear-gradient)"/>
  <g id="Group_714" data-name="Group 714" transform="translate(20.011)">
    <path id="Path_392" data-name="Path 392" d="M124.244,123.031a148.794,148.794,0,0,1,28.648,2.54,130.8,130.8,0,0,1,22.128,5.955l-.085-40.276h1.044a1.236,1.236,0,0,0,1.214-1.27,1.279,1.279,0,0,0-1.214-1.3h-1.044l-.056-10.02h.282a1.119,1.119,0,0,0,1.073-1.185,1.066,1.066,0,0,0-1.073-1.044h-.367l-.141-24.358h.508a1,1,0,0,0,.96-.988.945.945,0,0,0-.875-.9A2.5,2.5,0,0,0,175.5,49c0-.2-.028-.4-.028-.536a2.683,2.683,0,0,0-1.214-2.2,29.534,29.534,0,0,1-2.484-2.089c.028-.028.2-.056.2-.113,0-.085-.282-.2-.508-.31-.508-.564-.847-.931-1.073-1.214l-.085-.875c.2-.2.564-.226.564-.4,0-.254-.339-.254-.621-.452l-.085-.734c.085-.085.282-.113.282-.226,0-.085-.2-.085-.282-.2l-.028-.536-.028-.282c.056-.028.2-.085.2-.141,0-.085-.141-.085-.254-.141l-.085-1.327-.141-.141c.085-.056.085-.056.085-.085l-.028-.028.028-.141-.085-1.383-.141,1.383.141.141a.494.494,0,0,1-.141.028c0,.028.085.028.141.085l-.141.141-.056,1.327c-.085.056-.254.056-.254.141,0,.056.141.056.254.141l-.085.31-.028.564c-.085.085-.31.085-.31.141,0,.113.169.141.254.226l-.028.621c-.367.085-.621.31-.621.564,0,.226.254.4.564.536l-.085.734c-.226.282-.564.677-1.073,1.214-.31.085-.508.2-.508.282,0,.056.141.085.2.113-.593.621-1.27,1.044-2.456,2.089a2.714,2.714,0,0,0-1.214,2.2c0,.141-.085.339-.085.536a4.234,4.234,0,0,0,.254,1.185c-.452.085-.931.423-.931.9a.988.988,0,0,0,1.016.988h.452L164.831,76.4h-.339a1.048,1.048,0,0,0-1.073,1.044,1.137,1.137,0,0,0,1.073,1.185h.339l-.141,10.02h-.9a1.338,1.338,0,0,0-1.327,1.3,1.3,1.3,0,0,0,1.327,1.27h.988l-.028,9.173c-3.7-3.02-6.125-4.713-8.129-6.774.4-.2.621-.452.621-.677,0-.508-.9-.931-2.427-1.327-2.456-2.964-4.149-4.177-4.459-7.875,1.383-.48,2.343-1.411,2.343-2.484,0-1.214-1.129-2.145-2.653-2.568-.085-.565-.085-1.129-.141-1.722a1.448,1.448,0,0,0,1.016-1.214,1.678,1.678,0,0,0-1.214-1.5c-.028-.564-.085-1.157-.085-1.806a3.3,3.3,0,0,0-.085-.621c.508-.254.79-.564.79-.988a1.181,1.181,0,0,0-.9-1.016c-.141-1.722-.282-3.387-.4-5.08-.085-.141-.2-.367-.31-.536.141-.028.31-.169.31-.31,0-.113-.085-.2-.254-.2a.748.748,0,0,1,.2-.4c-.141-1.665-.226-3.274-.367-4.855a4.966,4.966,0,0,0,2.851-8.75,4.438,4.438,0,0,0-.536-.508,5.391,5.391,0,0,1-7.536,7.564c.141.169.282.367.452.536a5.3,5.3,0,0,0,4.657,1.242c-.141,1.609-.254,3.133-.367,4.77.085.141.113.226.2.4-.085,0-.31.085-.31.2,0,.141.2.282.339.31-.113.2-.2.31-.339.536q-.127,2.5-.339,5.08c-.564.2-.9.564-.9,1.016,0,.4.31.734.79.988a2.7,2.7,0,0,1-.085.621c-.056.649-.085,1.214-.085,1.806a1.718,1.718,0,0,0-1.214,1.5,1.339,1.339,0,0,0,1.016,1.214c-.056.621-.085,1.157-.141,1.722-1.524.4-2.653,1.327-2.653,2.568,0,1.044.96,1.976,2.343,2.484-.31,3.726-2,4.911-4.431,7.875-1.468.4-2.427.819-2.427,1.327q0,.339.593.677c-2.314,2.4-5.052,4.177-9.992,8.242a12.065,12.065,0,0,0-3.33,4.064L127.123,94.3a7.8,7.8,0,0,1,3.5-1.3l-.169-3.189H127.01L126.5,61.925a5.416,5.416,0,0,1,2.512-1.073l-.113-3.189h-2.484l-.593-28.7a5.911,5.911,0,0,1,3.189-1.609L128.9,24.16h-1.5V17.189c1.5-.226,2.512-.48,2.512-.48s-.677-.169-1.693-.367l-.367-2.286h-.79a7.062,7.062,0,0,0-3.133-3.415,2.864,2.864,0,0,0,.677-.141,3.644,3.644,0,0,0-.96-.31c-.31-.056-.677-.056-1.016-.141a2,2,0,0,0-.4-.028l-.2-2.766a2.125,2.125,0,0,0,.4-1.27,1.737,1.737,0,0,0-.621-1.439V4.516a.737.737,0,0,0,.423-.564.731.731,0,0,0-.508-.649L121.422,0l-.028.677L121.366,0l-.282,3.33a.7.7,0,0,0-.48.649.719.719,0,0,0,.4.564v.028a1.849,1.849,0,0,0-.564,1.439,2.061,2.061,0,0,0,.367,1.27l-.2,2.766a1.163,1.163,0,0,0-.339.028c-.367.085-.79.085-1.044.141a5.538,5.538,0,0,0-1.016.31s.339.085.734.141a7.062,7.062,0,0,0-3.133,3.415h-.79l-.367,2.286c-1.073.2-1.722.367-1.722.367s1.016.254,2.484.48V24.16h-1.439l-.141,3.189a6.265,6.265,0,0,1,3.189,1.609l-.564,28.7h-2.484l-.141,3.189a5.689,5.689,0,0,1,2.54,1.073l-.536,27.886H112.39L112.221,93a7.693,7.693,0,0,1,3.5,1.3l-.028,19.673a9.922,9.922,0,0,0-3.5-5.08c-3.782-3.133-5.9-4.516-7.705-6.294.31-.2.452-.4.452-.593,0-.367-.677-.734-1.863-.988-1.891-2.286-3.189-3.189-3.415-6.068,1.044-.4,1.778-1.073,1.778-1.919,0-.9-.847-1.609-2.06-1.976-.028-.4-.028-.847-.028-1.327a1.171,1.171,0,0,0,.762-.931,1.306,1.306,0,0,0-.96-1.157c-.028-.452-.085-.931-.085-1.383a2.375,2.375,0,0,0-.085-.508c.4-.169.621-.4.621-.734,0-.367-.282-.649-.734-.847-.085-1.327-.141-2.568-.282-3.895-.113-.113-.2-.31-.282-.4a.27.27,0,0,0,.254-.254.182.182,0,0,0-.169-.169c0-.141.085-.2.113-.31-.113-1.27-.2-2.54-.31-3.726a4.668,4.668,0,0,0,2.258-.9,4.174,4.174,0,0,0,0-5.871c-.2-.113-.31-.282-.452-.367a4.152,4.152,0,0,1-5.786,5.842c.113.113.2.254.339.4a3.885,3.885,0,0,0,3.556.96c-.085,1.242-.141,2.427-.254,3.669.028.113.085.169.113.31a.182.182,0,0,0-.169.169.3.3,0,0,0,.2.254,2.272,2.272,0,0,1-.254.4c-.085,1.3-.169,2.568-.254,3.895a.933.933,0,0,0-.677.847c0,.31.226.564.621.734,0,.141-.085.31-.085.508-.028.452-.056.9-.113,1.383a1.277,1.277,0,0,0-.96,1.157c0,.339.31.706.819.931a11.943,11.943,0,0,0-.085,1.327c-1.242.367-2.06,1.073-2.06,1.976,0,.847.734,1.524,1.778,1.919-.254,2.907-1.524,3.782-3.415,6.068-1.129.254-1.863.621-1.863.988,0,.2.169.4.48.593-1.835,1.778-3.895,3.161-7.705,6.294a11.591,11.591,0,0,0-1.439,1.5l.31-9.766a6.916,6.916,0,0,1,2.935-1.073l-.141-2.681H83.037l-.452-23.285a4.28,4.28,0,0,1,2.089-.847l-.141-2.653h-2.06L82.02,46.119a4.706,4.706,0,0,1,2.653-1.327l-.141-2.681H83.319V36.325a20.542,20.542,0,0,0,2.089-.423s-.564-.113-1.439-.282l-.31-1.891h-.649a6.176,6.176,0,0,0-2.6-2.851,2.778,2.778,0,0,0,.564-.169,4.224,4.224,0,0,0-.847-.226c-.254-.028-.536-.028-.847-.056a1.025,1.025,0,0,0-.31-.085L78.8,28.055a2.089,2.089,0,0,0,.31-1.073,1.343,1.343,0,0,0-.48-1.185v-.085A.511.511,0,0,0,79,25.261a.537.537,0,0,0-.423-.508l-.2-2.794-.056.564-.028-.564-.028,2.766a.615.615,0,0,0-.4.508.443.443,0,0,0,.31.452v.085a1.372,1.372,0,0,0-.452,1.185,2.089,2.089,0,0,0,.31,1.073l-.169,2.286a.736.736,0,0,0-.31.085c-.31.028-.621.028-.847.056a4.224,4.224,0,0,0-.847.226,2.779,2.779,0,0,0,.564.169,6.037,6.037,0,0,0-2.6,2.851h-.621l-.367,1.891c-.847.169-1.383.282-1.383.282a15.257,15.257,0,0,0,2.06.423v5.786H72.339l-.085,2.681a4.785,4.785,0,0,1,2.653,1.327l-.452,23.963H72.339l-.085,2.653a4.651,4.651,0,0,1,2.089.847L73.92,96.838H71.041L70.9,99.52a6.866,6.866,0,0,1,2.907,1.073l-1.3,32.007h1.044a144.067,144.067,0,0,1,22.213-6.351A164.157,164.157,0,0,1,124.244,123.031Zm2-102.568c.339,0,.649,1.609.734,3.669h-1.439C125.6,22.072,125.91,20.463,126.248,20.463Zm-2.822-1.891c.706,0,1.214,2.427,1.327,5.56H122.1C122.184,21,122.72,18.572,123.426,18.572Zm-4.064,0c.706,0,1.214,2.427,1.327,5.56h-2.625C118.148,21,118.684,18.572,119.362,18.572Zm-3.556,5.56c.028-2.06.339-3.669.677-3.669s.621,1.609.734,3.669ZM73.864,42.083c.056-1.75.31-3.076.621-3.076.282,0,.508,1.327.593,3.076Zm1.891,0c.056-2.568.508-4.629,1.1-4.629.564,0,1.044,2.06,1.073,4.629Zm3.387,0c.085-2.568.508-4.629,1.1-4.629.564,0,.96,2.06,1.073,4.629Zm3.472-3.076c.31,0,.508,1.327.593,3.076H81.992C82.077,40.333,82.331,39.006,82.613,39.006Z" transform="translate(-70.9)" fill="url(#linear-gradient-2)"/>
  </g>
</svg>
