<svg id="realstate" xmlns="http://www.w3.org/2000/svg" width="96.861" height="93.672" viewBox="0 0 96.861 93.672">
  <g id="Group_708" data-name="Group 708">
    <g id="Group_707" data-name="Group 707">
      <g id="Group_684" data-name="Group 684" transform="translate(14.416 32.818)">
        <rect id="Rectangle_318" data-name="Rectangle 318" width="20.96" height="55.339" fill="#ab5f7f"/>
        <g id="Group_683" data-name="Group 683" transform="translate(2.192 6.045)">
          <rect id="Rectangle_319" data-name="Rectangle 319" width="2.657" height="2.657" fill="#fff"/>
          <rect id="Rectangle_320" data-name="Rectangle 320" width="2.657" height="2.657" transform="translate(4.65)" fill="#fff"/>
          <rect id="Rectangle_321" data-name="Rectangle 321" width="2.325" height="2.657" transform="translate(9.633)" fill="#fff"/>
          <rect id="Rectangle_322" data-name="Rectangle 322" width="2.657" height="2.657" transform="translate(0 3.986)" fill="#fff"/>
          <rect id="Rectangle_323" data-name="Rectangle 323" width="2.657" height="2.657" transform="translate(4.65 3.986)" fill="#fff"/>
          <rect id="Rectangle_324" data-name="Rectangle 324" width="2.325" height="2.657" transform="translate(9.633 3.986)" fill="#fff"/>
          <rect id="Rectangle_325" data-name="Rectangle 325" width="2.657" height="2.657" transform="translate(0 7.972)" fill="#fff"/>
          <rect id="Rectangle_326" data-name="Rectangle 326" width="2.325" height="2.657" transform="translate(9.633 7.972)" fill="#fff"/>
          <rect id="Rectangle_327" data-name="Rectangle 327" width="2.657" height="2.657" transform="translate(0 11.958)" fill="#fff"/>
          <rect id="Rectangle_328" data-name="Rectangle 328" width="2.657" height="2.657" transform="translate(4.65 11.958)" fill="#fff"/>
          <rect id="Rectangle_329" data-name="Rectangle 329" width="2.325" height="2.657" transform="translate(9.633 11.958)" fill="#fff"/>
          <rect id="Rectangle_330" data-name="Rectangle 330" width="2.657" height="2.325" transform="translate(0 16.276)" fill="#fff"/>
          <rect id="Rectangle_331" data-name="Rectangle 331" width="2.325" height="2.325" transform="translate(9.633 16.276)" fill="#fff"/>
          <rect id="Rectangle_332" data-name="Rectangle 332" width="2.657" height="2.325" transform="translate(0 20.262)" fill="#fff"/>
          <rect id="Rectangle_333" data-name="Rectangle 333" width="2.657" height="2.325" transform="translate(4.65 20.262)" fill="#fff"/>
          <rect id="Rectangle_334" data-name="Rectangle 334" width="2.325" height="2.325" transform="translate(9.633 20.262)" fill="#fff"/>
          <rect id="Rectangle_335" data-name="Rectangle 335" width="2.657" height="2.325" transform="translate(4.65 24.248)" fill="#fff"/>
          <rect id="Rectangle_336" data-name="Rectangle 336" width="2.657" height="2.325" transform="translate(0 28.234)" fill="#fff"/>
          <rect id="Rectangle_337" data-name="Rectangle 337" width="2.657" height="2.325" transform="translate(4.65 28.234)" fill="#fff"/>
          <rect id="Rectangle_338" data-name="Rectangle 338" width="2.325" height="2.325" transform="translate(9.633 28.234)" fill="#fff"/>
          <rect id="Rectangle_339" data-name="Rectangle 339" width="2.657" height="2.325" transform="translate(4.65 32.22)" fill="#fff"/>
          <rect id="Rectangle_340" data-name="Rectangle 340" width="2.325" height="2.325" transform="translate(9.633 32.22)" fill="#fff"/>
          <rect id="Rectangle_341" data-name="Rectangle 341" width="2.657" height="2.657" transform="translate(0 36.206)" fill="#fff"/>
          <rect id="Rectangle_342" data-name="Rectangle 342" width="2.325" height="2.657" transform="translate(9.633 36.206)" fill="#fff"/>
          <rect id="Rectangle_343" data-name="Rectangle 343" width="2.657" height="2.657" transform="translate(0 40.193)" fill="#fff"/>
          <rect id="Rectangle_344" data-name="Rectangle 344" width="2.657" height="2.657" transform="translate(4.65 40.193)" fill="#fff"/>
        </g>
      </g>
      <g id="Group_685" data-name="Group 685" transform="translate(29.231)">
        <path id="Path_362" data-name="Path 362" d="M114.906,48.165v-29.9h-3.654V10.3h-5.979V0h-4.65V10.3H94.643v7.972H90.99v29.9H88v39.86h30.227V48.165ZM103.944,21.923V32.885h-2.657V21.923Zm4.983,10.962h-2.657V21.923h2.657Zm0,3.986V47.832h-2.657V36.871Zm-7.64,0h2.657V47.832h-2.657Zm-2.657-3.986H95.972V21.923h2.657Zm-2.657,3.986h2.657V47.832H95.972ZM90.99,68.759V55.14h2.657V68.759Zm5.315,0V55.14h2.325V68.759Zm4.983,0V55.14h2.657V68.759Zm4.983,0V55.14h2.657V68.759Zm5.647,0V55.14h2.657V68.759Z" transform="translate(-88)" fill="#3ebfc1"/>
        <path id="Path_363" data-name="Path 363" d="M99.657,166H97v13.619h2.657Z" transform="translate(-94.01 -110.86)" fill="#fff"/>
        <rect id="Rectangle_345" data-name="Rectangle 345" width="2.325" height="13.619" transform="translate(8.304 55.14)" fill="#fff"/>
        <rect id="Rectangle_346" data-name="Rectangle 346" width="2.657" height="13.619" transform="translate(13.287 55.14)" fill="#fff"/>
        <rect id="Rectangle_347" data-name="Rectangle 347" width="2.657" height="13.619" transform="translate(18.269 55.14)" fill="#fff"/>
        <rect id="Rectangle_348" data-name="Rectangle 348" width="2.657" height="13.619" transform="translate(23.916 55.14)" fill="#fff"/>
        <rect id="Rectangle_349" data-name="Rectangle 349" width="2.657" height="10.962" transform="translate(7.972 36.871)" fill="#fff"/>
        <rect id="Rectangle_350" data-name="Rectangle 350" width="2.657" height="10.962" transform="translate(13.287 36.871)" fill="#fff"/>
        <rect id="Rectangle_351" data-name="Rectangle 351" width="2.657" height="10.962" transform="translate(18.269 36.871)" fill="#fff"/>
        <rect id="Rectangle_352" data-name="Rectangle 352" width="2.657" height="10.962" transform="translate(7.972 21.923)" fill="#fff"/>
        <rect id="Rectangle_353" data-name="Rectangle 353" width="2.657" height="10.962" transform="translate(13.287 21.923)" fill="#fff"/>
        <rect id="Rectangle_354" data-name="Rectangle 354" width="2.657" height="10.962" transform="translate(18.269 21.923)" fill="#fff"/>
      </g>
      <g id="Group_686" data-name="Group 686" transform="translate(57.499 13.22)">
        <path id="Path_364" data-name="Path 364" d="M199.009,114.737V71.489c0-19.1-25.909-31.689-25.909-31.689v74.938Z" transform="translate(-173.1 -39.8)" fill="#ff4959"/>
        <rect id="Rectangle_355" data-name="Rectangle 355" width="2.99" height="10.629" transform="translate(3.621 46.902)" fill="#fff"/>
        <rect id="Rectangle_356" data-name="Rectangle 356" width="2.99" height="10.629" transform="translate(8.603 46.902)" fill="#fff"/>
        <rect id="Rectangle_357" data-name="Rectangle 357" width="2.325" height="10.629" transform="translate(18.9 46.902)" fill="#fff"/>
        <rect id="Rectangle_358" data-name="Rectangle 358" width="2.99" height="10.962" transform="translate(3.621 32.287)" fill="#fff"/>
        <rect id="Rectangle_359" data-name="Rectangle 359" width="2.325" height="10.962" transform="translate(13.918 32.287)" fill="#fff"/>
        <rect id="Rectangle_360" data-name="Rectangle 360" width="2.325" height="10.962" transform="translate(18.9 32.287)" fill="#fff"/>
        <rect id="Rectangle_361" data-name="Rectangle 361" width="2.99" height="10.962" transform="translate(3.621 17.671)" fill="#fff"/>
        <rect id="Rectangle_362" data-name="Rectangle 362" width="2.99" height="10.962" transform="translate(8.603 17.671)" fill="#fff"/>
      </g>
      <g id="Group_705" data-name="Group 705" transform="translate(0 43.547)">
        <rect id="Rectangle_363" data-name="Rectangle 363" width="21.192" height="44.61" fill="#ffd01f"/>
        <g id="Group_687" data-name="Group 687" transform="translate(10.629 4.949)">
          <rect id="Rectangle_364" data-name="Rectangle 364" width="2.325" height="2.325" fill="#fff"/>
        </g>
        <g id="Group_688" data-name="Group 688" transform="translate(5.979 4.949)">
          <rect id="Rectangle_365" data-name="Rectangle 365" width="2.657" height="2.325" fill="#fff"/>
        </g>
        <g id="Group_689" data-name="Group 689" transform="translate(10.629 8.935)">
          <rect id="Rectangle_366" data-name="Rectangle 366" width="2.325" height="2.657" fill="#fff"/>
        </g>
        <g id="Group_690" data-name="Group 690" transform="translate(5.979 8.935)">
          <rect id="Rectangle_367" data-name="Rectangle 367" width="2.657" height="2.657" fill="#fff"/>
        </g>
        <g id="Group_691" data-name="Group 691" transform="translate(10.629 12.921)">
          <rect id="Rectangle_368" data-name="Rectangle 368" width="2.325" height="2.657" fill="#fff"/>
        </g>
        <g id="Group_692" data-name="Group 692" transform="translate(5.979 12.921)">
          <rect id="Rectangle_369" data-name="Rectangle 369" width="2.657" height="2.657" fill="#fff"/>
        </g>
        <g id="Group_693" data-name="Group 693" transform="translate(10.629 16.907)">
          <rect id="Rectangle_370" data-name="Rectangle 370" width="2.325" height="2.657" fill="#fff"/>
        </g>
        <g id="Group_694" data-name="Group 694" transform="translate(5.979 16.907)">
          <rect id="Rectangle_371" data-name="Rectangle 371" width="2.657" height="2.657" fill="#fff"/>
        </g>
        <g id="Group_695" data-name="Group 695" transform="translate(10.629 20.893)">
          <rect id="Rectangle_372" data-name="Rectangle 372" width="2.325" height="2.657" fill="#fff"/>
        </g>
        <g id="Group_696" data-name="Group 696" transform="translate(5.979 20.893)">
          <rect id="Rectangle_373" data-name="Rectangle 373" width="2.657" height="2.657" fill="#fff"/>
        </g>
        <g id="Group_697" data-name="Group 697" transform="translate(10.629 24.88)">
          <rect id="Rectangle_374" data-name="Rectangle 374" width="2.325" height="2.657" fill="#fff"/>
        </g>
        <g id="Group_698" data-name="Group 698" transform="translate(5.979 24.88)">
          <rect id="Rectangle_375" data-name="Rectangle 375" width="2.657" height="2.657" fill="#fff"/>
        </g>
        <g id="Group_699" data-name="Group 699" transform="translate(10.629 28.866)">
          <rect id="Rectangle_376" data-name="Rectangle 376" width="2.325" height="2.657" fill="#fff"/>
        </g>
        <g id="Group_700" data-name="Group 700" transform="translate(5.979 28.866)">
          <rect id="Rectangle_377" data-name="Rectangle 377" width="2.657" height="2.657" fill="#fff"/>
        </g>
        <g id="Group_701" data-name="Group 701" transform="translate(10.629 32.852)">
          <rect id="Rectangle_378" data-name="Rectangle 378" width="2.325" height="2.657" fill="#fff"/>
        </g>
        <g id="Group_702" data-name="Group 702" transform="translate(5.979 32.852)">
          <rect id="Rectangle_379" data-name="Rectangle 379" width="2.657" height="2.657" fill="#fff"/>
        </g>
        <g id="Group_703" data-name="Group 703" transform="translate(10.629 36.838)">
          <rect id="Rectangle_380" data-name="Rectangle 380" width="2.325" height="2.657" fill="#fff"/>
        </g>
        <g id="Group_704" data-name="Group 704" transform="translate(5.979 36.838)">
          <rect id="Rectangle_381" data-name="Rectangle 381" width="2.657" height="2.657" fill="#fff"/>
        </g>
      </g>
      <g id="Group_706" data-name="Group 706" transform="translate(76.665 47.733)">
        <rect id="Rectangle_382" data-name="Rectangle 382" width="20.196" height="40.425" fill="#ae9549"/>
        <rect id="Rectangle_383" data-name="Rectangle 383" width="6.743" height="1.694" transform="translate(2.259 2.823)" fill="#fff"/>
        <rect id="Rectangle_384" data-name="Rectangle 384" width="6.311" height="1.694" transform="translate(11.659 2.823)" fill="#fff"/>
        <rect id="Rectangle_385" data-name="Rectangle 385" width="6.743" height="1.694" transform="translate(2.259 7.308)" fill="#fff"/>
        <rect id="Rectangle_386" data-name="Rectangle 386" width="6.311" height="1.694" transform="translate(11.659 7.308)" fill="#fff"/>
        <rect id="Rectangle_387" data-name="Rectangle 387" width="6.743" height="1.694" transform="translate(2.259 11.792)" fill="#fff"/>
        <rect id="Rectangle_388" data-name="Rectangle 388" width="6.311" height="1.694" transform="translate(11.659 11.792)" fill="#fff"/>
        <rect id="Rectangle_389" data-name="Rectangle 389" width="6.743" height="1.694" transform="translate(2.259 16.276)" fill="#fff"/>
        <rect id="Rectangle_390" data-name="Rectangle 390" width="6.311" height="1.694" transform="translate(11.659 16.276)" fill="#fff"/>
        <rect id="Rectangle_391" data-name="Rectangle 391" width="6.311" height="1.694" transform="translate(11.659 20.794)" fill="#fff"/>
        <rect id="Rectangle_392" data-name="Rectangle 392" width="6.743" height="1.694" transform="translate(2.259 20.794)" fill="#fff"/>
        <rect id="Rectangle_393" data-name="Rectangle 393" width="6.743" height="1.694" transform="translate(2.259 25.278)" fill="#fff"/>
        <rect id="Rectangle_394" data-name="Rectangle 394" width="6.311" height="1.694" transform="translate(11.659 25.278)" fill="#fff"/>
        <rect id="Rectangle_395" data-name="Rectangle 395" width="6.743" height="1.694" transform="translate(2.259 29.762)" fill="#fff"/>
        <rect id="Rectangle_396" data-name="Rectangle 396" width="6.311" height="1.694" transform="translate(11.659 29.762)" fill="#fff"/>
      </g>
    </g>
    <rect id="Rectangle_397" data-name="Rectangle 397" width="96.661" height="2.657" transform="translate(0 91.014)" fill="#77d391"/>
    <rect id="Rectangle_398" data-name="Rectangle 398" width="2.325" height="10.629" transform="translate(76.399 60.123)" fill="#fff"/>
    <rect id="Rectangle_399" data-name="Rectangle 399" width="2.325" height="10.962" transform="translate(76.399 45.507)" fill="#fff"/>
  </g>
</svg>
