<svg id="t7wel_3omlat" xmlns="http://www.w3.org/2000/svg" width="73.271" height="70.658" viewBox="0 0 73.271 70.658">
  <g id="Group_719" data-name="Group 719" transform="translate(32.674 0)">
    <g id="Group_718" data-name="Group 718">
      <g id="Group_717" data-name="Group 717" transform="translate(1.46 7.267)">
        <path id="Path_393" data-name="Path 393" d="M248.352,87.256a12.776,12.776,0,1,0,12.831,12.722A12.776,12.776,0,0,0,248.352,87.256Z" transform="translate(-235.63 -86.323)" fill="#ffa81d"/>
        <path id="Path_394" data-name="Path 394" d="M260.911,92.175a12.5,12.5,0,0,0-.95-2.838,12.77,12.77,0,0,0-2.491-3.55,12.9,12.9,0,0,0-2.236-1.8c-.185-.117-.376-.231-.568-.34a12.7,12.7,0,0,0-2.856-1.178q-.507-.14-1.03-.238c-.348-.066-.705-.119-1.064-.155a12.5,12.5,0,0,0-1.366-.066,12.738,12.738,0,0,0-1.426.085c-.352.041-.7.1-1.042.165a12.782,12.782,0,0,0-10.007,10q-.1.515-.163,1.042a12.684,12.684,0,0,0-.087,1.533q.005.64.068,1.261c.036.36.088.714.155,1.064.034.18.071.358.114.535s.08.33.124.493v0a12.728,12.728,0,0,0,1.179,2.855c.109.192.221.381.338.568a12.836,12.836,0,0,0,5.347,4.727,12.648,12.648,0,0,0,4.644,1.193c.285.02.573.029.863.027a12.885,12.885,0,0,0,1.567-.1,12.65,12.65,0,0,0,1.927-.4,12.814,12.814,0,0,0,7.772-6.353,12.685,12.685,0,0,0,.955-2.375,12.468,12.468,0,0,0,.4-1.925,12.89,12.89,0,0,0-.167-4.238Z" transform="translate(-235.627 -82.013)" fill="#ffd522"/>
        <path id="Path_395" data-name="Path 395" d="M314.172,169.953a12.815,12.815,0,0,1-7.772,6.353,12.65,12.65,0,0,1-1.927.4,12.885,12.885,0,0,1-1.567.1c-.291,0-.578-.007-.863-.027,1.446-.695,2.455-1.979.542-4.323-3.743-4.586,8.428-6.2,8.428-6.2S311.453,171.183,314.172,169.953Z" transform="translate(-290.074 -151.253)" fill="#ffef33"/>
        <ellipse id="Ellipse_10" data-name="Ellipse 10" cx="3.266" cy="1.63" rx="3.266" ry="1.63" transform="translate(15.435 22.481) rotate(-34.02)" fill="#fcfdaf"/>
        <path id="Path_396" data-name="Path 396" d="M256.546,89.858c-2.884,2.474-17.061,3.129-17.061,3.129a3.817,3.817,0,0,0-3.858,1.856,12.684,12.684,0,0,1,.087-1.533q.059-.528.163-1.042a12.782,12.782,0,0,1,10.007-10c.342-.07.69-.124,1.042-.165a12.738,12.738,0,0,1,1.426-.085,12.5,12.5,0,0,1,1.366.066c.358.036.715.088,1.064.155s.692.144,1.03.238a12.7,12.7,0,0,1,2.856,1.178c.192.109.382.223.568.34a12.85,12.85,0,0,1,4.352,4.616S258.114,87.9,256.546,89.858Z" transform="translate(-235.627 -82.013)" fill="#ffb311"/>
        <path id="Path_397" data-name="Path 397" d="M272.957,109.817a9.519,9.519,0,0,1-8.882,9.5c-.21.014-.425.022-.639.022a9.52,9.52,0,0,1,0-19.04c.214,0,.429.008.639.022A9.52,9.52,0,0,1,272.957,109.817Z" transform="translate(-250.659 -97.04)" fill="#d86c0b"/>
        <path id="Path_398" data-name="Path 398" d="M274.488,111.772c0,.162,0,.325-.014.484-.005.088-.01.175-.017.262a9.1,9.1,0,0,1-8.457,8.33l-.124.007c-.162.009-.323.014-.486.014a9.055,9.055,0,0,1-2.316-.3c-.182-.046-.364-.1-.542-.16a9.134,9.134,0,0,1-5.026-4.1,9.031,9.031,0,0,1-1.178-3.762c-.022-.257-.034-.517-.034-.78,0-.241.009-.479.027-.715a9.256,9.256,0,0,1,.231-1.451,9.114,9.114,0,0,1,6.673-6.671,8.809,8.809,0,0,1,1.45-.231c.236-.02.476-.029.715-.029.206,0,.41.009.61.02.056,0,.114.009.17.014a9.088,9.088,0,0,1,8.318,9.064Z" transform="translate(-252.615 -98.995)" fill="#ffa70b"/>
        <path id="Path_399" data-name="Path 399" d="M264.8,102.833l-8.353,8.353a8.964,8.964,0,0,1,.232-1.45l6.672-6.672A8.961,8.961,0,0,1,264.8,102.833Z" transform="translate(-252.742 -99.126)" fill="#ffbe16"/>
        <path id="Path_400" data-name="Path 400" d="M270.09,104.048l-12.426,12.426a9.025,9.025,0,0,1-1.178-3.763l9.843-9.843A9.023,9.023,0,0,1,270.09,104.048Z" transform="translate(-252.772 -99.155)" fill="#ffbe16"/>
        <path id="Path_401" data-name="Path 401" d="M303.28,140.566c0,.162,0,.324-.014.485l-8.6,8.6c-.161.009-.323.014-.486.014a9.087,9.087,0,0,1-2.858-.458l11.5-11.5A9.1,9.1,0,0,1,303.28,140.566Z" transform="translate(-281.406 -127.789)" fill="#ffbe16"/>
        <g id="Group_716" data-name="Group 716" transform="translate(8.205 5.064)">
          <g id="Group_715" data-name="Group 715">
            <path id="Path_402" data-name="Path 402" d="M290.086,124.07V125.7h-1.969l-.532-.532.532-1.1a3.591,3.591,0,0,1-3.42-2.943l1.834-1.169.532.532a1.923,1.923,0,0,0,2.088,1.65c.935,0,1.591-.418,1.591-1.273,0-1.273-1.412-1.392-2.9-1.79-1.451-.378-2.963-1.034-2.963-3.221,0-1.869,1.153-2.983,3.082-3.241l-.532-2.163h1.969l.532.532v1.65a3.546,3.546,0,0,1,3.261,2.684l-2.267.616-.532-.532.3-.082a1.886,1.886,0,0,0-1.755-.8c-1.133,0-1.611.537-1.611,1.213,0,.994.855,1.213,2.366,1.591,1.571.4,3.619.935,3.619,3.4C293.307,122.678,292.014,123.792,290.086,124.07Z" transform="translate(-284.164 -110.453)" fill="#d86c0b"/>
            <path id="Path_403" data-name="Path 403" d="M288.17,117.239l-.009,0a12.385,12.385,0,0,0-1.465-.44,9.746,9.746,0,0,1-1.57-.474h0a1.522,1.522,0,0,1-.566-.406,1.075,1.075,0,0,1-.226-.71c0-.634.418-1.144,1.4-1.206.068-.005.138-.007.209-.007a3.067,3.067,0,0,1,.5.037,1.64,1.64,0,0,1,1.487,1.375l2.267-.617a3.352,3.352,0,0,0-2.114-2.4,5.073,5.073,0,0,0-1.147-.287v-1.65h-1.969v1.631l-.019,0c-1.917.262-3.064,1.375-3.064,3.237a2.943,2.943,0,0,0,.681,2.037h0a2.573,2.573,0,0,0,.273.27,5.034,5.034,0,0,0,2.007.914c1.492.4,2.9.518,2.9,1.791,0,.853-.654,1.271-1.591,1.271a2.8,2.8,0,0,1-.426-.031,1.862,1.862,0,0,1-1.66-1.619l-2.367.637a3.594,3.594,0,0,0,3.421,2.943v1.63H287.1v-1.63c1.917-.279,3.206-1.38,3.22-3.307a.257.257,0,0,0,0-.034A2.959,2.959,0,0,0,288.17,117.239Z" transform="translate(-281.706 -110.451)" fill="#ffd522"/>
          </g>
        </g>
      </g>
      <rect id="Rectangle_403" data-name="Rectangle 403" width="8.248" height="13.842" transform="translate(40.597 13.842) rotate(180)" fill="#08668d"/>
      <rect id="Rectangle_404" data-name="Rectangle 404" width="8.248" height="3.704" transform="translate(40.597 13.842) rotate(180)" fill="#0a577b"/>
      <path id="Path_404" data-name="Path 404" d="M413.473,81.392a1.316,1.316,0,0,0,2.383.774,1.3,1.3,0,0,0,.254-.774,1.318,1.318,0,1,0-2.636,0Z" transform="translate(-380.344 -73.152)" fill="#ffd522"/>
      <path id="Path_405" data-name="Path 405" d="M413.473,82.218a1.316,1.316,0,0,0,2.383.774A1.3,1.3,0,0,0,416,82.4a1.27,1.27,0,1,0-2.525-.179Z" transform="translate(-380.344 -73.978)" fill="#ffa70b"/>
      <path id="Path_406" data-name="Path 406" d="M417.641,83.959a.282.282,0,1,0-.282.282A.282.282,0,0,0,417.641,83.959Z" transform="translate(-383.306 -76.114)" fill="#d86c0b"/>
      <path id="Path_407" data-name="Path 407" d="M422.067,83.959a.282.282,0,1,0-.282.282A.282.282,0,0,0,422.067,83.959Z" transform="translate(-386.944 -76.114)" fill="#d86c0b"/>
      <path id="Path_408" data-name="Path 408" d="M417.641,88.385a.282.282,0,1,0-.282.282A.282.282,0,0,0,417.641,88.385Z" transform="translate(-383.306 -79.752)" fill="#d86c0b"/>
      <path id="Path_409" data-name="Path 409" d="M422.067,88.385a.282.282,0,1,0-.282.282A.282.282,0,0,0,422.067,88.385Z" transform="translate(-386.944 -79.752)" fill="#d86c0b"/>
      <rect id="Rectangle_405" data-name="Rectangle 405" width="2.066" height="11.578" transform="translate(32.35 12.101) rotate(180)" fill="#fff"/>
      <rect id="Rectangle_406" data-name="Rectangle 406" width="0.652" height="11.578" transform="translate(32.35 12.101) rotate(180)" fill="#b2dcde"/>
      <path id="Path_410" data-name="Path 410" d="M228.3,53.935c.477-2.67.711-3.166,2.045-4.21,1.679-1.315,6.5-4.349,8.177-5.348s2.051-2.117,5.732-1.837S255.89,43.8,257.713,43.8V52.6c-.833.093-2.6,1.5-4.793,1.332s-5.221-.982-7.318-.657-4.872,1.1-6.654.95c-1.25-.1-2.089-.511-2.329-1.183a1.814,1.814,0,0,1,.556-1.807s-3.389,1.592-4.368,2.042c-.791.994-1.133,3.75-2.438,5.241a3.276,3.276,0,0,1-2.225,1.22h0c-.414.015-.693-.115-.71-.3A52.971,52.971,0,0,1,228.3,53.935Z" transform="translate(-227.429 -42.266)" fill="#fcd2c5"/>
      <path id="Path_411" data-name="Path 411" d="M231.442,83.257c2.008-.557,2.453-4.206,3.086-6.028s.707-1.823,3.421-3.051a31.091,31.091,0,0,1,8.518-2.231c1.8-.283,4.834-1.3,3.9-.595a14.493,14.493,0,0,1-5.244,1.675c-1.935.3-3.794.818-4.655,1.728,0,0-3.389,1.592-4.368,2.042-.791.994-1.133,3.75-2.438,5.241A3.276,3.276,0,0,1,231.442,83.257Z" transform="translate(-230.728 -65.782)" fill="#e98e73" opacity="0.5"/>
    </g>
    <path id="Path_412" data-name="Path 412" d="M300.02,110.454l1.774.214.195,1.436v-1.65Z" transform="translate(-287.094 -98.122)" fill="#fbeb96"/>
    <path id="Path_413" data-name="Path 413" d="M316.572,120.994a3.868,3.868,0,0,1,1.993,2.24l-1.977.834,2.266-.616A3.358,3.358,0,0,0,316.572,120.994Z" transform="translate(-300.698 -106.786)" fill="#fbeb96"/>
    <path id="Path_414" data-name="Path 414" d="M315.2,151.529a.257.257,0,0,1,0,.034c-.014,1.927-1.3,3.028-3.22,3.307,2.1-.644,2.919-1.73,2.919-3.307a3.346,3.346,0,0,0-1.845-2.991A2.959,2.959,0,0,1,315.2,151.529Z" transform="translate(-296.919 -129.453)" fill="#fbeb96"/>
    <path id="Path_415" data-name="Path 415" d="M302.884,183.936l-.207,1.456-1.763.173h1.969Z" transform="translate(-287.829 -158.519)" fill="#fbeb96"/>
    <path id="Path_416" data-name="Path 416" d="M285.733,165.449a1.867,1.867,0,0,1-1.806-1.332l-2.221.35,2.367-.637A1.862,1.862,0,0,0,285.733,165.449Z" transform="translate(-272.041 -141.994)" fill="#fbeb96"/>
    <path id="Path_417" data-name="Path 417" d="M296.246,132.678a1.189,1.189,0,0,1-.986-1.373c.139-.709.777-.98,1.6-.95-.984.063-1.4.573-1.4,1.206a1.075,1.075,0,0,0,.226.71A1.521,1.521,0,0,0,296.246,132.678Z" transform="translate(-283.164 -114.478)" fill="#fbeb96"/>
    <path id="Path_418" data-name="Path 418" d="M329.765,196.063l3.466-2.976-2.976,3.466,2.976,3.466-3.466-2.976-3.466,2.976,2.976-3.466-2.976-3.466Z" transform="translate(-308.693 -166.041)" fill="#fff"/>
    <path id="Path_419" data-name="Path 419" d="M285.772,119.631a3.912,3.912,0,0,0-2.421,1.62,3.6,3.6,0,0,0,.041,3.655h0a2.943,2.943,0,0,1-.682-2.037C282.708,121.006,283.855,119.893,285.772,119.631Z" transform="translate(-272.864 -105.665)" fill="#fbeb96"/>
  </g>
  <g id="Group_722" data-name="Group 722" transform="translate(0 34.09)">
    <g id="Group_721" data-name="Group 721" transform="translate(0 0.641)">
      <rect id="Rectangle_407" data-name="Rectangle 407" width="8.247" height="13.842" transform="translate(0 22.085)" fill="#08668d"/>
      <rect id="Rectangle_408" data-name="Rectangle 408" width="8.247" height="3.704" transform="translate(0 32.223)" fill="#0a577b"/>
      <path id="Path_420" data-name="Path 420" d="M73.712,400.453a1.316,1.316,0,0,1-2.383.774,1.3,1.3,0,0,1-.254-.774,1.318,1.318,0,0,1,2.637,0Z" transform="translate(-66.243 -370.128)" fill="#ffd522"/>
      <path id="Path_421" data-name="Path 421" d="M74.227,401.279a1.316,1.316,0,0,1-2.383.774,1.3,1.3,0,0,1-.142-.595,1.27,1.27,0,1,1,2.525-.179Z" transform="translate(-66.759 -370.955)" fill="#ffa70b"/>
      <path id="Path_422" data-name="Path 422" d="M79.109,403.02a.282.282,0,1,1,.282.282A.282.282,0,0,1,79.109,403.02Z" transform="translate(-72.847 -373.09)" fill="#d86c0b"/>
      <path id="Path_423" data-name="Path 423" d="M74.682,403.02a.282.282,0,1,1,.282.282A.282.282,0,0,1,74.682,403.02Z" transform="translate(-69.208 -373.09)" fill="#d86c0b"/>
      <path id="Path_424" data-name="Path 424" d="M79.109,407.447a.282.282,0,1,1,.282.282A.282.282,0,0,1,79.109,407.447Z" transform="translate(-72.847 -376.729)" fill="#d86c0b"/>
      <path id="Path_425" data-name="Path 425" d="M74.682,407.447a.282.282,0,1,1,.282.282A.282.282,0,0,1,74.682,407.447Z" transform="translate(-69.208 -376.729)" fill="#d86c0b"/>
      <rect id="Rectangle_409" data-name="Rectangle 409" width="2.066" height="11.578" transform="translate(8.247 22.607)" fill="#fff"/>
      <g id="Group_720" data-name="Group 720" transform="translate(13.52)">
        <path id="Path_426" data-name="Path 426" d="M132.586,241.486a12.776,12.776,0,1,0,12.831,12.722A12.777,12.777,0,0,0,132.586,241.486Z" transform="translate(-119.864 -240.553)" fill="#ffa81d"/>
        <path id="Path_427" data-name="Path 427" d="M145.148,246.4a12.608,12.608,0,0,0-.95-2.838,12.85,12.85,0,0,0-4.727-5.347q-.279-.177-.568-.339a12.673,12.673,0,0,0-2.856-1.178c-.338-.093-.682-.173-1.03-.238s-.7-.119-1.064-.154a12.509,12.509,0,0,0-1.367-.067,12.928,12.928,0,0,0-1.425.085q-.528.061-1.043.165A12.787,12.787,0,0,0,120.114,246.5q-.1.514-.163,1.041a12.539,12.539,0,0,0-.086,1.534c0,.425.024.845.067,1.26q.055.539.154,1.063t.239,1.029h0a12.627,12.627,0,0,0,1.178,2.854q.163.288.339.568a12.847,12.847,0,0,0,5.347,4.727,12.566,12.566,0,0,0,2.837.952,12.88,12.88,0,0,0,4.237.166,12.559,12.559,0,0,0,1.926-.4,12.8,12.8,0,0,0,8.728-8.728,12.618,12.618,0,0,0,.4-1.926,12.869,12.869,0,0,0-.166-4.237Z" transform="translate(-119.864 -236.243)" fill="#ffd522"/>
        <path id="Path_428" data-name="Path 428" d="M128.032,243.218a12.815,12.815,0,0,1,7.772-6.353,12.68,12.68,0,0,1,1.927-.4,12.885,12.885,0,0,1,1.567-.1c.291,0,.578.007.863.027-1.446.695-2.455,1.979-.542,4.323,3.743,4.586-8.428,6.2-8.428,6.2S130.751,241.988,128.032,243.218Z" transform="translate(-126.578 -236.343)" fill="#ffef33"/>
        <ellipse id="Ellipse_11" data-name="Ellipse 11" cx="3.266" cy="1.63" rx="3.266" ry="1.63" transform="matrix(0.829, -0.559, 0.559, 0.829, 2.789, 4.054)" fill="#fcfdaf"/>
        <path id="Path_429" data-name="Path 429" d="M138.187,315.4c2.884-2.474,13.249-5.05,13.249-5.05s3.669.617,4.7-2.533a12.711,12.711,0,0,1-.087,1.533q-.059.528-.163,1.042A12.783,12.783,0,0,1,145.878,320.4c-.342.07-.69.124-1.042.165a12.782,12.782,0,0,1-1.426.085,12.5,12.5,0,0,1-1.366-.066c-.359-.036-.715-.088-1.064-.155s-.691-.144-1.03-.238a12.709,12.709,0,0,1-2.856-1.177c-.192-.109-.382-.223-.568-.34a12.871,12.871,0,0,1-3.623-3.452S134.925,316.659,138.187,315.4Z" transform="translate(-130.582 -295.072)" fill="#ffb311"/>
        <path id="Path_430" data-name="Path 430" d="M157.191,264.046a9.519,9.519,0,0,1-8.882,9.5c-.21.014-.425.022-.639.022a9.52,9.52,0,0,1,0-19.041c.214,0,.429.008.639.022A9.52,9.52,0,0,1,157.191,264.046Z" transform="translate(-134.894 -251.269)" fill="#d86c0b"/>
        <path id="Path_431" data-name="Path 431" d="M158.721,266c0,.162,0,.324-.014.484a9.094,9.094,0,0,1-8.474,8.59l-.124.008c-.161.009-.323.014-.486.014a9.085,9.085,0,0,1-9.062-8.317c-.023-.257-.034-.516-.034-.779,0-.242.009-.48.028-.716a8.963,8.963,0,0,1,.232-1.45,9.111,9.111,0,0,1,6.672-6.672,8.959,8.959,0,0,1,1.45-.232c.235-.019.475-.028.715-.028.2,0,.41.007.61.02.057,0,.114.008.171.014a9.02,9.02,0,0,1,3.762,1.179A9.079,9.079,0,0,1,158.721,266Z" transform="translate(-136.848 -253.227)" fill="#ffa70b"/>
        <path id="Path_432" data-name="Path 432" d="M149.037,257.063l-8.353,8.353a8.962,8.962,0,0,1,.232-1.45l6.672-6.672A8.959,8.959,0,0,1,149.037,257.063Z" transform="translate(-136.977 -253.356)" fill="#ffbe16"/>
        <path id="Path_433" data-name="Path 433" d="M154.324,258.278,141.9,270.7a9.026,9.026,0,0,1-1.178-3.763l9.843-9.843A9.02,9.02,0,0,1,154.324,258.278Z" transform="translate(-137.006 -253.385)" fill="#ffbe16"/>
        <path id="Path_434" data-name="Path 434" d="M187.514,294.8c0,.162,0,.324-.014.485l-8.6,8.6c-.161.009-.323.014-.486.014a9.082,9.082,0,0,1-2.858-.458l11.5-11.5A9.1,9.1,0,0,1,187.514,294.8Z" transform="translate(-165.64 -282.019)" fill="#ffbe16"/>
        <path id="Path_435" data-name="Path 435" d="M173.363,278.736a4.133,4.133,0,0,1-3.483,3.52l3.785,4.895h-3.043l-.575-.467-3.831-4.846.575-1.5h1.7c1.3,0,2.245-.449,2.505-1.607h-4.8l-.575-.467V276.4l5.208.467c-.4-.8-1.324-1.087-2.505-1.087H166.2l-.575-.467v-1.867h9.384l.575.467v1.867h-2.837l-.047.047a2.988,2.988,0,0,1,.5,1.04l1.813-.467.575.467v1.867Z" transform="translate(-157.477 -266.822)" fill="#d86c0b"/>
        <path id="Path_436" data-name="Path 436" d="M175.007,275.318v-1.867h-9.385v1.867h2.127a3.081,3.081,0,0,1,2.177.639,1.614,1.614,0,0,1,.33.447h-4.634v1.867h4.8c-.262,1.159-1.206,1.607-2.506,1.607h-1.7v1.962l3.49,4.413.342.431h2.836l-1.592-2.019-2.228-2.826a4.2,4.2,0,0,0,3.725-3.57h2.221V276.4h-2.387a2.971,2.971,0,0,0-.5-1.04l.048-.046Z" transform="translate(-157.474 -266.825)" fill="#ffd522"/>
      </g>
      <rect id="Rectangle_410" data-name="Rectangle 410" width="0.652" height="11.578" transform="translate(8.247 22.607)" fill="#b2dcde"/>
      <path id="Path_437" data-name="Path 437" d="M131.276,333.458c-.477,2.67-.711,3.166-2.045,4.21-1.679,1.315-6.5,4.349-8.177,5.348s-2.051,2.117-5.732,1.837-11.636-1.257-13.459-1.257V334.79c.833-.093,2.6-1.5,4.793-1.332s5.221.982,7.318.657,4.873-1.1,6.654-.95c1.25.1,2.089.511,2.329,1.183a1.813,1.813,0,0,1-.556,1.807s3.389-1.592,4.368-2.042c.791-.994,1.133-3.75,2.438-5.241a3.276,3.276,0,0,1,2.225-1.22h0c.414-.015.693.115.71.3A52.984,52.984,0,0,1,131.276,333.458Z" transform="translate(-91.549 -311.373)" fill="#fcd2c5"/>
      <path id="Path_438" data-name="Path 438" d="M179.74,327.657c-2.008.557-2.453,4.206-3.086,6.028s-.707,1.823-3.421,3.051a31.081,31.081,0,0,1-8.518,2.231c-1.8.283-4.834,1.3-3.9.595a14.49,14.49,0,0,1,5.244-1.675c1.935-.3,3.794-.818,4.655-1.728,0,0,3.389-1.592,4.368-2.042.791-.994,1.133-3.75,2.438-5.241A3.277,3.277,0,0,1,179.74,327.657Z" transform="translate(-139.857 -311.379)" fill="#e98e73" opacity="0.5"/>
    </g>
    <path id="Path_439" data-name="Path 439" d="M165.625,273.448l9.06.3.325,1.571v-1.868Z" transform="translate(-143.956 -266.181)" fill="#fbeb96"/>
    <path id="Path_440" data-name="Path 440" d="M204.917,290.039l2.114.286.273,1.581v-1.868Z" transform="translate(-176.252 -279.818)" fill="#fbeb96"/>
    <path id="Path_441" data-name="Path 441" d="M184.937,320.571l3.223,4.6-2.24.249h2.837Z" transform="translate(-159.83 -304.913)" fill="#fbeb96"/>
    <path id="Path_442" data-name="Path 442" d="M173.152,300.522c0,1.929-2.02,1.927-3.191,1.927h-.744l-.274,1.643V302.13h1.7C171.945,302.13,172.89,301.681,173.152,300.522Z" transform="translate(-146.684 -288.434)" fill="#fbeb96"/>
    <path id="Path_443" data-name="Path 443" d="M165.622,291.9l.191-1.632,4.443-.236h-4.634Z" transform="translate(-143.954 -279.815)" fill="#fbeb96"/>
    <path id="Path_444" data-name="Path 444" d="M133.481,236.6l-3.466,2.976,2.976-3.466-2.976-3.466,3.466,2.976,3.466-2.976-2.976,3.466,2.976,3.466Z" transform="translate(-114.688 -232.641)" fill="#fff"/>
  </g>
  <path id="Path_445" data-name="Path 445" d="M94.093,94.96c-.223-.036-.548-.1-.967-.16l-.7-.082-.4-.046-.428-.028c-.3-.014-.61-.048-.943-.048s-.684-.01-1.051,0-.75.03-1.146.064l-.6.065c-.2.021-.413.043-.622.083-.419.07-.853.135-1.288.245-.218.053-.442.094-.662.16l-.669.2a16.4,16.4,0,0,0-2.692,1.1,15.691,15.691,0,0,0-2.565,1.645,16.323,16.323,0,0,0-2.237,2.13,17.2,17.2,0,0,0-1.754,2.472,17.652,17.652,0,0,0-1.2,2.6l-.21.646-.1.318-.082.317-.158.621-.118.607a16.376,16.376,0,0,0-.255,2.2,15.385,15.385,0,0,0,.019,1.754c0,.067.007.13.011.19l-3.315-.566,7.61,9.216,3.532-11.55-3.742,2.324-.032-.163a11.342,11.342,0,0,1-.185-1.257,12.644,12.644,0,0,1-.035-1.706q.013-.236.025-.482l.058-.5.029-.257.045-.259.094-.531a13.025,13.025,0,0,1,1.839-4.426,13.885,13.885,0,0,1,1.641-2.048,13.635,13.635,0,0,1,2.032-1.727,14.75,14.75,0,0,1,2.273-1.312l.584-.261c.193-.088.393-.152.587-.228.387-.157.779-.27,1.161-.388.19-.064.381-.11.57-.155l.559-.137c.369-.083.73-.139,1.076-.207s.684-.09,1-.133.626-.05.914-.076l.418-.029.39-.007.689-.012c.416.005.743.024.967.03l.343.012.022-.168Z" transform="translate(-65.33 -85.084)" fill="#1c73a3"/>
  <path id="Path_446" data-name="Path 446" d="M312.406,235.457l4.022.94-7.61-9.216-4.238,11.175,3.742-2.325.031.163a11.311,11.311,0,0,1,.185,1.257,12.62,12.62,0,0,1,.035,1.706q-.013.236-.025.482l-.058.5-.029.257-.046.259-.094.531a13.028,13.028,0,0,1-1.839,4.426,13.908,13.908,0,0,1-1.641,2.048,13.645,13.645,0,0,1-2.032,1.727,14.748,14.748,0,0,1-2.273,1.312l-.584.261c-.193.088-.393.152-.587.228-.387.157-.779.27-1.161.388-.19.063-.381.11-.57.155l-.559.137c-.368.082-.73.139-1.076.207s-.684.09-1,.133-.626.05-.914.076l-.418.029-.39.007-.689.012c-.416-.005-.743-.024-.967-.03l-.343-.012-.022.168.34.058c.223.036.548.1.967.16l.7.082.4.046.428.027c.3.014.61.048.943.048s.684.01,1.051,0,.75-.03,1.146-.064l.6-.065c.2-.021.413-.043.622-.083.419-.07.853-.135,1.288-.245.218-.053.443-.094.662-.16l.669-.2a16.421,16.421,0,0,0,2.693-1.1,15.694,15.694,0,0,0,2.565-1.645,16.318,16.318,0,0,0,2.237-2.131,17.167,17.167,0,0,0,1.754-2.472,17.632,17.632,0,0,0,1.2-2.6l.21-.646.1-.318.082-.317.158-.621.118-.607a16.414,16.414,0,0,0,.255-2.2,15.473,15.473,0,0,0-.019-1.754C312.413,235.58,312.41,235.517,312.406,235.457Z" transform="translate(-247.212 -194.064)" fill="#1c73a3"/>
</svg>
