<svg id="placeholder" xmlns="http://www.w3.org/2000/svg" width="33.832" height="33.833" viewBox="0 0 33.832 33.833">
  <g id="Group_796" data-name="Group 796" transform="translate(0)">
    <g id="Group_795" data-name="Group 795" transform="translate(0)">
      <ellipse id="Ellipse_22" data-name="Ellipse 22" cx="2.723" cy="2.723" rx="2.723" ry="2.723" transform="translate(14.242 9.747)" fill="#82a2f6"/>
      <path id="Path_827" data-name="Path 827" d="M16.917,0A16.916,16.916,0,1,0,33.833,16.916,16.916,16.916,0,0,0,16.917,0Zm-.035,7.745h.071A5.275,5.275,0,0,1,22.122,13c0,3.486-3.724,7.015-5.2,8.28-.1-.085-.209-.18-.326-.284l-.006,0c-1.638-1.455-4.873-4.742-4.873-7.991A5.275,5.275,0,0,1,16.882,7.745Zm.109,18.447c-3.12,0-6.278-.895-6.278-2.6,0-1.2,1.555-2,3.56-2.368.388.39.755.734,1.077,1.021-2.184.244-3.467.935-3.467,1.347,0,.506,1.939,1.435,5.108,1.435s5.108-.929,5.108-1.435c0-.42-1.337-1.129-3.6-1.359.325-.29.695-.637,1.086-1.031,2.065.36,3.685,1.166,3.685,2.391C23.269,25.3,20.111,26.192,16.991,26.192Z" transform="translate(-0.001)" fill="#82a2f6"/>
    </g>
  </g>
</svg>
