<svg xmlns="http://www.w3.org/2000/svg" width="33.51" height="33.511" viewBox="0 0 33.51 33.511">
  <path id="Subtraction_1" data-name="Subtraction 1" d="M16.755,33.511A16.756,16.756,0,0,1,4.907,4.907,16.755,16.755,0,0,1,28.6,28.6,16.644,16.644,0,0,1,16.755,33.511Zm.453-24.894c-5.266,0-9.55,3.366-9.55,7.5a6.692,6.692,0,0,0,2.53,5.087c-.061,1.309-.333,3.057-1.286,3.958A8.54,8.54,0,0,0,13.7,23.1a11.757,11.757,0,0,0,3.505.524c5.265,0,9.549-3.366,9.549-7.5S22.474,8.617,17.208,8.617Z" fill="#82a2f6"/>
</svg>
