<svg id="Group_801" data-name="Group 801" xmlns="http://www.w3.org/2000/svg" width="33.511" height="33.511" viewBox="0 0 33.511 33.511">
  <circle id="Ellipse_27" data-name="Ellipse 27" cx="16.755" cy="16.755" r="16.755" transform="translate(0 0)" fill="#82a2f6"/>
  <g id="call" transform="translate(5.745 6.702)">
    <g id="Group_800" data-name="Group 800" transform="translate(0 0)">
      <g id="Group_799" data-name="Group 799">
        <path id="Path_828" data-name="Path 828" d="M184.345,118.251a.6.6,0,0,0-.061.2.492.492,0,1,0,.98.082,1,1,0,0,1,.02-.225v-.225a5.4,5.4,0,0,0-.286-1.715,5.092,5.092,0,0,0-3.471-3.206,5.416,5.416,0,0,0-1.286-.163,3.46,3.46,0,0,0-.449.02l-.429.061a.477.477,0,1,0,.163.939,2.011,2.011,0,0,1,.347-.041h.061c.1,0,.2-.02.306-.02a4.04,4.04,0,0,1,2.9,1.2,4.114,4.114,0,0,1,1.2,2.859v.225Z" transform="translate(-169.828 -107.49)" fill="#fcfcfc"/>
        <path id="Path_829" data-name="Path 829" d="M177.931,68.215a.492.492,0,1,0,.98.082c.02-.225.02-.449.02-.674a9.15,9.15,0,0,0-.1-1.307,7.832,7.832,0,0,0-7.085-6.493c-.2-.02-.429-.02-.633-.02-.225,0-.449,0-.674.02s-.449.041-.674.082a.477.477,0,0,0,.163.939c.143-.02.265-.041.408-.061.061,0,.122-.02.184-.02.2-.02.408-.02.592-.02a7.037,7.037,0,0,1,1.981.286,6.787,6.787,0,0,1,2.879,1.715,7.014,7.014,0,0,1,1.531,2.307,6.9,6.9,0,0,1,.49,2.532v.2A1.669,1.669,0,0,0,177.931,68.215Z" transform="translate(-160.718 -57.006)" fill="#fcfcfc"/>
        <path id="Path_830" data-name="Path 830" d="M169.135,8.127A10.6,10.6,0,0,0,161.6,5c-.306,0-.613.02-.919.041a7.083,7.083,0,0,0-.919.123.477.477,0,0,0,.163.939c.143-.02.265-.041.408-.061A3.046,3.046,0,0,1,160.764,6c.286-.02.551-.041.837-.041a9.621,9.621,0,0,1,9.638,9.638v.449c0,.123-.02.245-.02.388a.492.492,0,0,0,.98.082c.02-.306.041-.613.041-.9A10.572,10.572,0,0,0,169.135,8.127Z" transform="translate(-151.228 -5.003)" fill="#fcfcfc"/>
        <path id="Path_831" data-name="Path 831" d="M20.255,34.048l-3.614-1.94c-1.2-.653-1.246-.225-2.512,1.123-.306.327-.878,1.184-1.552,1.021-1.409-.347-4.043-2.409-4.9-3.349-.408-.449-2.164-2.593-2.185-3.287C5.451,26.555,7.779,26.024,7.024,24L5.41,20.388C3.9,16.917-.327,22.471.02,25.064c.9,6.391,12.108,16.723,18.356,13.313C19.765,37.6,21.643,34.886,20.255,34.048Z" transform="translate(0 -18.551)" fill="#fcfcfc"/>
      </g>
    </g>
  </g>
</svg>
