<svg id="whatsapp" xmlns="http://www.w3.org/2000/svg" width="33.511" height="33.511" viewBox="0 0 33.511 33.511">
  <g id="Group_793" data-name="Group 793">
    <path id="Path_824" data-name="Path 824" d="M16.76,0h-.008A16.745,16.745,0,0,0,3.19,26.576L1.1,32.8l6.44-2.059A16.752,16.752,0,1,0,16.76,0Zm9.75,23.661c-.4,1.141-2.009,2.088-3.288,2.365-.875.186-2.019.335-5.869-1.261-4.924-2.04-8.095-7.044-8.342-7.368a9.57,9.57,0,0,1-1.99-5.054A5.349,5.349,0,0,1,8.734,8.265a2.434,2.434,0,0,1,1.713-.6c.207,0,.394.01.561.019.492.021.739.05,1.064.827.4.974,1.389,3.378,1.506,3.625a1,1,0,0,1,.071.907,2.9,2.9,0,0,1-.542.769c-.247.285-.482.5-.729.808-.226.266-.482.551-.2,1.043A14.872,14.872,0,0,0,14.9,19.04a12.318,12.318,0,0,0,3.929,2.423,1.059,1.059,0,0,0,1.181-.186,20.273,20.273,0,0,0,1.309-1.734.935.935,0,0,1,1.2-.364c.452.157,2.846,1.34,3.338,1.585s.817.364.936.572A4.173,4.173,0,0,1,26.509,23.661Z" fill="#82a2f6"/>
  </g>
</svg>
